STARTFONT 2.1
COMMENT knj10.bdf Ver.1.1 (1999.5.30)
COMMENT Copyright 1998, 1999 (c) NAGAO, Sadakazu.  All rights reserved.
COMMENT E-mail: snagao@tkb.att.ne.jp
FONT -Misc-Fixed-Medium-R-Normal--10-90-75-75-C-100-jisx0208.1983-0
SIZE 10 75 75
FONTBOUNDINGBOX 10 10 0 -2
STARTPROPERTIES 20
FONTNAME_REGISTRY ""
FOUNDRY "Misc"
FAMILY_NAME "Fixed"
WEIGHT_NAME "Medium"
SLANT "R"
SETWIDTH_NAME "Normal"
ADD_STYLE_NAME ""
PIXEL_SIZE 10
POINT_SIZE 90
RESOLUTION_X 75
RESOLUTION_Y 75
SPACING "C"
AVERAGE_WIDTH 100
CHARSET_REGISTRY "jisx0208.1983"
CHARSET_ENCODING "0"
DEFAULT_CHAR 8481
FONT_DESCENT 2
FONT_ASCENT 8
COPYRIGHT "Copyright 1998, 1999 (c) NAGAO, Sadakazu.  All rights reserved."
_XMBDFED_INFO "Edited with xmbdfed 3.4."
ENDPROPERTIES
CHARS 6877
STARTCHAR 2121
ENCODING 8481
SWIDTH 960 0
DWIDTH 10 0
BBX 10 10 0 -2
BITMAP
0000
0000
0000
0000
0000
0000
0000
0000
0000
0000
ENDCHAR
STARTCHAR 2122
ENCODING 8482
SWIDTH 960 0
DWIDTH 10 0
BBX 10 10 0 -2
BITMAP
0000
0000
0000
0000
0000
0000
4000
2000
1000
0000
ENDCHAR
STARTCHAR 2123
ENCODING 8483
SWIDTH 960 0
DWIDTH 10 0
BBX 10 10 0 -2
BITMAP
0000
0000
0000
0000
0000
3000
4800
4800
3000
0000
ENDCHAR
STARTCHAR 2124
ENCODING 8484
SWIDTH 960 0
DWIDTH 10 0
BBX 10 10 0 -2
BITMAP
0000
0000
0000
0000
0000
0000
6000
6000
2000
4000
ENDCHAR
STARTCHAR 2125
ENCODING 8485
SWIDTH 960 0
DWIDTH 10 0
BBX 10 10 0 -2
BITMAP
0000
0000
0000
0000
0000
0000
0000
6000
6000
0000
ENDCHAR
STARTCHAR 2126
ENCODING 8486
SWIDTH 960 0
DWIDTH 10 0
BBX 10 10 0 -2
BITMAP
0000
0000
0000
0000
0C00
0C00
0000
0000
0000
0000
ENDCHAR
STARTCHAR 2127
ENCODING 8487
SWIDTH 960 0
DWIDTH 10 0
BBX 10 10 0 -2
BITMAP
0000
0000
0C00
0C00
0000
0000
0C00
0C00
0000
0000
ENDCHAR
STARTCHAR 2128
ENCODING 8488
SWIDTH 960 0
DWIDTH 10 0
BBX 10 10 0 -2
BITMAP
0000
0000
0C00
0C00
0000
0000
0C00
0C00
0400
0800
ENDCHAR
STARTCHAR 2129
ENCODING 8489
SWIDTH 960 0
DWIDTH 10 0
BBX 10 10 0 -2
BITMAP
0000
0E00
1100
0100
0200
0400
0000
0400
0000
0000
ENDCHAR
STARTCHAR 212a
ENCODING 8490
SWIDTH 960 0
DWIDTH 10 0
BBX 10 10 0 -2
BITMAP
0000
0400
0400
0400
0400
0000
0000
0400
0000
0000
ENDCHAR
STARTCHAR 212b
ENCODING 8491
SWIDTH 960 0
DWIDTH 10 0
BBX 10 10 0 -2
BITMAP
2000
1000
4000
2000
0000
0000
0000
0000
0000
0000
ENDCHAR
STARTCHAR 212c
ENCODING 8492
SWIDTH 960 0
DWIDTH 10 0
BBX 10 10 0 -2
BITMAP
2000
5000
5000
2000
0000
0000
0000
0000
0000
0000
ENDCHAR
STARTCHAR 212d
ENCODING 8493
SWIDTH 960 0
DWIDTH 10 0
BBX 10 10 0 -2
BITMAP
0400
0800
0000
0000
0000
0000
0000
0000
0000
0000
ENDCHAR
STARTCHAR 212e
ENCODING 8494
SWIDTH 960 0
DWIDTH 10 0
BBX 10 10 0 -2
BITMAP
0800
0400
0000
0000
0000
0000
0000
0000
0000
0000
ENDCHAR
STARTCHAR 212f
ENCODING 8495
SWIDTH 960 0
DWIDTH 10 0
BBX 10 10 0 -2
BITMAP
3300
3300
0000
0000
0000
0000
0000
0000
0000
0000
ENDCHAR
STARTCHAR 2130
ENCODING 8496
SWIDTH 960 0
DWIDTH 10 0
BBX 10 10 0 -2
BITMAP
0C00
1200
0000
0000
0000
0000
0000
0000
0000
0000
ENDCHAR
STARTCHAR 2131
ENCODING 8497
SWIDTH 960 0
DWIDTH 10 0
BBX 10 10 0 -2
BITMAP
FFC0
0000
0000
0000
0000
0000
0000
0000
0000
0000
ENDCHAR
STARTCHAR 2132
ENCODING 8498
SWIDTH 960 0
DWIDTH 10 0
BBX 10 10 0 -2
BITMAP
0000
0000
0000
0000
0000
0000
0000
0000
0000
FFC0
ENDCHAR
STARTCHAR 2133
ENCODING 8499
SWIDTH 960 0
DWIDTH 10 0
BBX 10 10 0 -2
BITMAP
0000
0000
1000
0800
0400
0200
0200
0000
0000
0000
ENDCHAR
STARTCHAR 2134
ENCODING 8500
SWIDTH 960 0
DWIDTH 10 0
BBX 10 10 0 -2
BITMAP
0080
0240
1100
0800
0400
0200
0200
0000
0000
0000
ENDCHAR
STARTCHAR 2135
ENCODING 8501
SWIDTH 960 0
DWIDTH 10 0
BBX 10 10 0 -2
BITMAP
0000
0000
1000
1000
0800
0400
0200
0C00
0000
0000
ENDCHAR
STARTCHAR 2136
ENCODING 8502
SWIDTH 960 0
DWIDTH 10 0
BBX 10 10 0 -2
BITMAP
0080
0240
1100
1000
0800
0400
0200
0C00
0000
0000
ENDCHAR
STARTCHAR 2137
ENCODING 8503
SWIDTH 960 0
DWIDTH 10 0
BBX 10 10 0 -2
BITMAP
0000
0000
0900
0900
0900
1200
1200
0000
0000
0000
ENDCHAR
STARTCHAR 2138
ENCODING 8504
SWIDTH 960 0
DWIDTH 10 0
BBX 10 10 0 -2
BITMAP
0400
0A00
1100
2080
5F40
0400
0400
0400
3F80
0000
ENDCHAR
STARTCHAR 2139
ENCODING 8505
SWIDTH 960 0
DWIDTH 10 0
BBX 10 10 0 -2
BITMAP
0000
0000
0800
0F00
1100
2200
0C00
0200
0000
0000
ENDCHAR
STARTCHAR 213a
ENCODING 8506
SWIDTH 960 0
DWIDTH 10 0
BBX 10 10 0 -2
BITMAP
0000
0080
0100
3A00
4400
4A00
5100
6000
4000
0000
ENDCHAR
STARTCHAR 213b
ENCODING 8507
SWIDTH 960 0
DWIDTH 10 0
BBX 10 10 0 -2
BITMAP
0000
0E00
3180
4040
4040
4040
3180
0E00
0000
0000
ENDCHAR
STARTCHAR 213c
ENCODING 8508
SWIDTH 960 0
DWIDTH 10 0
BBX 10 10 0 -2
BITMAP
0000
0000
0000
4000
3F80
0000
0000
0000
0000
0000
ENDCHAR
STARTCHAR 213d
ENCODING 8509
SWIDTH 960 0
DWIDTH 10 0
BBX 10 10 0 -2
BITMAP
0000
0000
0000
0000
FFC0
0000
0000
0000
0000
0000
ENDCHAR
STARTCHAR 213e
ENCODING 8510
SWIDTH 960 0
DWIDTH 10 0
BBX 10 10 0 -2
BITMAP
0000
0000
0000
0000
0E00
0000
0000
0000
0000
0000
ENDCHAR
STARTCHAR 213f
ENCODING 8511
SWIDTH 960 0
DWIDTH 10 0
BBX 10 10 0 -2
BITMAP
0040
0080
0100
0200
0400
0800
1000
2000
4000
0000
ENDCHAR
STARTCHAR 2140
ENCODING 8512
SWIDTH 960 0
DWIDTH 10 0
BBX 10 10 0 -2
BITMAP
4000
2000
1000
0800
0400
0200
0100
0080
0040
0000
ENDCHAR
STARTCHAR 2141
ENCODING 8513
SWIDTH 960 0
DWIDTH 10 0
BBX 10 10 0 -2
BITMAP
0000
0000
0000
3800
4440
0380
0000
0000
0000
0000
ENDCHAR
STARTCHAR 2142
ENCODING 8514
SWIDTH 960 0
DWIDTH 10 0
BBX 10 10 0 -2
BITMAP
1200
1200
1200
1200
1200
1200
1200
1200
1200
1200
ENDCHAR
STARTCHAR 2143
ENCODING 8515
SWIDTH 960 0
DWIDTH 10 0
BBX 10 10 0 -2
BITMAP
0400
0400
0400
0400
0400
0400
0400
0400
0400
0400
ENDCHAR
STARTCHAR 2144
ENCODING 8516
SWIDTH 960 0
DWIDTH 10 0
BBX 10 10 0 -2
BITMAP
0000
0000
0000
0000
6D80
6D80
0000
0000
0000
0000
ENDCHAR
STARTCHAR 2145
ENCODING 8517
SWIDTH 960 0
DWIDTH 10 0
BBX 10 10 0 -2
BITMAP
0000
0000
0000
0000
3180
3180
0000
0000
0000
0000
ENDCHAR
STARTCHAR 2146
ENCODING 8518
SWIDTH 960 0
DWIDTH 10 0
BBX 10 10 0 -2
BITMAP
0080
0100
0180
0180
0000
0000
0000
0000
0000
0000
ENDCHAR
STARTCHAR 2147
ENCODING 8519
SWIDTH 960 0
DWIDTH 10 0
BBX 10 10 0 -2
BITMAP
6000
6000
2000
4000
0000
0000
0000
0000
0000
0000
ENDCHAR
STARTCHAR 2148
ENCODING 8520
SWIDTH 960 0
DWIDTH 10 0
BBX 10 10 0 -2
BITMAP
0240
0480
06C0
06C0
0000
0000
0000
0000
0000
0000
ENDCHAR
STARTCHAR 2149
ENCODING 8521
SWIDTH 960 0
DWIDTH 10 0
BBX 10 10 0 -2
BITMAP
6C00
6C00
2400
4800
0000
0000
0000
0000
0000
0000
ENDCHAR
STARTCHAR 214a
ENCODING 8522
SWIDTH 960 0
DWIDTH 10 0
BBX 10 10 0 -2
BITMAP
0080
0100
0200
0200
0200
0200
0200
0100
0080
0000
ENDCHAR
STARTCHAR 214b
ENCODING 8523
SWIDTH 960 0
DWIDTH 10 0
BBX 10 10 0 -2
BITMAP
2000
1000
0800
0800
0800
0800
0800
1000
2000
0000
ENDCHAR
STARTCHAR 214c
ENCODING 8524
SWIDTH 960 0
DWIDTH 10 0
BBX 10 10 0 -2
BITMAP
0180
0600
0400
0400
0400
0400
0400
0600
0180
0000
ENDCHAR
STARTCHAR 214d
ENCODING 8525
SWIDTH 960 0
DWIDTH 10 0
BBX 10 10 0 -2
BITMAP
3000
0C00
0400
0400
0400
0400
0400
0C00
3000
0000
ENDCHAR
STARTCHAR 214e
ENCODING 8526
SWIDTH 960 0
DWIDTH 10 0
BBX 10 10 0 -2
BITMAP
0380
0200
0200
0200
0200
0200
0200
0200
0380
0000
ENDCHAR
STARTCHAR 214f
ENCODING 8527
SWIDTH 960 0
DWIDTH 10 0
BBX 10 10 0 -2
BITMAP
3800
0800
0800
0800
0800
0800
0800
0800
3800
0000
ENDCHAR
STARTCHAR 2150
ENCODING 8528
SWIDTH 960 0
DWIDTH 10 0
BBX 10 10 0 -2
BITMAP
0180
0200
0200
0200
0400
0200
0200
0200
0180
0000
ENDCHAR
STARTCHAR 2151
ENCODING 8529
SWIDTH 960 0
DWIDTH 10 0
BBX 10 10 0 -2
BITMAP
3000
0800
0800
0800
0400
0800
0800
0800
3000
0000
ENDCHAR
STARTCHAR 2152
ENCODING 8530
SWIDTH 960 0
DWIDTH 10 0
BBX 10 10 0 -2
BITMAP
0080
0080
0100
0100
0200
0100
0100
0080
0080
0000
ENDCHAR
STARTCHAR 2153
ENCODING 8531
SWIDTH 960 0
DWIDTH 10 0
BBX 10 10 0 -2
BITMAP
2000
2000
1000
1000
0800
1000
1000
2000
2000
0000
ENDCHAR
STARTCHAR 2154
ENCODING 8532
SWIDTH 960 0
DWIDTH 10 0
BBX 10 10 0 -2
BITMAP
0140
0140
0280
0280
0500
0280
0280
0140
0140
0000
ENDCHAR
STARTCHAR 2155
ENCODING 8533
SWIDTH 960 0
DWIDTH 10 0
BBX 10 10 0 -2
BITMAP
2800
2800
1400
1400
0A00
1400
1400
2800
2800
0000
ENDCHAR
STARTCHAR 2156
ENCODING 8534
SWIDTH 960 0
DWIDTH 10 0
BBX 10 10 0 -2
BITMAP
03C0
0200
0200
0200
0200
0200
0200
0000
0000
0000
ENDCHAR
STARTCHAR 2157
ENCODING 8535
SWIDTH 960 0
DWIDTH 10 0
BBX 10 10 0 -2
BITMAP
0000
0000
0800
0800
0800
0800
0800
0800
7800
0000
ENDCHAR
STARTCHAR 2158
ENCODING 8536
SWIDTH 960 0
DWIDTH 10 0
BBX 10 10 0 -2
BITMAP
07C0
0440
05C0
0500
0500
0500
0500
0700
0000
0000
ENDCHAR
STARTCHAR 2159
ENCODING 8537
SWIDTH 960 0
DWIDTH 10 0
BBX 10 10 0 -2
BITMAP
0000
1C00
1400
1400
1400
1400
7400
4400
7C00
0000
ENDCHAR
STARTCHAR 215a
ENCODING 8538
SWIDTH 960 0
DWIDTH 10 0
BBX 10 10 0 -2
BITMAP
03C0
0380
0300
0200
0200
0200
0300
0380
03C0
0000
ENDCHAR
STARTCHAR 215b
ENCODING 8539
SWIDTH 960 0
DWIDTH 10 0
BBX 10 10 0 -2
BITMAP
7800
3800
1800
0800
0800
0800
1800
3800
7800
0000
ENDCHAR
STARTCHAR 215c
ENCODING 8540
SWIDTH 960 0
DWIDTH 10 0
BBX 10 10 0 -2
BITMAP
0000
0400
0400
0400
3F80
0400
0400
0400
0000
0000
ENDCHAR
STARTCHAR 215d
ENCODING 8541
SWIDTH 960 0
DWIDTH 10 0
BBX 10 10 0 -2
BITMAP
0000
0000
0000
0000
3F80
0000
0000
0000
0000
0000
ENDCHAR
STARTCHAR 215e
ENCODING 8542
SWIDTH 960 0
DWIDTH 10 0
BBX 10 10 0 -2
BITMAP
0000
0400
0400
0400
3F80
0400
0400
0400
3F80
0000
ENDCHAR
STARTCHAR 215f
ENCODING 8543
SWIDTH 960 0
DWIDTH 10 0
BBX 10 10 0 -2
BITMAP
0000
2080
1100
0A00
0400
0A00
1100
2080
0000
0000
ENDCHAR
STARTCHAR 2160
ENCODING 8544
SWIDTH 960 0
DWIDTH 10 0
BBX 10 10 0 -2
BITMAP
0000
0C00
0C00
0000
7F80
0000
0C00
0C00
0000
0000
ENDCHAR
STARTCHAR 2161
ENCODING 8545
SWIDTH 960 0
DWIDTH 10 0
BBX 10 10 0 -2
BITMAP
0000
0000
0000
3F80
0000
3F80
0000
0000
0000
0000
ENDCHAR
STARTCHAR 2162
ENCODING 8546
SWIDTH 960 0
DWIDTH 10 0
BBX 10 10 0 -2
BITMAP
0000
0100
0200
3F80
0400
3F80
0800
1000
0000
0000
ENDCHAR
STARTCHAR 2163
ENCODING 8547
SWIDTH 960 0
DWIDTH 10 0
BBX 10 10 0 -2
BITMAP
0000
0180
0600
1800
6000
1800
0600
0180
0000
0000
ENDCHAR
STARTCHAR 2164
ENCODING 8548
SWIDTH 960 0
DWIDTH 10 0
BBX 10 10 0 -2
BITMAP
0000
6000
1800
0600
0180
0600
1800
6000
0000
0000
ENDCHAR
STARTCHAR 2165
ENCODING 8549
SWIDTH 960 0
DWIDTH 10 0
BBX 10 10 0 -2
BITMAP
0380
1C00
6000
1C00
0380
0000
7F80
0000
7F80
0000
ENDCHAR
STARTCHAR 2166
ENCODING 8550
SWIDTH 960 0
DWIDTH 10 0
BBX 10 10 0 -2
BITMAP
7000
0E00
0180
0E00
7000
0000
7F80
0000
7F80
0000
ENDCHAR
STARTCHAR 2167
ENCODING 8551
SWIDTH 960 0
DWIDTH 10 0
BBX 10 10 0 -2
BITMAP
0000
0000
3180
4A40
4440
4A40
3180
0000
0000
0000
ENDCHAR
STARTCHAR 2168
ENCODING 8552
SWIDTH 960 0
DWIDTH 10 0
BBX 10 10 0 -2
BITMAP
0000
0000
0C00
0C00
0000
0000
3300
3300
0000
0000
ENDCHAR
STARTCHAR 2169
ENCODING 8553
SWIDTH 960 0
DWIDTH 10 0
BBX 10 10 0 -2
BITMAP
0000
0780
0180
0280
3C80
4400
4400
4400
3800
0000
ENDCHAR
STARTCHAR 216a
ENCODING 8554
SWIDTH 960 0
DWIDTH 10 0
BBX 10 10 0 -2
BITMAP
0E00
1100
1100
1100
0E00
0400
3F80
0400
0400
0000
ENDCHAR
STARTCHAR 216b
ENCODING 8555
SWIDTH 960 0
DWIDTH 10 0
BBX 10 10 0 -2
BITMAP
7000
5000
7000
0000
0000
0000
0000
0000
0000
0000
ENDCHAR
STARTCHAR 216c
ENCODING 8556
SWIDTH 960 0
DWIDTH 10 0
BBX 10 10 0 -2
BITMAP
2000
2000
4000
0000
0000
0000
0000
0000
0000
0000
ENDCHAR
STARTCHAR 216d
ENCODING 8557
SWIDTH 960 0
DWIDTH 10 0
BBX 10 10 0 -2
BITMAP
2800
2800
5000
0000
0000
0000
0000
0000
0000
0000
ENDCHAR
STARTCHAR 216e
ENCODING 8558
SWIDTH 960 0
DWIDTH 10 0
BBX 10 10 0 -2
BITMAP
7000
5000
7680
0980
1000
1000
1000
0880
0700
0000
ENDCHAR
STARTCHAR 216f
ENCODING 8559
SWIDTH 960 0
DWIDTH 10 0
BBX 10 10 0 -2
BITMAP
0000
3B80
1100
0A00
3F80
0400
3F80
0400
0E00
0000
ENDCHAR
STARTCHAR 2170
ENCODING 8560
SWIDTH 960 0
DWIDTH 10 0
BBX 10 10 0 -2
BITMAP
0400
1E80
2580
2400
1F00
0480
3480
2F00
0400
0000
ENDCHAR
STARTCHAR 2171
ENCODING 8561
SWIDTH 960 0
DWIDTH 10 0
BBX 10 10 0 -2
BITMAP
0200
0200
1E00
2500
2400
2900
1E00
1000
1000
0000
ENDCHAR
STARTCHAR 2172
ENCODING 8562
SWIDTH 960 0
DWIDTH 10 0
BBX 10 10 0 -2
BITMAP
0000
0E00
1100
0800
3E00
0800
3000
4880
3700
0000
ENDCHAR
STARTCHAR 2173
ENCODING 8563
SWIDTH 960 0
DWIDTH 10 0
BBX 10 10 0 -2
BITMAP
0000
2080
5100
5200
2400
0900
1280
2280
4100
0000
ENDCHAR
STARTCHAR 2174
ENCODING 8564
SWIDTH 960 0
DWIDTH 10 0
BBX 10 10 0 -2
BITMAP
0880
0880
3FC0
1100
1100
1100
7F80
2200
2200
0000
ENDCHAR
STARTCHAR 2175
ENCODING 8565
SWIDTH 960 0
DWIDTH 10 0
BBX 10 10 0 -2
BITMAP
0000
0C00
1200
1400
0880
1500
2200
2500
1880
0000
ENDCHAR
STARTCHAR 2176
ENCODING 8566
SWIDTH 960 0
DWIDTH 10 0
BBX 10 10 0 -2
BITMAP
0000
0400
2480
1500
0E00
1500
2480
0400
0000
0000
ENDCHAR
STARTCHAR 2177
ENCODING 8567
SWIDTH 960 0
DWIDTH 10 0
BBX 10 10 0 -2
BITMAP
0000
1E00
2100
4C80
5280
5480
4B00
2000
1E00
0000
ENDCHAR
STARTCHAR 2178
ENCODING 8568
SWIDTH 960 0
DWIDTH 10 0
BBX 10 10 0 -2
BITMAP
0C00
1200
0800
1400
1200
0A00
0400
1200
0C00
0000
ENDCHAR
STARTCHAR 2179
ENCODING 8569
SWIDTH 960 0
DWIDTH 10 0
BBX 10 10 0 -2
BITMAP
0400
0400
0A00
7BC0
2080
1100
1500
3B80
2080
0000
ENDCHAR
STARTCHAR 217a
ENCODING 8570
SWIDTH 960 0
DWIDTH 10 0
BBX 10 10 0 -2
BITMAP
0400
0400
0E00
7FC0
3F80
1F00
1F00
3B80
2080
0000
ENDCHAR
STARTCHAR 217b
ENCODING 8571
SWIDTH 960 0
DWIDTH 10 0
BBX 10 10 0 -2
BITMAP
1F00
2080
4040
4040
4040
4040
4040
2080
1F00
0000
ENDCHAR
STARTCHAR 217c
ENCODING 8572
SWIDTH 960 0
DWIDTH 10 0
BBX 10 10 0 -2
BITMAP
1F00
3F80
7FC0
7FC0
7FC0
7FC0
7FC0
3F80
1F00
0000
ENDCHAR
STARTCHAR 217d
ENCODING 8573
SWIDTH 960 0
DWIDTH 10 0
BBX 10 10 0 -2
BITMAP
1F00
2080
4E40
5140
5140
5140
4E40
2080
1F00
0000
ENDCHAR
STARTCHAR 217e
ENCODING 8574
SWIDTH 960 0
DWIDTH 10 0
BBX 10 10 0 -2
BITMAP
0400
0A00
1100
2080
4040
2080
1100
0A00
0400
0000
ENDCHAR
STARTCHAR 2221
ENCODING 8737
SWIDTH 960 0
DWIDTH 10 0
BBX 10 10 0 -2
BITMAP
0400
0E00
1F00
3F80
7FC0
3F80
1F00
0E00
0400
0000
ENDCHAR
STARTCHAR 2222
ENCODING 8738
SWIDTH 960 0
DWIDTH 10 0
BBX 10 10 0 -2
BITMAP
0000
7F80
4080
4080
4080
4080
4080
4080
7F80
0000
ENDCHAR
STARTCHAR 2223
ENCODING 8739
SWIDTH 960 0
DWIDTH 10 0
BBX 10 10 0 -2
BITMAP
0000
7F80
7F80
7F80
7F80
7F80
7F80
7F80
7F80
0000
ENDCHAR
STARTCHAR 2224
ENCODING 8740
SWIDTH 960 0
DWIDTH 10 0
BBX 10 10 0 -2
BITMAP
0400
0400
0A00
0A00
1100
1100
2080
2080
7FC0
0000
ENDCHAR
STARTCHAR 2225
ENCODING 8741
SWIDTH 960 0
DWIDTH 10 0
BBX 10 10 0 -2
BITMAP
0400
0400
0E00
0E00
1F00
1F00
3F80
3F80
7FC0
0000
ENDCHAR
STARTCHAR 2226
ENCODING 8742
SWIDTH 960 0
DWIDTH 10 0
BBX 10 10 0 -2
BITMAP
7FC0
2080
2080
1100
1100
0A00
0A00
0400
0400
0000
ENDCHAR
STARTCHAR 2227
ENCODING 8743
SWIDTH 960 0
DWIDTH 10 0
BBX 10 10 0 -2
BITMAP
7FC0
3F80
3F80
1F00
1F00
0E00
0E00
0400
0400
0000
ENDCHAR
STARTCHAR 2228
ENCODING 8744
SWIDTH 960 0
DWIDTH 10 0
BBX 10 10 0 -2
BITMAP
4440
2080
1100
0A00
4440
0A00
1100
2080
4440
0000
ENDCHAR
STARTCHAR 2229
ENCODING 8745
SWIDTH 960 0
DWIDTH 10 0
BBX 10 10 0 -2
BITMAP
0000
3F80
0000
3F80
0400
0400
0400
0400
0000
0000
ENDCHAR
STARTCHAR 222a
ENCODING 8746
SWIDTH 960 0
DWIDTH 10 0
BBX 10 10 0 -2
BITMAP
0000
0000
0100
0080
7FC0
0080
0100
0000
0000
0000
ENDCHAR
STARTCHAR 222b
ENCODING 8747
SWIDTH 960 0
DWIDTH 10 0
BBX 10 10 0 -2
BITMAP
0000
0000
1000
2000
7FC0
2000
1000
0000
0000
0000
ENDCHAR
STARTCHAR 222c
ENCODING 8748
SWIDTH 960 0
DWIDTH 10 0
BBX 10 10 0 -2
BITMAP
0400
0E00
1500
0400
0400
0400
0400
0400
0400
0000
ENDCHAR
STARTCHAR 222d
ENCODING 8749
SWIDTH 960 0
DWIDTH 10 0
BBX 10 10 0 -2
BITMAP
0400
0400
0400
0400
0400
0400
1500
0E00
0400
0000
ENDCHAR
STARTCHAR 222e
ENCODING 8750
SWIDTH 960 0
DWIDTH 10 0
BBX 10 10 0 -2
BITMAP
0000
0000
7F80
7F80
0000
0000
7F80
7F80
0000
0000
ENDCHAR
STARTCHAR 223a
ENCODING 8762
SWIDTH 960 0
DWIDTH 10 0
BBX 10 10 0 -2
BITMAP
0000
1F00
2000
4000
7F00
4000
2000
1F00
0000
0000
ENDCHAR
STARTCHAR 223b
ENCODING 8763
SWIDTH 960 0
DWIDTH 10 0
BBX 10 10 0 -2
BITMAP
0000
3E00
0100
0080
3F80
0080
0100
3E00
0000
0000
ENDCHAR
STARTCHAR 223c
ENCODING 8764
SWIDTH 960 0
DWIDTH 10 0
BBX 10 10 0 -2
BITMAP
0000
1F80
2000
4000
4000
2000
1F80
0000
7F80
0000
ENDCHAR
STARTCHAR 223d
ENCODING 8765
SWIDTH 960 0
DWIDTH 10 0
BBX 10 10 0 -2
BITMAP
0000
7E00
0100
0080
0080
0100
7E00
0000
7F80
0000
ENDCHAR
STARTCHAR 223e
ENCODING 8766
SWIDTH 960 0
DWIDTH 10 0
BBX 10 10 0 -2
BITMAP
0000
1F80
2000
4000
4000
4000
2000
1F80
0000
0000
ENDCHAR
STARTCHAR 223f
ENCODING 8767
SWIDTH 960 0
DWIDTH 10 0
BBX 10 10 0 -2
BITMAP
0000
7E00
0100
0080
0080
0080
0100
7E00
0000
0000
ENDCHAR
STARTCHAR 2240
ENCODING 8768
SWIDTH 960 0
DWIDTH 10 0
BBX 10 10 0 -2
BITMAP
0000
2080
2080
2080
2080
2080
2080
1F00
0000
0000
ENDCHAR
STARTCHAR 2241
ENCODING 8769
SWIDTH 960 0
DWIDTH 10 0
BBX 10 10 0 -2
BITMAP
0000
1F00
2080
2080
2080
2080
2080
2080
0000
0000
ENDCHAR
STARTCHAR 224a
ENCODING 8778
SWIDTH 960 0
DWIDTH 10 0
BBX 10 10 0 -2
BITMAP
0000
0400
0400
0A00
0A00
1100
1100
2080
2080
0000
ENDCHAR
STARTCHAR 224b
ENCODING 8779
SWIDTH 960 0
DWIDTH 10 0
BBX 10 10 0 -2
BITMAP
0000
2080
2080
1100
1100
0A00
0A00
0400
0400
0000
ENDCHAR
STARTCHAR 224c
ENCODING 8780
SWIDTH 960 0
DWIDTH 10 0
BBX 10 10 0 -2
BITMAP
0000
0000
0000
3F80
0080
0080
0080
0000
0000
0000
ENDCHAR
STARTCHAR 224d
ENCODING 8781
SWIDTH 960 0
DWIDTH 10 0
BBX 10 10 0 -2
BITMAP
0000
0200
0100
7F80
0040
7F80
0100
0200
0000
0000
ENDCHAR
STARTCHAR 224e
ENCODING 8782
SWIDTH 960 0
DWIDTH 10 0
BBX 10 10 0 -2
BITMAP
0000
0A00
1100
3F80
4040
3F80
1100
0A00
0000
0000
ENDCHAR
STARTCHAR 224f
ENCODING 8783
SWIDTH 960 0
DWIDTH 10 0
BBX 10 10 0 -2
BITMAP
0000
2080
2080
1F00
1100
0A00
0A00
0400
0000
0000
ENDCHAR
STARTCHAR 2250
ENCODING 8784
SWIDTH 960 0
DWIDTH 10 0
BBX 10 10 0 -2
BITMAP
0000
1F00
0100
0100
1F00
0100
0100
1F00
0000
0000
ENDCHAR
STARTCHAR 225c
ENCODING 8796
SWIDTH 960 0
DWIDTH 10 0
BBX 10 10 0 -2
BITMAP
0000
0100
0200
0400
0800
1000
2000
7F00
0000
0000
ENDCHAR
STARTCHAR 225d
ENCODING 8797
SWIDTH 960 0
DWIDTH 10 0
BBX 10 10 0 -2
BITMAP
0000
0400
0400
0400
0400
0400
0400
3F80
0000
0000
ENDCHAR
STARTCHAR 225e
ENCODING 8798
SWIDTH 960 0
DWIDTH 10 0
BBX 10 10 0 -2
BITMAP
1F00
60C0
0000
0000
0000
0000
0000
0000
0000
0000
ENDCHAR
STARTCHAR 225f
ENCODING 8799
SWIDTH 960 0
DWIDTH 10 0
BBX 10 10 0 -2
BITMAP
0600
0900
0100
0700
0900
1100
1200
1200
0C00
0000
ENDCHAR
STARTCHAR 2260
ENCODING 8800
SWIDTH 960 0
DWIDTH 10 0
BBX 10 10 0 -2
BITMAP
7FC0
2080
3080
1100
1900
0A00
0E00
0400
0400
0000
ENDCHAR
STARTCHAR 2261
ENCODING 8801
SWIDTH 960 0
DWIDTH 10 0
BBX 10 10 0 -2
BITMAP
0000
0000
3F80
0000
3F80
0000
3F80
0000
0000
0000
ENDCHAR
STARTCHAR 2262
ENCODING 8802
SWIDTH 960 0
DWIDTH 10 0
BBX 10 10 0 -2
BITMAP
0000
1000
0000
3F80
0000
3F80
0000
0100
0000
0000
ENDCHAR
STARTCHAR 2263
ENCODING 8803
SWIDTH 960 0
DWIDTH 10 0
BBX 10 10 0 -2
BITMAP
0480
0900
1200
2400
4800
2400
1200
0900
0480
0000
ENDCHAR
STARTCHAR 2264
ENCODING 8804
SWIDTH 960 0
DWIDTH 10 0
BBX 10 10 0 -2
BITMAP
4800
2400
1200
0900
0480
0900
1200
2400
4800
0000
ENDCHAR
STARTCHAR 2265
ENCODING 8805
SWIDTH 960 0
DWIDTH 10 0
BBX 10 10 0 -2
BITMAP
07C0
0400
0400
0800
6800
2800
3000
1000
1000
0000
ENDCHAR
STARTCHAR 2266
ENCODING 8806
SWIDTH 960 0
DWIDTH 10 0
BBX 10 10 0 -2
BITMAP
0000
0000
3180
4240
4440
4840
3180
0000
0000
0000
ENDCHAR
STARTCHAR 2267
ENCODING 8807
SWIDTH 960 0
DWIDTH 10 0
BBX 10 10 0 -2
BITMAP
0000
0000
3180
4A40
4400
4A40
3180
0000
0000
0000
ENDCHAR
STARTCHAR 2268
ENCODING 8808
SWIDTH 960 0
DWIDTH 10 0
BBX 10 10 0 -2
BITMAP
0000
0000
3300
3300
0000
0000
0C00
0C00
0000
0000
ENDCHAR
STARTCHAR 2269
ENCODING 8809
SWIDTH 960 0
DWIDTH 10 0
BBX 10 10 0 -2
BITMAP
0400
0A00
0800
0400
0400
0400
0200
0A00
0400
0000
ENDCHAR
STARTCHAR 226a
ENCODING 8810
SWIDTH 960 0
DWIDTH 10 0
BBX 10 10 0 -2
BITMAP
1100
2A80
2200
1100
1100
1100
0880
2A80
1100
0000
ENDCHAR
STARTCHAR 2272
ENCODING 8818
SWIDTH 960 0
DWIDTH 10 0
BBX 10 10 0 -2
BITMAP
0C00
1200
0C00
0000
0C00
1200
1E00
2100
2100
0000
ENDCHAR
STARTCHAR 2273
ENCODING 8819
SWIDTH 960 0
DWIDTH 10 0
BBX 10 10 0 -2
BITMAP
0000
2200
5400
5400
2800
1480
2B40
2B40
4480
0000
ENDCHAR
STARTCHAR 2274
ENCODING 8820
SWIDTH 960 0
DWIDTH 10 0
BBX 10 10 0 -2
BITMAP
0200
1200
1300
1E00
3200
1300
1E00
3200
1200
1000
ENDCHAR
STARTCHAR 2275
ENCODING 8821
SWIDTH 960 0
DWIDTH 10 0
BBX 10 10 0 -2
BITMAP
0800
0800
0800
0800
0E00
0900
0900
0A00
0C00
0000
ENDCHAR
STARTCHAR 2276
ENCODING 8822
SWIDTH 960 0
DWIDTH 10 0
BBX 10 10 0 -2
BITMAP
0400
0600
0700
0580
0480
0480
1D00
3C00
1800
0000
ENDCHAR
STARTCHAR 2277
ENCODING 8823
SWIDTH 960 0
DWIDTH 10 0
BBX 10 10 0 -2
BITMAP
0400
0400
1B00
0400
0400
0400
0400
0400
0400
0000
ENDCHAR
STARTCHAR 2278
ENCODING 8824
SWIDTH 960 0
DWIDTH 10 0
BBX 10 10 0 -2
BITMAP
0400
0400
1B00
0400
0400
0400
1B00
0400
0400
0000
ENDCHAR
STARTCHAR 2279
ENCODING 8825
SWIDTH 960 0
DWIDTH 10 0
BBX 10 10 0 -2
BITMAP
1E00
3A00
3A00
1A00
0A00
0A00
0A00
0A00
0A00
0000
ENDCHAR
STARTCHAR 227e
ENCODING 8830
SWIDTH 960 0
DWIDTH 10 0
BBX 10 10 0 -2
BITMAP
1E00
2100
4080
8040
8040
8040
8040
4080
2100
1E00
ENDCHAR
STARTCHAR 2330
ENCODING 9008
SWIDTH 960 0
DWIDTH 10 0
BBX 10 10 0 -2
BITMAP
0000
1E00
2100
2100
2100
2100
2100
1E00
0000
0000
ENDCHAR
STARTCHAR 2331
ENCODING 9009
SWIDTH 960 0
DWIDTH 10 0
BBX 10 10 0 -2
BITMAP
0000
0400
0C00
1400
0400
0400
0400
1F00
0000
0000
ENDCHAR
STARTCHAR 2332
ENCODING 9010
SWIDTH 960 0
DWIDTH 10 0
BBX 10 10 0 -2
BITMAP
0000
1E00
2100
0100
0600
1800
2000
3F00
0000
0000
ENDCHAR
STARTCHAR 2333
ENCODING 9011
SWIDTH 960 0
DWIDTH 10 0
BBX 10 10 0 -2
BITMAP
0000
1E00
2100
0100
0E00
0100
2100
1E00
0000
0000
ENDCHAR
STARTCHAR 2334
ENCODING 9012
SWIDTH 960 0
DWIDTH 10 0
BBX 10 10 0 -2
BITMAP
0000
0200
0600
0A00
1200
3F00
0200
0700
0000
0000
ENDCHAR
STARTCHAR 2335
ENCODING 9013
SWIDTH 960 0
DWIDTH 10 0
BBX 10 10 0 -2
BITMAP
0000
3F00
2000
3E00
0100
0100
2100
1E00
0000
0000
ENDCHAR
STARTCHAR 2336
ENCODING 9014
SWIDTH 960 0
DWIDTH 10 0
BBX 10 10 0 -2
BITMAP
0000
0E00
1000
2000
3E00
2100
2100
1E00
0000
0000
ENDCHAR
STARTCHAR 2337
ENCODING 9015
SWIDTH 960 0
DWIDTH 10 0
BBX 10 10 0 -2
BITMAP
0000
3F00
2100
0200
0400
0800
0800
0800
0000
0000
ENDCHAR
STARTCHAR 2338
ENCODING 9016
SWIDTH 960 0
DWIDTH 10 0
BBX 10 10 0 -2
BITMAP
0000
1E00
2100
2100
1E00
2100
2100
1E00
0000
0000
ENDCHAR
STARTCHAR 2339
ENCODING 9017
SWIDTH 960 0
DWIDTH 10 0
BBX 10 10 0 -2
BITMAP
0000
1E00
2100
2100
1F00
0100
0200
1C00
0000
0000
ENDCHAR
STARTCHAR 2341
ENCODING 9025
SWIDTH 960 0
DWIDTH 10 0
BBX 10 10 0 -2
BITMAP
0000
0400
0400
0A00
0A00
1F00
1100
3B80
0000
0000
ENDCHAR
STARTCHAR 2342
ENCODING 9026
SWIDTH 960 0
DWIDTH 10 0
BBX 10 10 0 -2
BITMAP
0000
3E00
1100
1100
1E00
1100
1100
3E00
0000
0000
ENDCHAR
STARTCHAR 2343
ENCODING 9027
SWIDTH 960 0
DWIDTH 10 0
BBX 10 10 0 -2
BITMAP
0000
0D00
1300
2000
2000
2000
1100
0E00
0000
0000
ENDCHAR
STARTCHAR 2344
ENCODING 9028
SWIDTH 960 0
DWIDTH 10 0
BBX 10 10 0 -2
BITMAP
0000
3C00
1200
1100
1100
1100
1200
3C00
0000
0000
ENDCHAR
STARTCHAR 2345
ENCODING 9029
SWIDTH 960 0
DWIDTH 10 0
BBX 10 10 0 -2
BITMAP
0000
3F00
1100
1400
1C00
1400
1100
3F00
0000
0000
ENDCHAR
STARTCHAR 2346
ENCODING 9030
SWIDTH 960 0
DWIDTH 10 0
BBX 10 10 0 -2
BITMAP
0000
3F00
1100
1400
1C00
1400
1000
3800
0000
0000
ENDCHAR
STARTCHAR 2347
ENCODING 9031
SWIDTH 960 0
DWIDTH 10 0
BBX 10 10 0 -2
BITMAP
0000
0D00
1300
2000
2700
2100
1300
0D00
0000
0000
ENDCHAR
STARTCHAR 2348
ENCODING 9032
SWIDTH 960 0
DWIDTH 10 0
BBX 10 10 0 -2
BITMAP
0000
3B80
1100
1100
1F00
1100
1100
3B80
0000
0000
ENDCHAR
STARTCHAR 2349
ENCODING 9033
SWIDTH 960 0
DWIDTH 10 0
BBX 10 10 0 -2
BITMAP
0000
0E00
0400
0400
0400
0400
0400
0E00
0000
0000
ENDCHAR
STARTCHAR 234a
ENCODING 9034
SWIDTH 960 0
DWIDTH 10 0
BBX 10 10 0 -2
BITMAP
0000
0700
0200
0200
0200
2200
2200
1C00
0000
0000
ENDCHAR
STARTCHAR 234b
ENCODING 9035
SWIDTH 960 0
DWIDTH 10 0
BBX 10 10 0 -2
BITMAP
0000
3B80
1200
1400
1C00
1200
1100
3B80
0000
0000
ENDCHAR
STARTCHAR 234c
ENCODING 9036
SWIDTH 960 0
DWIDTH 10 0
BBX 10 10 0 -2
BITMAP
0000
3800
1000
1000
1000
1000
1100
3F00
0000
0000
ENDCHAR
STARTCHAR 234d
ENCODING 9037
SWIDTH 960 0
DWIDTH 10 0
BBX 10 10 0 -2
BITMAP
0000
71C0
3180
2A80
2A80
2A80
2480
75C0
0000
0000
ENDCHAR
STARTCHAR 234e
ENCODING 9038
SWIDTH 960 0
DWIDTH 10 0
BBX 10 10 0 -2
BITMAP
0000
3B80
1900
1500
1500
1300
1300
3900
0000
0000
ENDCHAR
STARTCHAR 234f
ENCODING 9039
SWIDTH 960 0
DWIDTH 10 0
BBX 10 10 0 -2
BITMAP
0000
0E00
1100
2080
2080
2080
1100
0E00
0000
0000
ENDCHAR
STARTCHAR 2350
ENCODING 9040
SWIDTH 960 0
DWIDTH 10 0
BBX 10 10 0 -2
BITMAP
0000
3E00
1100
1100
1E00
1000
1000
3800
0000
0000
ENDCHAR
STARTCHAR 2351
ENCODING 9041
SWIDTH 960 0
DWIDTH 10 0
BBX 10 10 0 -2
BITMAP
0000
0E00
1100
2080
2080
2C80
1300
0E00
0180
0000
ENDCHAR
STARTCHAR 2352
ENCODING 9042
SWIDTH 960 0
DWIDTH 10 0
BBX 10 10 0 -2
BITMAP
0000
3E00
1100
1100
1E00
1200
1100
3980
0000
0000
ENDCHAR
STARTCHAR 2353
ENCODING 9043
SWIDTH 960 0
DWIDTH 10 0
BBX 10 10 0 -2
BITMAP
0000
1D00
2300
2000
1E00
0100
3100
2E00
0000
0000
ENDCHAR
STARTCHAR 2354
ENCODING 9044
SWIDTH 960 0
DWIDTH 10 0
BBX 10 10 0 -2
BITMAP
0000
3F80
2480
0400
0400
0400
0400
0E00
0000
0000
ENDCHAR
STARTCHAR 2355
ENCODING 9045
SWIDTH 960 0
DWIDTH 10 0
BBX 10 10 0 -2
BITMAP
0000
3B80
1100
1100
1100
1100
1100
0E00
0000
0000
ENDCHAR
STARTCHAR 2356
ENCODING 9046
SWIDTH 960 0
DWIDTH 10 0
BBX 10 10 0 -2
BITMAP
0000
3B80
1100
1100
0A00
0A00
0400
0400
0000
0000
ENDCHAR
STARTCHAR 2357
ENCODING 9047
SWIDTH 960 0
DWIDTH 10 0
BBX 10 10 0 -2
BITMAP
0000
71C0
2480
2480
2A80
2A80
1100
1100
0000
0000
ENDCHAR
STARTCHAR 2358
ENCODING 9048
SWIDTH 960 0
DWIDTH 10 0
BBX 10 10 0 -2
BITMAP
0000
3B80
1100
0A00
0400
0A00
1100
3B80
0000
0000
ENDCHAR
STARTCHAR 2359
ENCODING 9049
SWIDTH 960 0
DWIDTH 10 0
BBX 10 10 0 -2
BITMAP
0000
3B80
1100
0A00
0400
0400
0400
0E00
0000
0000
ENDCHAR
STARTCHAR 235a
ENCODING 9050
SWIDTH 960 0
DWIDTH 10 0
BBX 10 10 0 -2
BITMAP
0000
3F00
2200
0400
0800
0800
1100
3F00
0000
0000
ENDCHAR
STARTCHAR 2361
ENCODING 9057
SWIDTH 960 0
DWIDTH 10 0
BBX 10 10 0 -2
BITMAP
0000
0000
0000
0E00
0100
0F00
1100
0F00
0000
0000
ENDCHAR
STARTCHAR 2362
ENCODING 9058
SWIDTH 960 0
DWIDTH 10 0
BBX 10 10 0 -2
BITMAP
0000
3000
1000
1600
1900
1100
1900
1600
0000
0000
ENDCHAR
STARTCHAR 2363
ENCODING 9059
SWIDTH 960 0
DWIDTH 10 0
BBX 10 10 0 -2
BITMAP
0000
0000
0000
0E00
1100
1000
1100
0E00
0000
0000
ENDCHAR
STARTCHAR 2364
ENCODING 9060
SWIDTH 960 0
DWIDTH 10 0
BBX 10 10 0 -2
BITMAP
0000
0300
0100
0D00
1300
1100
1300
0D00
0000
0000
ENDCHAR
STARTCHAR 2365
ENCODING 9061
SWIDTH 960 0
DWIDTH 10 0
BBX 10 10 0 -2
BITMAP
0000
0000
0000
0E00
1100
1F00
1000
0E00
0000
0000
ENDCHAR
STARTCHAR 2366
ENCODING 9062
SWIDTH 960 0
DWIDTH 10 0
BBX 10 10 0 -2
BITMAP
0000
0600
0900
0800
1E00
0800
0800
1C00
0000
0000
ENDCHAR
STARTCHAR 2367
ENCODING 9063
SWIDTH 960 0
DWIDTH 10 0
BBX 10 10 0 -2
BITMAP
0000
0000
0000
0D00
1200
0C00
1000
0E00
1100
0E00
ENDCHAR
STARTCHAR 2368
ENCODING 9064
SWIDTH 960 0
DWIDTH 10 0
BBX 10 10 0 -2
BITMAP
0000
3000
1000
1600
1900
1100
1100
3B80
0000
0000
ENDCHAR
STARTCHAR 2369
ENCODING 9065
SWIDTH 960 0
DWIDTH 10 0
BBX 10 10 0 -2
BITMAP
0000
0400
0000
0C00
0400
0400
0400
0E00
0000
0000
ENDCHAR
STARTCHAR 236a
ENCODING 9066
SWIDTH 960 0
DWIDTH 10 0
BBX 10 10 0 -2
BITMAP
0000
0200
0000
0600
0200
0200
0200
0200
1200
0C00
ENDCHAR
STARTCHAR 236b
ENCODING 9067
SWIDTH 960 0
DWIDTH 10 0
BBX 10 10 0 -2
BITMAP
0000
3000
1000
1700
1200
1C00
1200
3B80
0000
0000
ENDCHAR
STARTCHAR 236c
ENCODING 9068
SWIDTH 960 0
DWIDTH 10 0
BBX 10 10 0 -2
BITMAP
0000
0C00
0400
0400
0400
0400
0400
0E00
0000
0000
ENDCHAR
STARTCHAR 236d
ENCODING 9069
SWIDTH 960 0
DWIDTH 10 0
BBX 10 10 0 -2
BITMAP
0000
0000
0000
6900
3680
2480
2480
76C0
0000
0000
ENDCHAR
STARTCHAR 236e
ENCODING 9070
SWIDTH 960 0
DWIDTH 10 0
BBX 10 10 0 -2
BITMAP
0000
0000
0000
3600
1900
1100
1100
3B80
0000
0000
ENDCHAR
STARTCHAR 236f
ENCODING 9071
SWIDTH 960 0
DWIDTH 10 0
BBX 10 10 0 -2
BITMAP
0000
0000
0000
0E00
1100
1100
1100
0E00
0000
0000
ENDCHAR
STARTCHAR 2370
ENCODING 9072
SWIDTH 960 0
DWIDTH 10 0
BBX 10 10 0 -2
BITMAP
0000
0000
0000
3600
1900
1100
1900
1600
1000
3800
ENDCHAR
STARTCHAR 2371
ENCODING 9073
SWIDTH 960 0
DWIDTH 10 0
BBX 10 10 0 -2
BITMAP
0000
0000
0000
0D80
1300
1100
1300
0D00
0100
0380
ENDCHAR
STARTCHAR 2372
ENCODING 9074
SWIDTH 960 0
DWIDTH 10 0
BBX 10 10 0 -2
BITMAP
0000
0000
0000
1B00
0C00
0800
0800
1C00
0000
0000
ENDCHAR
STARTCHAR 2373
ENCODING 9075
SWIDTH 960 0
DWIDTH 10 0
BBX 10 10 0 -2
BITMAP
0000
0000
0000
0F00
1000
0E00
0100
1E00
0000
0000
ENDCHAR
STARTCHAR 2374
ENCODING 9076
SWIDTH 960 0
DWIDTH 10 0
BBX 10 10 0 -2
BITMAP
0000
0800
0800
1E00
0800
0800
0900
0600
0000
0000
ENDCHAR
STARTCHAR 2375
ENCODING 9077
SWIDTH 960 0
DWIDTH 10 0
BBX 10 10 0 -2
BITMAP
0000
0000
0000
3300
1100
1100
1300
0D80
0000
0000
ENDCHAR
STARTCHAR 2376
ENCODING 9078
SWIDTH 960 0
DWIDTH 10 0
BBX 10 10 0 -2
BITMAP
0000
0000
0000
3B80
1100
0A00
0A00
0400
0000
0000
ENDCHAR
STARTCHAR 2377
ENCODING 9079
SWIDTH 960 0
DWIDTH 10 0
BBX 10 10 0 -2
BITMAP
0000
0000
0000
75C0
2480
2A80
1100
1100
0000
0000
ENDCHAR
STARTCHAR 2378
ENCODING 9080
SWIDTH 960 0
DWIDTH 10 0
BBX 10 10 0 -2
BITMAP
0000
0000
0000
3300
1200
0C00
1200
3300
0000
0000
ENDCHAR
STARTCHAR 2379
ENCODING 9081
SWIDTH 960 0
DWIDTH 10 0
BBX 10 10 0 -2
BITMAP
0000
0000
0000
3B80
1100
0A00
0A00
0400
2400
1800
ENDCHAR
STARTCHAR 237a
ENCODING 9082
SWIDTH 960 0
DWIDTH 10 0
BBX 10 10 0 -2
BITMAP
0000
0000
0000
1F00
1200
0400
0900
1F00
0000
0000
ENDCHAR
STARTCHAR 2421
ENCODING 9249
SWIDTH 960 0
DWIDTH 10 0
BBX 10 10 0 -2
BITMAP
0000
0000
1000
3E00
1000
3E00
5500
5900
3200
0000
ENDCHAR
STARTCHAR 2422
ENCODING 9250
SWIDTH 960 0
DWIDTH 10 0
BBX 10 10 0 -2
BITMAP
0800
7F00
1000
1F00
3280
5480
5480
4880
3300
0000
ENDCHAR
STARTCHAR 2423
ENCODING 9251
SWIDTH 960 0
DWIDTH 10 0
BBX 10 10 0 -2
BITMAP
0000
0000
0000
2100
2100
2080
2080
2480
1800
0000
ENDCHAR
STARTCHAR 2424
ENCODING 9252
SWIDTH 960 0
DWIDTH 10 0
BBX 10 10 0 -2
BITMAP
0000
4100
4100
4080
4080
4080
4880
5000
2000
0000
ENDCHAR
STARTCHAR 2425
ENCODING 9253
SWIDTH 960 0
DWIDTH 10 0
BBX 10 10 0 -2
BITMAP
0000
0000
1E00
0000
0E00
3100
0100
0200
0C00
0000
ENDCHAR
STARTCHAR 2426
ENCODING 9254
SWIDTH 960 0
DWIDTH 10 0
BBX 10 10 0 -2
BITMAP
1800
0600
0000
1F00
6080
0080
0080
0100
0E00
0000
ENDCHAR
STARTCHAR 2427
ENCODING 9255
SWIDTH 960 0
DWIDTH 10 0
BBX 10 10 0 -2
BITMAP
0000
0000
0E00
0000
1F00
0200
0600
0A00
1180
0000
ENDCHAR
STARTCHAR 2428
ENCODING 9256
SWIDTH 960 0
DWIDTH 10 0
BBX 10 10 0 -2
BITMAP
1E00
0000
3F00
0200
0400
0C00
1200
2200
4180
0000
ENDCHAR
STARTCHAR 2429
ENCODING 9257
SWIDTH 960 0
DWIDTH 10 0
BBX 10 10 0 -2
BITMAP
0000
0000
1000
7D00
1080
1E00
3100
5100
3600
0000
ENDCHAR
STARTCHAR 242a
ENCODING 9258
SWIDTH 960 0
DWIDTH 10 0
BBX 10 10 0 -2
BITMAP
1000
1080
7E80
1000
1F00
3080
5080
5080
3300
0000
ENDCHAR
STARTCHAR 242b
ENCODING 9259
SWIDTH 960 0
DWIDTH 10 0
BBX 10 10 0 -2
BITMAP
1000
1000
7900
1500
2480
2480
2480
5400
4800
0000
ENDCHAR
STARTCHAR 242c
ENCODING 9260
SWIDTH 960 0
DWIDTH 10 0
BBX 10 10 0 -2
BITMAP
1140
1140
7800
1500
2480
2480
2480
5400
4800
0000
ENDCHAR
STARTCHAR 242d
ENCODING 9261
SWIDTH 960 0
DWIDTH 10 0
BBX 10 10 0 -2
BITMAP
0800
3F00
0400
7F80
0200
1F00
2100
2000
1E00
0000
ENDCHAR
STARTCHAR 242e
ENCODING 9262
SWIDTH 960 0
DWIDTH 10 0
BBX 10 10 0 -2
BITMAP
0940
3D40
0400
7F80
0200
1F00
2100
2000
1E00
0000
ENDCHAR
STARTCHAR 242f
ENCODING 9263
SWIDTH 960 0
DWIDTH 10 0
BBX 10 10 0 -2
BITMAP
0200
0400
1800
2000
2000
1000
0800
0400
0200
0000
ENDCHAR
STARTCHAR 2430
ENCODING 9264
SWIDTH 960 0
DWIDTH 10 0
BBX 10 10 0 -2
BITMAP
0200
0540
1940
2000
2000
1000
0800
0400
0200
0000
ENDCHAR
STARTCHAR 2431
ENCODING 9265
SWIDTH 960 0
DWIDTH 10 0
BBX 10 10 0 -2
BITMAP
0100
4100
4F80
4100
4100
4100
4100
4200
0C00
0000
ENDCHAR
STARTCHAR 2432
ENCODING 9266
SWIDTH 960 0
DWIDTH 10 0
BBX 10 10 0 -2
BITMAP
0140
4140
4E80
4100
4100
4100
4100
4200
0C00
0000
ENDCHAR
STARTCHAR 2433
ENCODING 9267
SWIDTH 960 0
DWIDTH 10 0
BBX 10 10 0 -2
BITMAP
0000
3F00
0000
0000
0000
0000
4000
4000
3F80
0000
ENDCHAR
STARTCHAR 2434
ENCODING 9268
SWIDTH 960 0
DWIDTH 10 0
BBX 10 10 0 -2
BITMAP
0140
3D40
0000
0000
0000
0000
4000
4000
3F80
0000
ENDCHAR
STARTCHAR 2435
ENCODING 9269
SWIDTH 960 0
DWIDTH 10 0
BBX 10 10 0 -2
BITMAP
0400
0400
7F80
0200
0200
1F00
2100
2000
1E00
0000
ENDCHAR
STARTCHAR 2436
ENCODING 9270
SWIDTH 960 0
DWIDTH 10 0
BBX 10 10 0 -2
BITMAP
0540
0540
7E00
0200
0200
1F00
2100
2000
1E00
0000
ENDCHAR
STARTCHAR 2437
ENCODING 9271
SWIDTH 960 0
DWIDTH 10 0
BBX 10 10 0 -2
BITMAP
2000
2000
2000
2000
2000
2080
2080
1100
0E00
0000
ENDCHAR
STARTCHAR 2438
ENCODING 9272
SWIDTH 960 0
DWIDTH 10 0
BBX 10 10 0 -2
BITMAP
2280
2280
2000
2000
2000
2080
2080
1100
0E00
0000
ENDCHAR
STARTCHAR 2439
ENCODING 9273
SWIDTH 960 0
DWIDTH 10 0
BBX 10 10 0 -2
BITMAP
0200
7F80
0200
0E00
1200
1200
0E00
0200
0C00
0000
ENDCHAR
STARTCHAR 243a
ENCODING 9274
SWIDTH 960 0
DWIDTH 10 0
BBX 10 10 0 -2
BITMAP
0140
7D40
0200
0E00
1200
1200
0E00
0200
0C00
0000
ENDCHAR
STARTCHAR 243b
ENCODING 9275
SWIDTH 960 0
DWIDTH 10 0
BBX 10 10 0 -2
BITMAP
1100
1100
7FC0
1100
1100
1600
1000
1000
0F00
0000
ENDCHAR
STARTCHAR 243c
ENCODING 9276
SWIDTH 960 0
DWIDTH 10 0
BBX 10 10 0 -2
BITMAP
1140
1140
7E80
1100
1100
1600
1000
1000
0F00
0000
ENDCHAR
STARTCHAR 243d
ENCODING 9277
SWIDTH 960 0
DWIDTH 10 0
BBX 10 10 0 -2
BITMAP
0000
3F00
0200
0400
7F80
0800
1000
1000
0E00
0000
ENDCHAR
STARTCHAR 243e
ENCODING 9278
SWIDTH 960 0
DWIDTH 10 0
BBX 10 10 0 -2
BITMAP
0140
3D40
0200
0400
7F80
0800
1000
1000
0E00
0000
ENDCHAR
STARTCHAR 243f
ENCODING 9279
SWIDTH 960 0
DWIDTH 10 0
BBX 10 10 0 -2
BITMAP
1000
1000
7C00
1000
2780
2000
2000
4800
4780
0000
ENDCHAR
STARTCHAR 2440
ENCODING 9280
SWIDTH 960 0
DWIDTH 10 0
BBX 10 10 0 -2
BITMAP
1000
1140
7D40
1000
2780
2000
2000
4800
4780
0000
ENDCHAR
STARTCHAR 2441
ENCODING 9281
SWIDTH 960 0
DWIDTH 10 0
BBX 10 10 0 -2
BITMAP
0800
0800
7F80
1000
1F00
2080
0080
0100
0E00
0000
ENDCHAR
STARTCHAR 2442
ENCODING 9282
SWIDTH 960 0
DWIDTH 10 0
BBX 10 10 0 -2
BITMAP
0940
0940
7E00
1000
1F00
2080
0080
0100
0E00
0000
ENDCHAR
STARTCHAR 2443
ENCODING 9283
SWIDTH 960 0
DWIDTH 10 0
BBX 10 10 0 -2
BITMAP
0000
0000
0000
0E00
3100
0080
0080
0300
0C00
0000
ENDCHAR
STARTCHAR 2444
ENCODING 9284
SWIDTH 960 0
DWIDTH 10 0
BBX 10 10 0 -2
BITMAP
0000
0F00
7080
0040
0040
0040
0180
0E00
0000
0000
ENDCHAR
STARTCHAR 2445
ENCODING 9285
SWIDTH 960 0
DWIDTH 10 0
BBX 10 10 0 -2
BITMAP
0140
0F40
7080
0040
0040
0040
0180
0E00
0000
0000
ENDCHAR
STARTCHAR 2446
ENCODING 9286
SWIDTH 960 0
DWIDTH 10 0
BBX 10 10 0 -2
BITMAP
0000
7FC0
0200
0400
0800
0800
0800
0400
0300
0000
ENDCHAR
STARTCHAR 2447
ENCODING 9287
SWIDTH 960 0
DWIDTH 10 0
BBX 10 10 0 -2
BITMAP
0000
7FC0
0200
0540
0940
0800
0800
0400
0300
0000
ENDCHAR
STARTCHAR 2448
ENCODING 9288
SWIDTH 960 0
DWIDTH 10 0
BBX 10 10 0 -2
BITMAP
0800
0800
0800
0B80
0C00
1000
2000
2000
1F80
0000
ENDCHAR
STARTCHAR 2449
ENCODING 9289
SWIDTH 960 0
DWIDTH 10 0
BBX 10 10 0 -2
BITMAP
0940
0940
0800
0B80
0C00
1000
2000
2000
1F80
0000
ENDCHAR
STARTCHAR 244a
ENCODING 9290
SWIDTH 960 0
DWIDTH 10 0
BBX 10 10 0 -2
BITMAP
0800
0980
7C40
1000
2100
2100
4780
0940
0600
0000
ENDCHAR
STARTCHAR 244b
ENCODING 9291
SWIDTH 960 0
DWIDTH 10 0
BBX 10 10 0 -2
BITMAP
0000
4000
4F80
4000
4000
4000
4800
4800
4780
0000
ENDCHAR
STARTCHAR 244c
ENCODING 9292
SWIDTH 960 0
DWIDTH 10 0
BBX 10 10 0 -2
BITMAP
0200
2200
2F00
3280
2440
5440
4B40
5480
2340
0000
ENDCHAR
STARTCHAR 244d
ENCODING 9293
SWIDTH 960 0
DWIDTH 10 0
BBX 10 10 0 -2
BITMAP
1000
1000
7700
1880
1080
1080
3380
54C0
1300
0000
ENDCHAR
STARTCHAR 244e
ENCODING 9294
SWIDTH 960 0
DWIDTH 10 0
BBX 10 10 0 -2
BITMAP
0000
1F00
2480
4440
4440
4840
4840
3080
0300
0000
ENDCHAR
STARTCHAR 244f
ENCODING 9295
SWIDTH 960 0
DWIDTH 10 0
BBX 10 10 0 -2
BITMAP
0100
4100
4FC0
4100
4100
4100
4780
4940
4600
0000
ENDCHAR
STARTCHAR 2450
ENCODING 9296
SWIDTH 960 0
DWIDTH 10 0
BBX 10 10 0 -2
BITMAP
0140
4140
4E80
4100
4100
4100
4780
4940
4600
0000
ENDCHAR
STARTCHAR 2451
ENCODING 9297
SWIDTH 960 0
DWIDTH 10 0
BBX 10 10 0 -2
BITMAP
0280
4340
5F40
4280
4200
4200
4F00
5280
4C00
0000
ENDCHAR
STARTCHAR 2452
ENCODING 9298
SWIDTH 960 0
DWIDTH 10 0
BBX 10 10 0 -2
BITMAP
0000
1900
7100
1180
2140
2100
2100
2200
1C00
0000
ENDCHAR
STARTCHAR 2453
ENCODING 9299
SWIDTH 960 0
DWIDTH 10 0
BBX 10 10 0 -2
BITMAP
0140
1940
7000
1100
2180
2140
2100
2200
1C00
0000
ENDCHAR
STARTCHAR 2454
ENCODING 9300
SWIDTH 960 0
DWIDTH 10 0
BBX 10 10 0 -2
BITMAP
0080
1940
7140
1080
2100
2180
2140
2200
1C00
0000
ENDCHAR
STARTCHAR 2455
ENCODING 9301
SWIDTH 960 0
DWIDTH 10 0
BBX 10 10 0 -2
BITMAP
0C00
0200
0400
0800
2480
2240
4240
5240
0C00
0000
ENDCHAR
STARTCHAR 2456
ENCODING 9302
SWIDTH 960 0
DWIDTH 10 0
BBX 10 10 0 -2
BITMAP
0D40
0340
0400
0800
2480
2240
4240
5240
0C00
0000
ENDCHAR
STARTCHAR 2457
ENCODING 9303
SWIDTH 960 0
DWIDTH 10 0
BBX 10 10 0 -2
BITMAP
0C80
0340
0540
0880
2400
2240
4240
5240
0C00
0000
ENDCHAR
STARTCHAR 2458
ENCODING 9304
SWIDTH 960 0
DWIDTH 10 0
BBX 10 10 0 -2
BITMAP
0000
0000
1800
2400
2200
4100
0080
0040
0000
0000
ENDCHAR
STARTCHAR 2459
ENCODING 9305
SWIDTH 960 0
DWIDTH 10 0
BBX 10 10 0 -2
BITMAP
0000
0140
1940
2400
2200
4100
0080
0040
0000
0000
ENDCHAR
STARTCHAR 245a
ENCODING 9306
SWIDTH 960 0
DWIDTH 10 0
BBX 10 10 0 -2
BITMAP
0080
0140
1940
2480
2200
4100
0080
0040
0000
0000
ENDCHAR
STARTCHAR 245b
ENCODING 9307
SWIDTH 960 0
DWIDTH 10 0
BBX 10 10 0 -2
BITMAP
0000
4FC0
4100
4FC0
4100
4100
4780
4940
4600
0000
ENDCHAR
STARTCHAR 245c
ENCODING 9308
SWIDTH 960 0
DWIDTH 10 0
BBX 10 10 0 -2
BITMAP
0140
5D40
4200
5F80
4200
4200
4F00
5280
4C00
0000
ENDCHAR
STARTCHAR 245d
ENCODING 9309
SWIDTH 960 0
DWIDTH 10 0
BBX 10 10 0 -2
BITMAP
0080
5F40
4340
5E80
4200
4200
4F00
5280
4C00
0000
ENDCHAR
STARTCHAR 245e
ENCODING 9310
SWIDTH 960 0
DWIDTH 10 0
BBX 10 10 0 -2
BITMAP
0200
3F80
0200
1F00
0200
0200
1F00
2280
1C00
0000
ENDCHAR
STARTCHAR 245f
ENCODING 9311
SWIDTH 960 0
DWIDTH 10 0
BBX 10 10 0 -2
BITMAP
0000
3C00
0500
0500
3F80
4940
5100
6100
0600
0000
ENDCHAR
STARTCHAR 2460
ENCODING 9312
SWIDTH 960 0
DWIDTH 10 0
BBX 10 10 0 -2
BITMAP
1000
1000
7C80
1040
3000
5000
5080
3080
0F00
0000
ENDCHAR
STARTCHAR 2461
ENCODING 9313
SWIDTH 960 0
DWIDTH 10 0
BBX 10 10 0 -2
BITMAP
0200
2200
2F00
3280
2440
5440
4840
5080
2300
0000
ENDCHAR
STARTCHAR 2462
ENCODING 9314
SWIDTH 960 0
DWIDTH 10 0
BBX 10 10 0 -2
BITMAP
0800
0800
3E00
1000
7F00
1000
1080
1080
0F00
0000
ENDCHAR
STARTCHAR 2463
ENCODING 9315
SWIDTH 960 0
DWIDTH 10 0
BBX 10 10 0 -2
BITMAP
0000
0000
0000
1400
1E00
7100
1200
0800
0800
0000
ENDCHAR
STARTCHAR 2464
ENCODING 9316
SWIDTH 960 0
DWIDTH 10 0
BBX 10 10 0 -2
BITMAP
2200
2400
1F00
7080
1080
1300
0800
0800
0800
0000
ENDCHAR
STARTCHAR 2465
ENCODING 9317
SWIDTH 960 0
DWIDTH 10 0
BBX 10 10 0 -2
BITMAP
0000
0000
0400
2E00
3500
2500
2E00
0400
0800
0000
ENDCHAR
STARTCHAR 2466
ENCODING 9318
SWIDTH 960 0
DWIDTH 10 0
BBX 10 10 0 -2
BITMAP
0400
4400
5F00
6480
4480
5480
4F00
0400
0800
0000
ENDCHAR
STARTCHAR 2467
ENCODING 9319
SWIDTH 960 0
DWIDTH 10 0
BBX 10 10 0 -2
BITMAP
0000
0000
0400
0400
0700
0400
1C00
2600
1900
0000
ENDCHAR
STARTCHAR 2468
ENCODING 9320
SWIDTH 960 0
DWIDTH 10 0
BBX 10 10 0 -2
BITMAP
0400
0400
0780
0400
0400
0400
3E00
4500
3880
0000
ENDCHAR
STARTCHAR 2469
ENCODING 9321
SWIDTH 960 0
DWIDTH 10 0
BBX 10 10 0 -2
BITMAP
1C00
0300
1000
1000
3F00
2080
0080
0100
0E00
0000
ENDCHAR
STARTCHAR 246a
ENCODING 9322
SWIDTH 960 0
DWIDTH 10 0
BBX 10 10 0 -2
BITMAP
2100
2100
2100
2100
2900
1100
0100
0200
0C00
0000
ENDCHAR
STARTCHAR 246b
ENCODING 9323
SWIDTH 960 0
DWIDTH 10 0
BBX 10 10 0 -2
BITMAP
3E00
0400
0800
1E00
2100
4080
0C80
1300
0E00
0000
ENDCHAR
STARTCHAR 246c
ENCODING 9324
SWIDTH 960 0
DWIDTH 10 0
BBX 10 10 0 -2
BITMAP
1000
1000
7600
1900
1100
1100
3100
5140
1080
0000
ENDCHAR
STARTCHAR 246d
ENCODING 9325
SWIDTH 960 0
DWIDTH 10 0
BBX 10 10 0 -2
BITMAP
3E00
0400
0800
1E00
2100
4080
0080
0100
0E00
0000
ENDCHAR
STARTCHAR 246e
ENCODING 9326
SWIDTH 960 0
DWIDTH 10 0
BBX 10 10 0 -2
BITMAP
0000
0000
1000
1000
3600
1900
1100
3100
1200
0000
ENDCHAR
STARTCHAR 246f
ENCODING 9327
SWIDTH 960 0
DWIDTH 10 0
BBX 10 10 0 -2
BITMAP
1000
1000
7700
1880
1040
1040
3040
5080
1300
0000
ENDCHAR
STARTCHAR 2470
ENCODING 9328
SWIDTH 960 0
DWIDTH 10 0
BBX 10 10 0 -2
BITMAP
0000
3E00
0400
1E00
2900
4880
5380
5480
2300
0000
ENDCHAR
STARTCHAR 2471
ENCODING 9329
SWIDTH 960 0
DWIDTH 10 0
BBX 10 10 0 -2
BITMAP
1E00
0400
0E00
1100
2D00
0E00
1000
3B80
44C0
0000
ENDCHAR
STARTCHAR 2472
ENCODING 9330
SWIDTH 960 0
DWIDTH 10 0
BBX 10 10 0 -2
BITMAP
0800
7F00
1000
1980
2600
4A00
1200
1000
0F00
0000
ENDCHAR
STARTCHAR 2473
ENCODING 9331
SWIDTH 960 0
DWIDTH 10 0
BBX 10 10 0 -2
BITMAP
0400
0800
0800
1000
1800
2400
2480
4480
4300
0000
ENDCHAR
STARTCHAR 2521
ENCODING 9505
SWIDTH 960 0
DWIDTH 10 0
BBX 10 10 0 -2
BITMAP
0000
0000
0000
1F80
0080
0500
0400
0400
0800
0000
ENDCHAR
STARTCHAR 2522
ENCODING 9506
SWIDTH 960 0
DWIDTH 10 0
BBX 10 10 0 -2
BITMAP
0000
7F80
0080
0900
0A00
0800
0800
1000
2000
0000
ENDCHAR
STARTCHAR 2523
ENCODING 9507
SWIDTH 960 0
DWIDTH 10 0
BBX 10 10 0 -2
BITMAP
0000
0000
0100
0200
0400
1C00
2400
0400
0400
0000
ENDCHAR
STARTCHAR 2524
ENCODING 9508
SWIDTH 960 0
DWIDTH 10 0
BBX 10 10 0 -2
BITMAP
0080
0100
0200
0400
1C00
6400
0400
0400
0400
0000
ENDCHAR
STARTCHAR 2525
ENCODING 9509
SWIDTH 960 0
DWIDTH 10 0
BBX 10 10 0 -2
BITMAP
0000
0000
0400
0400
3F00
2100
0100
0200
0C00
0000
ENDCHAR
STARTCHAR 2526
ENCODING 9510
SWIDTH 960 0
DWIDTH 10 0
BBX 10 10 0 -2
BITMAP
0400
0400
3F80
2080
2080
0080
0100
0200
0C00
0000
ENDCHAR
STARTCHAR 2527
ENCODING 9511
SWIDTH 960 0
DWIDTH 10 0
BBX 10 10 0 -2
BITMAP
0000
0000
0000
0000
1F00
0400
0400
0400
3F80
0000
ENDCHAR
STARTCHAR 2528
ENCODING 9512
SWIDTH 960 0
DWIDTH 10 0
BBX 10 10 0 -2
BITMAP
0000
0000
3F80
0400
0400
0400
0400
7FC0
0000
0000
ENDCHAR
STARTCHAR 2529
ENCODING 9513
SWIDTH 960 0
DWIDTH 10 0
BBX 10 10 0 -2
BITMAP
0000
0000
0200
0200
3F00
0600
0A00
1200
2600
0000
ENDCHAR
STARTCHAR 252a
ENCODING 9514
SWIDTH 960 0
DWIDTH 10 0
BBX 10 10 0 -2
BITMAP
0200
0200
7F80
0600
0A00
1200
2200
4200
0600
0000
ENDCHAR
STARTCHAR 252b
ENCODING 9515
SWIDTH 960 0
DWIDTH 10 0
BBX 10 10 0 -2
BITMAP
0800
0800
7F80
0880
0880
1080
1080
2080
4300
0000
ENDCHAR
STARTCHAR 252c
ENCODING 9516
SWIDTH 960 0
DWIDTH 10 0
BBX 10 10 0 -2
BITMAP
0940
0940
7F80
0880
0880
1080
1080
2080
4300
0000
ENDCHAR
STARTCHAR 252d
ENCODING 9517
SWIDTH 960 0
DWIDTH 10 0
BBX 10 10 0 -2
BITMAP
0800
0800
3F80
0400
0400
7FC0
0200
0200
0200
0000
ENDCHAR
STARTCHAR 252e
ENCODING 9518
SWIDTH 960 0
DWIDTH 10 0
BBX 10 10 0 -2
BITMAP
0940
0940
3F80
0400
0400
7FC0
0200
0200
0200
0000
ENDCHAR
STARTCHAR 252f
ENCODING 9519
SWIDTH 960 0
DWIDTH 10 0
BBX 10 10 0 -2
BITMAP
0800
0F80
0880
1080
2080
0100
0100
0600
1800
0000
ENDCHAR
STARTCHAR 2530
ENCODING 9520
SWIDTH 960 0
DWIDTH 10 0
BBX 10 10 0 -2
BITMAP
0940
0F40
0880
1080
2080
0100
0100
0600
1800
0000
ENDCHAR
STARTCHAR 2531
ENCODING 9521
SWIDTH 960 0
DWIDTH 10 0
BBX 10 10 0 -2
BITMAP
1000
1000
1F80
2200
4200
0200
0200
0400
1800
0000
ENDCHAR
STARTCHAR 2532
ENCODING 9522
SWIDTH 960 0
DWIDTH 10 0
BBX 10 10 0 -2
BITMAP
1140
1140
1F80
2200
4200
0200
0200
0400
1800
0000
ENDCHAR
STARTCHAR 2533
ENCODING 9523
SWIDTH 960 0
DWIDTH 10 0
BBX 10 10 0 -2
BITMAP
0000
0000
3F80
0080
0080
0080
0080
3F80
0080
0000
ENDCHAR
STARTCHAR 2534
ENCODING 9524
SWIDTH 960 0
DWIDTH 10 0
BBX 10 10 0 -2
BITMAP
0140
0140
3F80
0080
0080
0080
0080
3F80
0080
0000
ENDCHAR
STARTCHAR 2535
ENCODING 9525
SWIDTH 960 0
DWIDTH 10 0
BBX 10 10 0 -2
BITMAP
1100
1100
7FC0
1100
1100
1100
0100
0200
0C00
0000
ENDCHAR
STARTCHAR 2536
ENCODING 9526
SWIDTH 960 0
DWIDTH 10 0
BBX 10 10 0 -2
BITMAP
1140
1140
7E80
1100
1100
1100
0100
0200
0C00
0000
ENDCHAR
STARTCHAR 2537
ENCODING 9527
SWIDTH 960 0
DWIDTH 10 0
BBX 10 10 0 -2
BITMAP
0000
3000
0880
0080
3080
0900
0100
0600
3800
0000
ENDCHAR
STARTCHAR 2538
ENCODING 9528
SWIDTH 960 0
DWIDTH 10 0
BBX 10 10 0 -2
BITMAP
0140
3140
0880
0080
3080
0900
0100
0600
3800
0000
ENDCHAR
STARTCHAR 2539
ENCODING 9529
SWIDTH 960 0
DWIDTH 10 0
BBX 10 10 0 -2
BITMAP
0000
3F00
0100
0200
0200
0400
0A00
1100
6080
0000
ENDCHAR
STARTCHAR 253a
ENCODING 9530
SWIDTH 960 0
DWIDTH 10 0
BBX 10 10 0 -2
BITMAP
0140
3F40
0100
0200
0200
0400
0A00
1100
6080
0000
ENDCHAR
STARTCHAR 253b
ENCODING 9531
SWIDTH 960 0
DWIDTH 10 0
BBX 10 10 0 -2
BITMAP
2000
2000
2780
7880
2100
2200
2000
2000
1F00
0000
ENDCHAR
STARTCHAR 253c
ENCODING 9532
SWIDTH 960 0
DWIDTH 10 0
BBX 10 10 0 -2
BITMAP
2140
2140
2780
7880
2100
2200
2000
2000
1F00
0000
ENDCHAR
STARTCHAR 253d
ENCODING 9533
SWIDTH 960 0
DWIDTH 10 0
BBX 10 10 0 -2
BITMAP
0000
2080
1080
0880
0100
0100
0200
0400
1800
0000
ENDCHAR
STARTCHAR 253e
ENCODING 9534
SWIDTH 960 0
DWIDTH 10 0
BBX 10 10 0 -2
BITMAP
0140
2140
1080
0880
0100
0100
0200
0400
1800
0000
ENDCHAR
STARTCHAR 253f
ENCODING 9535
SWIDTH 960 0
DWIDTH 10 0
BBX 10 10 0 -2
BITMAP
0800
0F80
0880
1880
2480
0300
0100
0600
1800
0000
ENDCHAR
STARTCHAR 2540
ENCODING 9536
SWIDTH 960 0
DWIDTH 10 0
BBX 10 10 0 -2
BITMAP
0940
0F40
0880
1880
2480
0300
0100
0600
1800
0000
ENDCHAR
STARTCHAR 2541
ENCODING 9537
SWIDTH 960 0
DWIDTH 10 0
BBX 10 10 0 -2
BITMAP
0000
0300
3C00
0400
7F80
0400
0400
0800
3000
0000
ENDCHAR
STARTCHAR 2542
ENCODING 9538
SWIDTH 960 0
DWIDTH 10 0
BBX 10 10 0 -2
BITMAP
0140
0340
3C00
0400
7F80
0400
0400
0800
3000
0000
ENDCHAR
STARTCHAR 2543
ENCODING 9539
SWIDTH 960 0
DWIDTH 10 0
BBX 10 10 0 -2
BITMAP
0000
0000
0000
0000
2900
2900
0100
0200
0C00
0000
ENDCHAR
STARTCHAR 2544
ENCODING 9540
SWIDTH 960 0
DWIDTH 10 0
BBX 10 10 0 -2
BITMAP
0000
0800
2480
1480
1080
0100
0100
0600
1800
0000
ENDCHAR
STARTCHAR 2545
ENCODING 9541
SWIDTH 960 0
DWIDTH 10 0
BBX 10 10 0 -2
BITMAP
0140
0940
2400
1480
1080
0100
0100
0600
1800
0000
ENDCHAR
STARTCHAR 2546
ENCODING 9542
SWIDTH 960 0
DWIDTH 10 0
BBX 10 10 0 -2
BITMAP
0000
3F00
0000
7F80
0400
0400
0400
0800
3000
0000
ENDCHAR
STARTCHAR 2547
ENCODING 9543
SWIDTH 960 0
DWIDTH 10 0
BBX 10 10 0 -2
BITMAP
0140
3D40
0000
7F80
0400
0400
0400
0800
3000
0000
ENDCHAR
STARTCHAR 2548
ENCODING 9544
SWIDTH 960 0
DWIDTH 10 0
BBX 10 10 0 -2
BITMAP
1000
1000
1000
1800
1600
1100
1000
1000
1000
0000
ENDCHAR
STARTCHAR 2549
ENCODING 9545
SWIDTH 960 0
DWIDTH 10 0
BBX 10 10 0 -2
BITMAP
1280
1280
1000
1800
1600
1100
1000
1000
1000
0000
ENDCHAR
STARTCHAR 254a
ENCODING 9546
SWIDTH 960 0
DWIDTH 10 0
BBX 10 10 0 -2
BITMAP
0400
0400
7F80
0400
0400
0400
0400
0800
3000
0000
ENDCHAR
STARTCHAR 254b
ENCODING 9547
SWIDTH 960 0
DWIDTH 10 0
BBX 10 10 0 -2
BITMAP
0000
0000
3F00
0000
0000
0000
0000
7F80
0000
0000
ENDCHAR
STARTCHAR 254c
ENCODING 9548
SWIDTH 960 0
DWIDTH 10 0
BBX 10 10 0 -2
BITMAP
0000
3F80
0080
0100
0D00
0200
0500
0880
3000
0000
ENDCHAR
STARTCHAR 254d
ENCODING 9549
SWIDTH 960 0
DWIDTH 10 0
BBX 10 10 0 -2
BITMAP
0400
0400
3F80
0100
0200
0E00
3580
0400
0400
0000
ENDCHAR
STARTCHAR 254e
ENCODING 9550
SWIDTH 960 0
DWIDTH 10 0
BBX 10 10 0 -2
BITMAP
0000
0080
0080
0100
0100
0200
0400
0800
3000
0000
ENDCHAR
STARTCHAR 254f
ENCODING 9551
SWIDTH 960 0
DWIDTH 10 0
BBX 10 10 0 -2
BITMAP
0000
1200
1200
1100
1100
2100
2080
2080
4080
0000
ENDCHAR
STARTCHAR 2550
ENCODING 9552
SWIDTH 960 0
DWIDTH 10 0
BBX 10 10 0 -2
BITMAP
0140
1140
1200
1100
1100
2100
2080
2080
4080
0000
ENDCHAR
STARTCHAR 2551
ENCODING 9553
SWIDTH 960 0
DWIDTH 10 0
BBX 10 10 0 -2
BITMAP
0080
0140
1140
1280
1100
2100
2080
2080
4080
0000
ENDCHAR
STARTCHAR 2552
ENCODING 9554
SWIDTH 960 0
DWIDTH 10 0
BBX 10 10 0 -2
BITMAP
2000
2000
2180
2600
3800
2000
2000
2000
1F80
0000
ENDCHAR
STARTCHAR 2553
ENCODING 9555
SWIDTH 960 0
DWIDTH 10 0
BBX 10 10 0 -2
BITMAP
2140
2140
2100
2600
3800
2000
2000
2000
1F80
0000
ENDCHAR
STARTCHAR 2554
ENCODING 9556
SWIDTH 960 0
DWIDTH 10 0
BBX 10 10 0 -2
BITMAP
2080
2140
2140
2680
3800
2000
2000
2000
1F80
0000
ENDCHAR
STARTCHAR 2555
ENCODING 9557
SWIDTH 960 0
DWIDTH 10 0
BBX 10 10 0 -2
BITMAP
0000
3F80
0080
0080
0080
0100
0100
0600
1800
0000
ENDCHAR
STARTCHAR 2556
ENCODING 9558
SWIDTH 960 0
DWIDTH 10 0
BBX 10 10 0 -2
BITMAP
0140
0140
3F80
0080
0080
0100
0100
0600
1800
0000
ENDCHAR
STARTCHAR 2557
ENCODING 9559
SWIDTH 960 0
DWIDTH 10 0
BBX 10 10 0 -2
BITMAP
0080
0140
3F40
0080
0080
0100
0100
0600
1800
0000
ENDCHAR
STARTCHAR 2558
ENCODING 9560
SWIDTH 960 0
DWIDTH 10 0
BBX 10 10 0 -2
BITMAP
0000
0000
1000
2800
4400
0200
0100
0080
0000
0000
ENDCHAR
STARTCHAR 2559
ENCODING 9561
SWIDTH 960 0
DWIDTH 10 0
BBX 10 10 0 -2
BITMAP
0000
0280
1280
2800
4400
0200
0100
0080
0000
0000
ENDCHAR
STARTCHAR 255a
ENCODING 9562
SWIDTH 960 0
DWIDTH 10 0
BBX 10 10 0 -2
BITMAP
0080
0140
1140
2880
4400
0200
0100
0080
0000
0000
ENDCHAR
STARTCHAR 255b
ENCODING 9563
SWIDTH 960 0
DWIDTH 10 0
BBX 10 10 0 -2
BITMAP
0400
0400
7FC0
0400
0400
2480
2440
4440
0C00
0000
ENDCHAR
STARTCHAR 255c
ENCODING 9564
SWIDTH 960 0
DWIDTH 10 0
BBX 10 10 0 -2
BITMAP
0540
0540
7F80
0400
0400
2480
2440
4440
0C00
0000
ENDCHAR
STARTCHAR 255d
ENCODING 9565
SWIDTH 960 0
DWIDTH 10 0
BBX 10 10 0 -2
BITMAP
0480
0540
7F40
0480
0400
2480
2440
4440
0C00
0000
ENDCHAR
STARTCHAR 255e
ENCODING 9566
SWIDTH 960 0
DWIDTH 10 0
BBX 10 10 0 -2
BITMAP
0000
0000
7F80
0100
0200
1400
0800
0400
0400
0000
ENDCHAR
STARTCHAR 255f
ENCODING 9567
SWIDTH 960 0
DWIDTH 10 0
BBX 10 10 0 -2
BITMAP
0000
1C00
0300
0000
1C00
0300
0000
3C00
0300
0000
ENDCHAR
STARTCHAR 2560
ENCODING 9568
SWIDTH 960 0
DWIDTH 10 0
BBX 10 10 0 -2
BITMAP
0000
0800
0800
0800
1000
1200
2100
2700
7880
0000
ENDCHAR
STARTCHAR 2561
ENCODING 9569
SWIDTH 960 0
DWIDTH 10 0
BBX 10 10 0 -2
BITMAP
0000
0080
0080
1900
0500
0200
0500
0880
3000
0000
ENDCHAR
STARTCHAR 2562
ENCODING 9570
SWIDTH 960 0
DWIDTH 10 0
BBX 10 10 0 -2
BITMAP
0000
3F00
0800
0800
7F80
0800
0800
0800
0780
0000
ENDCHAR
STARTCHAR 2563
ENCODING 9571
SWIDTH 960 0
DWIDTH 10 0
BBX 10 10 0 -2
BITMAP
0000
0000
0800
0800
3F00
0900
0A00
0800
0800
0000
ENDCHAR
STARTCHAR 2564
ENCODING 9572
SWIDTH 960 0
DWIDTH 10 0
BBX 10 10 0 -2
BITMAP
1000
1000
0FC0
7880
0900
0800
0400
0400
0400
0000
ENDCHAR
STARTCHAR 2565
ENCODING 9573
SWIDTH 960 0
DWIDTH 10 0
BBX 10 10 0 -2
BITMAP
0000
0000
0000
0000
1E00
0200
0200
3F80
0000
0000
ENDCHAR
STARTCHAR 2566
ENCODING 9574
SWIDTH 960 0
DWIDTH 10 0
BBX 10 10 0 -2
BITMAP
0000
0000
3F00
0100
0100
0200
0200
7F80
0000
0000
ENDCHAR
STARTCHAR 2567
ENCODING 9575
SWIDTH 960 0
DWIDTH 10 0
BBX 10 10 0 -2
BITMAP
0000
0000
0000
0000
3E00
0200
3E00
0200
3E00
0000
ENDCHAR
STARTCHAR 2568
ENCODING 9576
SWIDTH 960 0
DWIDTH 10 0
BBX 10 10 0 -2
BITMAP
0000
3F80
0080
0080
3F80
0080
0080
3F80
0080
0000
ENDCHAR
STARTCHAR 2569
ENCODING 9577
SWIDTH 960 0
DWIDTH 10 0
BBX 10 10 0 -2
BITMAP
0000
1F00
0000
3F80
0080
0080
0100
0200
0C00
0000
ENDCHAR
STARTCHAR 256a
ENCODING 9578
SWIDTH 960 0
DWIDTH 10 0
BBX 10 10 0 -2
BITMAP
2100
2100
2100
2100
2100
0100
0200
0400
1800
0000
ENDCHAR
STARTCHAR 256b
ENCODING 9579
SWIDTH 960 0
DWIDTH 10 0
BBX 10 10 0 -2
BITMAP
0000
2400
2400
2400
2400
2480
2480
4500
4600
0000
ENDCHAR
STARTCHAR 256c
ENCODING 9580
SWIDTH 960 0
DWIDTH 10 0
BBX 10 10 0 -2
BITMAP
0000
2000
2000
2000
2000
2080
2100
2600
3800
0000
ENDCHAR
STARTCHAR 256d
ENCODING 9581
SWIDTH 960 0
DWIDTH 10 0
BBX 10 10 0 -2
BITMAP
0000
0000
3F80
2080
2080
2080
2080
3F80
2080
0000
ENDCHAR
STARTCHAR 256e
ENCODING 9582
SWIDTH 960 0
DWIDTH 10 0
BBX 10 10 0 -2
BITMAP
0000
0000
0000
3F00
2100
0100
0100
0200
0C00
0000
ENDCHAR
STARTCHAR 256f
ENCODING 9583
SWIDTH 960 0
DWIDTH 10 0
BBX 10 10 0 -2
BITMAP
0000
3F80
2080
2080
0080
0080
0100
0200
0C00
0000
ENDCHAR
STARTCHAR 2570
ENCODING 9584
SWIDTH 960 0
DWIDTH 10 0
BBX 10 10 0 -2
BITMAP
0200
0200
7F80
2200
2200
7F80
0200
0200
0200
0000
ENDCHAR
STARTCHAR 2571
ENCODING 9585
SWIDTH 960 0
DWIDTH 10 0
BBX 10 10 0 -2
BITMAP
0000
3F00
0100
0A00
0800
0800
0800
7F80
0000
0000
ENDCHAR
STARTCHAR 2572
ENCODING 9586
SWIDTH 960 0
DWIDTH 10 0
BBX 10 10 0 -2
BITMAP
0000
3F80
0080
0080
3F80
0100
0100
0600
1800
0000
ENDCHAR
STARTCHAR 2573
ENCODING 9587
SWIDTH 960 0
DWIDTH 10 0
BBX 10 10 0 -2
BITMAP
0000
3000
0880
0080
0080
0100
0100
0600
3800
0000
ENDCHAR
STARTCHAR 2574
ENCODING 9588
SWIDTH 960 0
DWIDTH 10 0
BBX 10 10 0 -2
BITMAP
0540
0540
3F80
2080
2080
0080
0100
0200
0C00
0000
ENDCHAR
STARTCHAR 2575
ENCODING 9589
SWIDTH 960 0
DWIDTH 10 0
BBX 10 10 0 -2
BITMAP
0000
0000
0800
0800
3F00
0900
0900
1100
2300
0000
ENDCHAR
STARTCHAR 2576
ENCODING 9590
SWIDTH 960 0
DWIDTH 10 0
BBX 10 10 0 -2
BITMAP
0000
0000
0800
0800
1F80
2200
0200
0400
1800
0000
ENDCHAR
STARTCHAR 2621
ENCODING 9761
SWIDTH 960 0
DWIDTH 10 0
BBX 10 10 0 -2
BITMAP
0000
0400
0400
0A00
0A00
1F00
1100
3B80
0000
0000
ENDCHAR
STARTCHAR 2622
ENCODING 9762
SWIDTH 960 0
DWIDTH 10 0
BBX 10 10 0 -2
BITMAP
0000
3E00
1100
1100
1E00
1100
1100
3E00
0000
0000
ENDCHAR
STARTCHAR 2623
ENCODING 9763
SWIDTH 960 0
DWIDTH 10 0
BBX 10 10 0 -2
BITMAP
0000
3F00
1100
1000
1000
1000
1000
3800
0000
0000
ENDCHAR
STARTCHAR 2624
ENCODING 9764
SWIDTH 960 0
DWIDTH 10 0
BBX 10 10 0 -2
BITMAP
0000
0400
0400
0A00
0A00
1100
1100
3F80
0000
0000
ENDCHAR
STARTCHAR 2625
ENCODING 9765
SWIDTH 960 0
DWIDTH 10 0
BBX 10 10 0 -2
BITMAP
0000
3F00
1100
1400
1C00
1400
1100
3F00
0000
0000
ENDCHAR
STARTCHAR 2626
ENCODING 9766
SWIDTH 960 0
DWIDTH 10 0
BBX 10 10 0 -2
BITMAP
0000
3F00
2200
0400
0800
0800
1100
3F00
0000
0000
ENDCHAR
STARTCHAR 2627
ENCODING 9767
SWIDTH 960 0
DWIDTH 10 0
BBX 10 10 0 -2
BITMAP
0000
3B80
1100
1100
1F00
1100
1100
3B80
0000
0000
ENDCHAR
STARTCHAR 2628
ENCODING 9768
SWIDTH 960 0
DWIDTH 10 0
BBX 10 10 0 -2
BITMAP
0000
0E00
1100
2080
2E80
2080
1100
0E00
0000
0000
ENDCHAR
STARTCHAR 2629
ENCODING 9769
SWIDTH 960 0
DWIDTH 10 0
BBX 10 10 0 -2
BITMAP
0000
0E00
0400
0400
0400
0400
0400
0E00
0000
0000
ENDCHAR
STARTCHAR 262a
ENCODING 9770
SWIDTH 960 0
DWIDTH 10 0
BBX 10 10 0 -2
BITMAP
0000
3B80
1200
1400
1800
1400
1200
3B80
0000
0000
ENDCHAR
STARTCHAR 262b
ENCODING 9771
SWIDTH 960 0
DWIDTH 10 0
BBX 10 10 0 -2
BITMAP
0000
0400
0400
0A00
0A00
1100
1100
3B80
0000
0000
ENDCHAR
STARTCHAR 262c
ENCODING 9772
SWIDTH 960 0
DWIDTH 10 0
BBX 10 10 0 -2
BITMAP
0000
60C0
3180
3180
2A80
2A80
2480
75C0
0000
0000
ENDCHAR
STARTCHAR 262d
ENCODING 9773
SWIDTH 960 0
DWIDTH 10 0
BBX 10 10 0 -2
BITMAP
0000
6380
3100
2900
2500
2300
2100
7380
0000
0000
ENDCHAR
STARTCHAR 262e
ENCODING 9774
SWIDTH 960 0
DWIDTH 10 0
BBX 10 10 0 -2
BITMAP
0000
3F00
2100
0000
1E00
0000
2100
3F00
0000
0000
ENDCHAR
STARTCHAR 262f
ENCODING 9775
SWIDTH 960 0
DWIDTH 10 0
BBX 10 10 0 -2
BITMAP
0000
0E00
1100
2080
2080
2080
1100
0E00
0000
0000
ENDCHAR
STARTCHAR 2630
ENCODING 9776
SWIDTH 960 0
DWIDTH 10 0
BBX 10 10 0 -2
BITMAP
0000
3F80
1100
1100
1100
1100
1100
3B80
0000
0000
ENDCHAR
STARTCHAR 2631
ENCODING 9777
SWIDTH 960 0
DWIDTH 10 0
BBX 10 10 0 -2
BITMAP
0000
3E00
1100
1100
1E00
1000
1000
3800
0000
0000
ENDCHAR
STARTCHAR 2632
ENCODING 9778
SWIDTH 960 0
DWIDTH 10 0
BBX 10 10 0 -2
BITMAP
0000
3F00
1100
0800
0400
0800
1100
3F00
0000
0000
ENDCHAR
STARTCHAR 2633
ENCODING 9779
SWIDTH 960 0
DWIDTH 10 0
BBX 10 10 0 -2
BITMAP
0000
3F80
2480
0400
0400
0400
0400
0E00
0000
0000
ENDCHAR
STARTCHAR 2634
ENCODING 9780
SWIDTH 960 0
DWIDTH 10 0
BBX 10 10 0 -2
BITMAP
0000
1100
2A80
2480
0400
0400
0400
0E00
0000
0000
ENDCHAR
STARTCHAR 2635
ENCODING 9781
SWIDTH 960 0
DWIDTH 10 0
BBX 10 10 0 -2
BITMAP
0000
0400
1F00
2480
2480
2480
1F00
0400
0000
0000
ENDCHAR
STARTCHAR 2636
ENCODING 9782
SWIDTH 960 0
DWIDTH 10 0
BBX 10 10 0 -2
BITMAP
0000
3B80
1100
0A00
0400
0A00
1100
3B80
0000
0000
ENDCHAR
STARTCHAR 2637
ENCODING 9783
SWIDTH 960 0
DWIDTH 10 0
BBX 10 10 0 -2
BITMAP
0000
0E00
2480
5540
1500
0E00
0400
0E00
0000
0000
ENDCHAR
STARTCHAR 2638
ENCODING 9784
SWIDTH 960 0
DWIDTH 10 0
BBX 10 10 0 -2
BITMAP
0000
0E00
1100
2080
2080
1100
2A80
3B80
0000
0000
ENDCHAR
STARTCHAR 2641
ENCODING 9793
SWIDTH 960 0
DWIDTH 10 0
BBX 10 10 0 -2
BITMAP
0000
0000
0000
0D00
1300
2200
2400
1B00
0000
0000
ENDCHAR
STARTCHAR 2642
ENCODING 9794
SWIDTH 960 0
DWIDTH 10 0
BBX 10 10 0 -2
BITMAP
0000
0600
0900
0900
0A00
1100
1900
1600
1000
1000
ENDCHAR
STARTCHAR 2643
ENCODING 9795
SWIDTH 960 0
DWIDTH 10 0
BBX 10 10 0 -2
BITMAP
0000
0000
0000
1900
2600
0400
0400
0800
0800
0000
ENDCHAR
STARTCHAR 2644
ENCODING 9796
SWIDTH 960 0
DWIDTH 10 0
BBX 10 10 0 -2
BITMAP
0000
0600
0900
0400
0A00
1200
1200
0C00
0000
0000
ENDCHAR
STARTCHAR 2645
ENCODING 9797
SWIDTH 960 0
DWIDTH 10 0
BBX 10 10 0 -2
BITMAP
0000
0000
0000
0600
0900
0C00
1100
0E00
0000
0000
ENDCHAR
STARTCHAR 2646
ENCODING 9798
SWIDTH 960 0
DWIDTH 10 0
BBX 10 10 0 -2
BITMAP
0000
0400
0F00
0400
0800
1000
1000
0C00
0200
0C00
ENDCHAR
STARTCHAR 2647
ENCODING 9799
SWIDTH 960 0
DWIDTH 10 0
BBX 10 10 0 -2
BITMAP
0000
0000
0000
1A00
2D00
0900
1100
1200
0200
0200
ENDCHAR
STARTCHAR 2648
ENCODING 9800
SWIDTH 960 0
DWIDTH 10 0
BBX 10 10 0 -2
BITMAP
0000
0600
0900
0900
1F00
1200
1200
0C00
0000
0000
ENDCHAR
STARTCHAR 2649
ENCODING 9801
SWIDTH 960 0
DWIDTH 10 0
BBX 10 10 0 -2
BITMAP
0000
0000
0000
0400
0400
0800
0A00
0400
0000
0000
ENDCHAR
STARTCHAR 264a
ENCODING 9802
SWIDTH 960 0
DWIDTH 10 0
BBX 10 10 0 -2
BITMAP
0000
0000
0000
0900
0A00
0C00
1500
1200
0000
0000
ENDCHAR
STARTCHAR 264b
ENCODING 9803
SWIDTH 960 0
DWIDTH 10 0
BBX 10 10 0 -2
BITMAP
0000
0C00
0200
0200
0600
0A00
0900
1100
0000
0000
ENDCHAR
STARTCHAR 264c
ENCODING 9804
SWIDTH 960 0
DWIDTH 10 0
BBX 10 10 0 -2
BITMAP
0000
0000
0000
0900
0900
1200
1200
2D80
2000
2000
ENDCHAR
STARTCHAR 264d
ENCODING 9805
SWIDTH 960 0
DWIDTH 10 0
BBX 10 10 0 -2
BITMAP
0000
0000
0000
1100
2900
0A00
0A00
1C00
0000
0000
ENDCHAR
STARTCHAR 264e
ENCODING 9806
SWIDTH 960 0
DWIDTH 10 0
BBX 10 10 0 -2
BITMAP
0000
0200
0700
0800
0E00
1000
1000
0E00
0200
0C00
ENDCHAR
STARTCHAR 264f
ENCODING 9807
SWIDTH 960 0
DWIDTH 10 0
BBX 10 10 0 -2
BITMAP
0000
0000
0000
0600
0900
1100
1200
0C00
0000
0000
ENDCHAR
STARTCHAR 2650
ENCODING 9808
SWIDTH 960 0
DWIDTH 10 0
BBX 10 10 0 -2
BITMAP
0000
0000
0000
1F80
2A00
0A00
1200
2180
0000
0000
ENDCHAR
STARTCHAR 2651
ENCODING 9809
SWIDTH 960 0
DWIDTH 10 0
BBX 10 10 0 -2
BITMAP
0000
0000
0000
0600
0900
0900
1900
1600
1000
1000
ENDCHAR
STARTCHAR 2652
ENCODING 9810
SWIDTH 960 0
DWIDTH 10 0
BBX 10 10 0 -2
BITMAP
0000
0000
0000
0F00
1200
2200
2400
1800
0000
0000
ENDCHAR
STARTCHAR 2653
ENCODING 9811
SWIDTH 960 0
DWIDTH 10 0
BBX 10 10 0 -2
BITMAP
0000
0000
0000
1F00
2400
0800
0800
0600
0000
0000
ENDCHAR
STARTCHAR 2654
ENCODING 9812
SWIDTH 960 0
DWIDTH 10 0
BBX 10 10 0 -2
BITMAP
0000
0000
0000
1200
2900
1100
1200
0C00
0000
0000
ENDCHAR
STARTCHAR 2655
ENCODING 9813
SWIDTH 960 0
DWIDTH 10 0
BBX 10 10 0 -2
BITMAP
0000
0200
0200
0E00
1500
1500
1500
0E00
0800
0800
ENDCHAR
STARTCHAR 2656
ENCODING 9814
SWIDTH 960 0
DWIDTH 10 0
BBX 10 10 0 -2
BITMAP
0000
0000
1880
0500
0600
0400
0400
0C00
1400
2300
ENDCHAR
STARTCHAR 2657
ENCODING 9815
SWIDTH 960 0
DWIDTH 10 0
BBX 10 10 0 -2
BITMAP
0000
0200
0200
1280
2A80
1480
1500
0E00
0400
0400
ENDCHAR
STARTCHAR 2658
ENCODING 9816
SWIDTH 960 0
DWIDTH 10 0
BBX 10 10 0 -2
BITMAP
0000
0000
0000
1100
2480
2480
2C80
1300
0000
0000
ENDCHAR
STARTCHAR 2721
ENCODING 10017
SWIDTH 960 0
DWIDTH 10 0
BBX 10 10 0 -2
BITMAP
0000
0400
0400
0A00
0A00
1F00
1100
3B80
0000
0000
ENDCHAR
STARTCHAR 2722
ENCODING 10018
SWIDTH 960 0
DWIDTH 10 0
BBX 10 10 0 -2
BITMAP
0000
3F00
1100
1000
1E00
1100
1100
3E00
0000
0000
ENDCHAR
STARTCHAR 2723
ENCODING 10019
SWIDTH 960 0
DWIDTH 10 0
BBX 10 10 0 -2
BITMAP
0000
3E00
1100
1100
1E00
1100
1100
3E00
0000
0000
ENDCHAR
STARTCHAR 2724
ENCODING 10020
SWIDTH 960 0
DWIDTH 10 0
BBX 10 10 0 -2
BITMAP
0000
3F00
1100
1000
1000
1000
1000
3800
0000
0000
ENDCHAR
STARTCHAR 2725
ENCODING 10021
SWIDTH 960 0
DWIDTH 10 0
BBX 10 10 0 -2
BITMAP
0000
1F80
0900
0900
0900
1100
1100
3F80
2080
0000
ENDCHAR
STARTCHAR 2726
ENCODING 10022
SWIDTH 960 0
DWIDTH 10 0
BBX 10 10 0 -2
BITMAP
0000
3F00
1100
1400
1C00
1400
1100
3F00
0000
0000
ENDCHAR
STARTCHAR 2727
ENCODING 10023
SWIDTH 960 0
DWIDTH 10 0
BBX 10 10 0 -2
BITMAP
1200
0000
3F00
1100
1C00
1000
1100
3F00
0000
0000
ENDCHAR
STARTCHAR 2728
ENCODING 10024
SWIDTH 960 0
DWIDTH 10 0
BBX 10 10 0 -2
BITMAP
0000
6EC0
5540
1500
0E00
1500
2480
6EC0
0000
0000
ENDCHAR
STARTCHAR 2729
ENCODING 10025
SWIDTH 960 0
DWIDTH 10 0
BBX 10 10 0 -2
BITMAP
0000
1E00
2100
0200
0C00
0200
2100
1E00
0000
0000
ENDCHAR
STARTCHAR 272a
ENCODING 10026
SWIDTH 960 0
DWIDTH 10 0
BBX 10 10 0 -2
BITMAP
0000
3B80
1100
1300
1500
1900
1100
3B80
0000
0000
ENDCHAR
STARTCHAR 272b
ENCODING 10027
SWIDTH 960 0
DWIDTH 10 0
BBX 10 10 0 -2
BITMAP
1100
0E00
3180
1300
1500
1900
1100
3B80
0000
0000
ENDCHAR
STARTCHAR 272c
ENCODING 10028
SWIDTH 960 0
DWIDTH 10 0
BBX 10 10 0 -2
BITMAP
0000
3980
1280
1200
1C00
1200
1100
3B80
0000
0000
ENDCHAR
STARTCHAR 272d
ENCODING 10029
SWIDTH 960 0
DWIDTH 10 0
BBX 10 10 0 -2
BITMAP
0000
1F80
0900
0900
0900
0900
2900
3380
0000
0000
ENDCHAR
STARTCHAR 272e
ENCODING 10030
SWIDTH 960 0
DWIDTH 10 0
BBX 10 10 0 -2
BITMAP
0000
71C0
3180
2A80
2A80
2480
2480
71C0
0000
0000
ENDCHAR
STARTCHAR 272f
ENCODING 10031
SWIDTH 960 0
DWIDTH 10 0
BBX 10 10 0 -2
BITMAP
0000
3B80
1100
1100
1F00
1100
1100
3B80
0000
0000
ENDCHAR
STARTCHAR 2730
ENCODING 10032
SWIDTH 960 0
DWIDTH 10 0
BBX 10 10 0 -2
BITMAP
0000
0E00
1100
2080
2080
2080
1100
0E00
0000
0000
ENDCHAR
STARTCHAR 2731
ENCODING 10033
SWIDTH 960 0
DWIDTH 10 0
BBX 10 10 0 -2
BITMAP
0000
3F80
1100
1100
1100
1100
1100
3B80
0000
0000
ENDCHAR
STARTCHAR 2732
ENCODING 10034
SWIDTH 960 0
DWIDTH 10 0
BBX 10 10 0 -2
BITMAP
0000
3E00
1100
1100
1E00
1000
1000
3800
0000
0000
ENDCHAR
STARTCHAR 2733
ENCODING 10035
SWIDTH 960 0
DWIDTH 10 0
BBX 10 10 0 -2
BITMAP
0000
0F00
1100
2000
2000
2000
1100
0E00
0000
0000
ENDCHAR
STARTCHAR 2734
ENCODING 10036
SWIDTH 960 0
DWIDTH 10 0
BBX 10 10 0 -2
BITMAP
0000
3F80
2480
0400
0400
0400
0400
0E00
0000
0000
ENDCHAR
STARTCHAR 2735
ENCODING 10037
SWIDTH 960 0
DWIDTH 10 0
BBX 10 10 0 -2
BITMAP
0000
3B80
1100
1100
0A00
0A00
2400
1800
0000
0000
ENDCHAR
STARTCHAR 2736
ENCODING 10038
SWIDTH 960 0
DWIDTH 10 0
BBX 10 10 0 -2
BITMAP
0000
0400
1F00
2480
2480
2480
1F00
0400
0000
0000
ENDCHAR
STARTCHAR 2737
ENCODING 10039
SWIDTH 960 0
DWIDTH 10 0
BBX 10 10 0 -2
BITMAP
0000
3B80
1100
0A00
0400
0A00
1100
3B80
0000
0000
ENDCHAR
STARTCHAR 2738
ENCODING 10040
SWIDTH 960 0
DWIDTH 10 0
BBX 10 10 0 -2
BITMAP
0000
3B80
1100
1100
1100
1100
1100
3F80
0080
0000
ENDCHAR
STARTCHAR 2739
ENCODING 10041
SWIDTH 960 0
DWIDTH 10 0
BBX 10 10 0 -2
BITMAP
0000
3B80
1100
1100
1300
0D00
0100
0380
0000
0000
ENDCHAR
STARTCHAR 273a
ENCODING 10042
SWIDTH 960 0
DWIDTH 10 0
BBX 10 10 0 -2
BITMAP
0000
6DC0
2480
2480
2480
2480
2480
7FC0
0000
0000
ENDCHAR
STARTCHAR 273b
ENCODING 10043
SWIDTH 960 0
DWIDTH 10 0
BBX 10 10 0 -2
BITMAP
0000
6DC0
2480
2480
2480
2480
2480
7FC0
0040
0000
ENDCHAR
STARTCHAR 273c
ENCODING 10044
SWIDTH 960 0
DWIDTH 10 0
BBX 10 10 0 -2
BITMAP
0000
3800
2800
0800
0F00
0880
0880
1F00
0000
0000
ENDCHAR
STARTCHAR 273d
ENCODING 10045
SWIDTH 960 0
DWIDTH 10 0
BBX 10 10 0 -2
BITMAP
0000
71C0
2080
2080
3C80
2280
2280
7DC0
0000
0000
ENDCHAR
STARTCHAR 273e
ENCODING 10046
SWIDTH 960 0
DWIDTH 10 0
BBX 10 10 0 -2
BITMAP
0000
3800
1000
1000
1E00
1100
1100
3E00
0000
0000
ENDCHAR
STARTCHAR 273f
ENCODING 10047
SWIDTH 960 0
DWIDTH 10 0
BBX 10 10 0 -2
BITMAP
0000
1C00
2200
0100
0F00
0100
2200
1C00
0000
0000
ENDCHAR
STARTCHAR 2740
ENCODING 10048
SWIDTH 960 0
DWIDTH 10 0
BBX 10 10 0 -2
BITMAP
0000
7380
2440
2440
3C40
2440
2440
7380
0000
0000
ENDCHAR
STARTCHAR 2741
ENCODING 10049
SWIDTH 960 0
DWIDTH 10 0
BBX 10 10 0 -2
BITMAP
0000
1F00
2200
2200
1E00
0A00
1200
2700
0000
0000
ENDCHAR
STARTCHAR 2751
ENCODING 10065
SWIDTH 960 0
DWIDTH 10 0
BBX 10 10 0 -2
BITMAP
0000
0000
0000
1C00
0200
1E00
2200
1D00
0000
0000
ENDCHAR
STARTCHAR 2752
ENCODING 10066
SWIDTH 960 0
DWIDTH 10 0
BBX 10 10 0 -2
BITMAP
0100
0E00
1000
1E00
1100
1100
1100
0E00
0000
0000
ENDCHAR
STARTCHAR 2753
ENCODING 10067
SWIDTH 960 0
DWIDTH 10 0
BBX 10 10 0 -2
BITMAP
0000
0000
0000
1E00
0900
0E00
0900
1E00
0000
0000
ENDCHAR
STARTCHAR 2754
ENCODING 10068
SWIDTH 960 0
DWIDTH 10 0
BBX 10 10 0 -2
BITMAP
0000
0000
0000
1F00
0900
0800
0800
1C00
0000
0000
ENDCHAR
STARTCHAR 2755
ENCODING 10069
SWIDTH 960 0
DWIDTH 10 0
BBX 10 10 0 -2
BITMAP
0000
0000
0000
1F00
0A00
0A00
1200
3F00
2100
0000
ENDCHAR
STARTCHAR 2756
ENCODING 10070
SWIDTH 960 0
DWIDTH 10 0
BBX 10 10 0 -2
BITMAP
0000
0000
0000
0E00
1100
1F00
1000
0E00
0000
0000
ENDCHAR
STARTCHAR 2757
ENCODING 10071
SWIDTH 960 0
DWIDTH 10 0
BBX 10 10 0 -2
BITMAP
0000
0A00
0000
0E00
1100
1F00
1000
0E00
0000
0000
ENDCHAR
STARTCHAR 2758
ENCODING 10072
SWIDTH 960 0
DWIDTH 10 0
BBX 10 10 0 -2
BITMAP
0000
0000
0000
3580
1500
0E00
1500
3580
0000
0000
ENDCHAR
STARTCHAR 2759
ENCODING 10073
SWIDTH 960 0
DWIDTH 10 0
BBX 10 10 0 -2
BITMAP
0000
0000
0000
0E00
1100
0600
1100
0E00
0000
0000
ENDCHAR
STARTCHAR 275a
ENCODING 10074
SWIDTH 960 0
DWIDTH 10 0
BBX 10 10 0 -2
BITMAP
0000
0000
0000
3980
1300
1500
1900
3380
0000
0000
ENDCHAR
STARTCHAR 275b
ENCODING 10075
SWIDTH 960 0
DWIDTH 10 0
BBX 10 10 0 -2
BITMAP
0000
0A00
0400
3180
1300
1500
1900
3380
0000
0000
ENDCHAR
STARTCHAR 275c
ENCODING 10076
SWIDTH 960 0
DWIDTH 10 0
BBX 10 10 0 -2
BITMAP
0000
0000
0000
3B00
1500
1C00
1200
3B00
0000
0000
ENDCHAR
STARTCHAR 275d
ENCODING 10077
SWIDTH 960 0
DWIDTH 10 0
BBX 10 10 0 -2
BITMAP
0000
0000
0000
1F00
0A00
0A00
2A00
3200
0000
0000
ENDCHAR
STARTCHAR 275e
ENCODING 10078
SWIDTH 960 0
DWIDTH 10 0
BBX 10 10 0 -2
BITMAP
0000
0000
0000
3180
1B00
1500
1500
3180
0000
0000
ENDCHAR
STARTCHAR 275f
ENCODING 10079
SWIDTH 960 0
DWIDTH 10 0
BBX 10 10 0 -2
BITMAP
0000
0000
0000
3B80
1100
1F00
1100
3B80
0000
0000
ENDCHAR
STARTCHAR 2760
ENCODING 10080
SWIDTH 960 0
DWIDTH 10 0
BBX 10 10 0 -2
BITMAP
0000
0000
0000
0E00
1100
1100
1100
0E00
0000
0000
ENDCHAR
STARTCHAR 2761
ENCODING 10081
SWIDTH 960 0
DWIDTH 10 0
BBX 10 10 0 -2
BITMAP
0000
0000
0000
3F80
1100
1100
1100
3B80
0000
0000
ENDCHAR
STARTCHAR 2762
ENCODING 10082
SWIDTH 960 0
DWIDTH 10 0
BBX 10 10 0 -2
BITMAP
0000
0000
0000
3600
1900
1100
1900
1600
1000
3800
ENDCHAR
STARTCHAR 2763
ENCODING 10083
SWIDTH 960 0
DWIDTH 10 0
BBX 10 10 0 -2
BITMAP
0000
0000
0000
0E00
1100
1000
1100
0E00
0000
0000
ENDCHAR
STARTCHAR 2764
ENCODING 10084
SWIDTH 960 0
DWIDTH 10 0
BBX 10 10 0 -2
BITMAP
0000
0000
0000
1F00
1500
0400
0400
0E00
0000
0000
ENDCHAR
STARTCHAR 2765
ENCODING 10085
SWIDTH 960 0
DWIDTH 10 0
BBX 10 10 0 -2
BITMAP
0000
0000
0000
3B80
1100
0A00
0A00
0400
2400
1800
ENDCHAR
STARTCHAR 2766
ENCODING 10086
SWIDTH 960 0
DWIDTH 10 0
BBX 10 10 0 -2
BITMAP
0000
0E00
0400
1500
2E80
2480
2E80
1500
0400
0E00
ENDCHAR
STARTCHAR 2767
ENCODING 10087
SWIDTH 960 0
DWIDTH 10 0
BBX 10 10 0 -2
BITMAP
0000
0000
0000
3B80
0A00
0400
0A00
3B80
0000
0000
ENDCHAR
STARTCHAR 2768
ENCODING 10088
SWIDTH 960 0
DWIDTH 10 0
BBX 10 10 0 -2
BITMAP
0000
0000
0000
3B80
1100
1100
1100
3F80
0080
0000
ENDCHAR
STARTCHAR 2769
ENCODING 10089
SWIDTH 960 0
DWIDTH 10 0
BBX 10 10 0 -2
BITMAP
0000
0000
0000
3B80
1100
1300
0D00
0380
0000
0000
ENDCHAR
STARTCHAR 276a
ENCODING 10090
SWIDTH 960 0
DWIDTH 10 0
BBX 10 10 0 -2
BITMAP
0000
0000
0000
6DC0
2480
2480
2480
7FC0
0000
0000
ENDCHAR
STARTCHAR 276b
ENCODING 10091
SWIDTH 960 0
DWIDTH 10 0
BBX 10 10 0 -2
BITMAP
0000
0000
0000
6DC0
2480
2480
2480
7FC0
0040
0000
ENDCHAR
STARTCHAR 276c
ENCODING 10092
SWIDTH 960 0
DWIDTH 10 0
BBX 10 10 0 -2
BITMAP
0000
0000
0000
3800
0800
0E00
0900
0E00
0000
0000
ENDCHAR
STARTCHAR 276d
ENCODING 10093
SWIDTH 960 0
DWIDTH 10 0
BBX 10 10 0 -2
BITMAP
0000
0000
0000
2100
2100
3900
2500
3900
0000
0000
ENDCHAR
STARTCHAR 276e
ENCODING 10094
SWIDTH 960 0
DWIDTH 10 0
BBX 10 10 0 -2
BITMAP
0000
0000
0000
1000
1000
1C00
1200
1C00
0000
0000
ENDCHAR
STARTCHAR 276f
ENCODING 10095
SWIDTH 960 0
DWIDTH 10 0
BBX 10 10 0 -2
BITMAP
0000
0000
0000
0E00
1100
0700
1100
0E00
0000
0000
ENDCHAR
STARTCHAR 2770
ENCODING 10096
SWIDTH 960 0
DWIDTH 10 0
BBX 10 10 0 -2
BITMAP
0000
0000
0000
2600
2900
3900
2900
2600
0000
0000
ENDCHAR
STARTCHAR 2771
ENCODING 10097
SWIDTH 960 0
DWIDTH 10 0
BBX 10 10 0 -2
BITMAP
0000
0000
0000
1F00
2200
1E00
0A00
3700
0000
0000
ENDCHAR
STARTCHAR 2821
ENCODING 10273
SWIDTH 960 0
DWIDTH 10 0
BBX 10 10 0 -2
BITMAP
0000
0000
0000
0000
FFC0
0000
0000
0000
0000
0000
ENDCHAR
STARTCHAR 2822
ENCODING 10274
SWIDTH 960 0
DWIDTH 10 0
BBX 10 10 0 -2
BITMAP
0400
0400
0400
0400
0400
0400
0400
0400
0400
0400
ENDCHAR
STARTCHAR 2823
ENCODING 10275
SWIDTH 960 0
DWIDTH 10 0
BBX 10 10 0 -2
BITMAP
0000
0000
0000
0000
07C0
0400
0400
0400
0400
0400
ENDCHAR
STARTCHAR 2824
ENCODING 10276
SWIDTH 960 0
DWIDTH 10 0
BBX 10 10 0 -2
BITMAP
0000
0000
0000
0000
FC00
0400
0400
0400
0400
0400
ENDCHAR
STARTCHAR 2825
ENCODING 10277
SWIDTH 960 0
DWIDTH 10 0
BBX 10 10 0 -2
BITMAP
0400
0400
0400
0400
FC00
0000
0000
0000
0000
0000
ENDCHAR
STARTCHAR 2826
ENCODING 10278
SWIDTH 960 0
DWIDTH 10 0
BBX 10 10 0 -2
BITMAP
0400
0400
0400
0400
07C0
0000
0000
0000
0000
0000
ENDCHAR
STARTCHAR 2827
ENCODING 10279
SWIDTH 960 0
DWIDTH 10 0
BBX 10 10 0 -2
BITMAP
0400
0400
0400
0400
07C0
0400
0400
0400
0400
0400
ENDCHAR
STARTCHAR 2828
ENCODING 10280
SWIDTH 960 0
DWIDTH 10 0
BBX 10 10 0 -2
BITMAP
0000
0000
0000
0000
FFC0
0400
0400
0400
0400
0400
ENDCHAR
STARTCHAR 2829
ENCODING 10281
SWIDTH 960 0
DWIDTH 10 0
BBX 10 10 0 -2
BITMAP
0400
0400
0400
0400
FC00
0400
0400
0400
0400
0400
ENDCHAR
STARTCHAR 282a
ENCODING 10282
SWIDTH 960 0
DWIDTH 10 0
BBX 10 10 0 -2
BITMAP
0400
0400
0400
0400
FFC0
0000
0000
0000
0000
0000
ENDCHAR
STARTCHAR 282b
ENCODING 10283
SWIDTH 960 0
DWIDTH 10 0
BBX 10 10 0 -2
BITMAP
0400
0400
0400
0400
FFC0
0400
0400
0400
0400
0400
ENDCHAR
STARTCHAR 282c
ENCODING 10284
SWIDTH 960 0
DWIDTH 10 0
BBX 10 10 0 -2
BITMAP
0000
0000
0000
0000
FFC0
FFC0
0000
0000
0000
0000
ENDCHAR
STARTCHAR 282d
ENCODING 10285
SWIDTH 960 0
DWIDTH 10 0
BBX 10 10 0 -2
BITMAP
0C00
0C00
0C00
0C00
0C00
0C00
0C00
0C00
0C00
0C00
ENDCHAR
STARTCHAR 282e
ENCODING 10286
SWIDTH 960 0
DWIDTH 10 0
BBX 10 10 0 -2
BITMAP
0000
0000
0000
0000
0FC0
0FC0
0C00
0C00
0C00
0C00
ENDCHAR
STARTCHAR 282f
ENCODING 10287
SWIDTH 960 0
DWIDTH 10 0
BBX 10 10 0 -2
BITMAP
0000
0000
0000
0000
FC00
FC00
0C00
0C00
0C00
0C00
ENDCHAR
STARTCHAR 2830
ENCODING 10288
SWIDTH 960 0
DWIDTH 10 0
BBX 10 10 0 -2
BITMAP
0C00
0C00
0C00
0C00
FC00
FC00
0000
0000
0000
0000
ENDCHAR
STARTCHAR 2831
ENCODING 10289
SWIDTH 960 0
DWIDTH 10 0
BBX 10 10 0 -2
BITMAP
0C00
0C00
0C00
0C00
0FC0
0FC0
0000
0000
0000
0000
ENDCHAR
STARTCHAR 2832
ENCODING 10290
SWIDTH 960 0
DWIDTH 10 0
BBX 10 10 0 -2
BITMAP
0C00
0C00
0C00
0C00
0FC0
0FC0
0C00
0C00
0C00
0C00
ENDCHAR
STARTCHAR 2833
ENCODING 10291
SWIDTH 960 0
DWIDTH 10 0
BBX 10 10 0 -2
BITMAP
0000
0000
0000
0000
FFC0
FFC0
0C00
0C00
0C00
0C00
ENDCHAR
STARTCHAR 2834
ENCODING 10292
SWIDTH 960 0
DWIDTH 10 0
BBX 10 10 0 -2
BITMAP
0C00
0C00
0C00
0C00
FC00
FC00
0C00
0C00
0C00
0C00
ENDCHAR
STARTCHAR 2835
ENCODING 10293
SWIDTH 960 0
DWIDTH 10 0
BBX 10 10 0 -2
BITMAP
0C00
0C00
0C00
0C00
FFC0
FFC0
0000
0000
0000
0000
ENDCHAR
STARTCHAR 2836
ENCODING 10294
SWIDTH 960 0
DWIDTH 10 0
BBX 10 10 0 -2
BITMAP
0C00
0C00
0C00
0C00
FFC0
FFC0
0C00
0C00
0C00
0C00
ENDCHAR
STARTCHAR 2837
ENCODING 10295
SWIDTH 960 0
DWIDTH 10 0
BBX 10 10 0 -2
BITMAP
0C00
0C00
0C00
0C00
0FC0
0C00
0C00
0C00
0C00
0C00
ENDCHAR
STARTCHAR 2838
ENCODING 10296
SWIDTH 960 0
DWIDTH 10 0
BBX 10 10 0 -2
BITMAP
0000
0000
0000
0000
FFC0
FFC0
0400
0400
0400
0400
ENDCHAR
STARTCHAR 2839
ENCODING 10297
SWIDTH 960 0
DWIDTH 10 0
BBX 10 10 0 -2
BITMAP
0C00
0C00
0C00
0C00
FC00
0C00
0C00
0C00
0C00
0C00
ENDCHAR
STARTCHAR 283a
ENCODING 10298
SWIDTH 960 0
DWIDTH 10 0
BBX 10 10 0 -2
BITMAP
0400
0400
0400
0400
FFC0
FFC0
0000
0000
0000
0000
ENDCHAR
STARTCHAR 283b
ENCODING 10299
SWIDTH 960 0
DWIDTH 10 0
BBX 10 10 0 -2
BITMAP
0400
0400
0400
0400
FFC0
FFC0
0400
0400
0400
0400
ENDCHAR
STARTCHAR 283c
ENCODING 10300
SWIDTH 960 0
DWIDTH 10 0
BBX 10 10 0 -2
BITMAP
0400
0400
0400
0400
07C0
07C0
0400
0400
0400
0400
ENDCHAR
STARTCHAR 283d
ENCODING 10301
SWIDTH 960 0
DWIDTH 10 0
BBX 10 10 0 -2
BITMAP
0000
0000
0000
0000
FFC0
0C00
0C00
0C00
0C00
0C00
ENDCHAR
STARTCHAR 283e
ENCODING 10302
SWIDTH 960 0
DWIDTH 10 0
BBX 10 10 0 -2
BITMAP
0400
0400
0400
0400
FC00
FC00
0400
0400
0400
0400
ENDCHAR
STARTCHAR 283f
ENCODING 10303
SWIDTH 960 0
DWIDTH 10 0
BBX 10 10 0 -2
BITMAP
0C00
0C00
0C00
0C00
FFC0
0000
0000
0000
0000
0000
ENDCHAR
STARTCHAR 2840
ENCODING 10304
SWIDTH 960 0
DWIDTH 10 0
BBX 10 10 0 -2
BITMAP
0C00
0C00
0C00
0C00
FFC0
0C00
0C00
0C00
0C00
0C00
ENDCHAR
STARTCHAR 3021
ENCODING 12321
SWIDTH 960 0
DWIDTH 10 0
BBX 10 10 0 -2
BITMAP
7FC0
0A00
0A00
3F80
2A80
3F80
0A00
0A00
7FC0
0000
ENDCHAR
STARTCHAR 3022
ENCODING 12322
SWIDTH 960 0
DWIDTH 10 0
BBX 10 10 0 -2
BITMAP
1FC0
0500
7500
5FC0
5540
5FC0
7500
0500
1FC0
0000
ENDCHAR
STARTCHAR 3023
ENCODING 12323
SWIDTH 960 0
DWIDTH 10 0
BBX 10 10 0 -2
BITMAP
2100
27C0
F100
57C0
5000
5100
27C0
3100
57C0
0000
ENDCHAR
STARTCHAR 3024
ENCODING 12324
SWIDTH 960 0
DWIDTH 10 0
BBX 10 10 0 -2
BITMAP
7FC0
5080
6E80
5A80
5A80
5E80
6080
4080
4180
0000
ENDCHAR
STARTCHAR 3025
ENCODING 12325
SWIDTH 960 0
DWIDTH 10 0
BBX 10 10 0 -2
BITMAP
0400
7FC0
0000
1F00
1100
1F00
0A80
3100
5CC0
0000
ENDCHAR
STARTCHAR 3026
ENCODING 12326
SWIDTH 960 0
DWIDTH 10 0
BBX 10 10 0 -2
BITMAP
3F80
1500
7FC0
5540
0A00
1F00
3100
0E00
73C0
0000
ENDCHAR
STARTCHAR 3027
ENCODING 12327
SWIDTH 960 0
DWIDTH 10 0
BBX 10 10 0 -2
BITMAP
2100
2240
77C0
2200
37C0
6100
27C0
2280
6440
0000
ENDCHAR
STARTCHAR 3028
ENCODING 12328
SWIDTH 960 0
DWIDTH 10 0
BBX 10 10 0 -2
BITMAP
2300
2480
F840
5780
5000
5780
2480
3480
5780
0000
ENDCHAR
STARTCHAR 3029
ENCODING 12329
SWIDTH 960 0
DWIDTH 10 0
BBX 10 10 0 -2
BITMAP
4380
2C80
0300
6CC0
2780
2200
2FC0
2200
5FC0
0000
ENDCHAR
STARTCHAR 302a
ENCODING 12330
SWIDTH 960 0
DWIDTH 10 0
BBX 10 10 0 -2
BITMAP
1100
7FC0
1500
1B00
6EC0
0400
3F80
0A00
71C0
0000
ENDCHAR
STARTCHAR 302b
ENCODING 12331
SWIDTH 960 0
DWIDTH 10 0
BBX 10 10 0 -2
BITMAP
1100
7FC0
1100
7FC0
0A00
3F80
3380
2080
3F80
0000
ENDCHAR
STARTCHAR 302c
ENCODING 12332
SWIDTH 960 0
DWIDTH 10 0
BBX 10 10 0 -2
BITMAP
1300
6500
2F80
7A80
2FC0
7A40
6FC0
2200
23C0
0000
ENDCHAR
STARTCHAR 302d
ENCODING 12333
SWIDTH 960 0
DWIDTH 10 0
BBX 10 10 0 -2
BITMAP
7FC0
0A00
3F80
3F80
0A00
7FC0
0400
5240
5F40
0000
ENDCHAR
STARTCHAR 302e
ENCODING 12334
SWIDTH 960 0
DWIDTH 10 0
BBX 10 10 0 -2
BITMAP
2FC0
2840
7FC0
2A80
3FC0
6940
2B80
2900
77C0
0000
ENDCHAR
STARTCHAR 302f
ENCODING 12335
SWIDTH 960 0
DWIDTH 10 0
BBX 10 10 0 -2
BITMAP
4FC0
2840
0FC0
4A80
2FC0
0940
2B80
2900
57C0
0000
ENDCHAR
STARTCHAR 3030
ENCODING 12336
SWIDTH 960 0
DWIDTH 10 0
BBX 10 10 0 -2
BITMAP
2000
2380
7A80
2B80
2A80
2A80
2B80
4840
4FC0
0000
ENDCHAR
STARTCHAR 3031
ENCODING 12337
SWIDTH 960 0
DWIDTH 10 0
BBX 10 10 0 -2
BITMAP
1100
7FC0
3F00
0900
7FC0
1100
3F80
7FC0
0200
0000
ENDCHAR
STARTCHAR 3032
ENCODING 12338
SWIDTH 960 0
DWIDTH 10 0
BBX 10 10 0 -2
BITMAP
1100
7FC0
1100
3F80
0000
3F80
2080
3F80
4000
0000
ENDCHAR
STARTCHAR 3033
ENCODING 12339
SWIDTH 960 0
DWIDTH 10 0
BBX 10 10 0 -2
BITMAP
3280
5780
2200
7FC0
5300
7480
0B40
5080
5300
0000
ENDCHAR
STARTCHAR 3034
ENCODING 12340
SWIDTH 960 0
DWIDTH 10 0
BBX 10 10 0 -2
BITMAP
1100
17C0
7A80
1280
37C0
3900
57C0
1100
1100
0000
ENDCHAR
STARTCHAR 3035
ENCODING 12341
SWIDTH 960 0
DWIDTH 10 0
BBX 10 10 0 -2
BITMAP
3FC0
2000
2200
2200
2F80
2200
2200
4200
5FC0
0000
ENDCHAR
STARTCHAR 3036
ENCODING 12342
SWIDTH 960 0
DWIDTH 10 0
BBX 10 10 0 -2
BITMAP
2100
7280
2440
7280
5080
7280
2080
77C0
2080
0000
ENDCHAR
STARTCHAR 3037
ENCODING 12343
SWIDTH 960 0
DWIDTH 10 0
BBX 10 10 0 -2
BITMAP
2F80
2480
7480
25C0
3440
6440
2680
2900
6AC0
0000
ENDCHAR
STARTCHAR 3038
ENCODING 12344
SWIDTH 960 0
DWIDTH 10 0
BBX 10 10 0 -2
BITMAP
0400
7FC0
4040
3B80
2A80
5A80
0B80
1240
63C0
0000
ENDCHAR
STARTCHAR 3039
ENCODING 12345
SWIDTH 960 0
DWIDTH 10 0
BBX 10 10 0 -2
BITMAP
2000
2780
F480
5780
5480
5780
2480
3480
5FC0
0000
ENDCHAR
STARTCHAR 303a
ENCODING 12346
SWIDTH 960 0
DWIDTH 10 0
BBX 10 10 0 -2
BITMAP
2100
2100
77C0
5200
5200
7200
2200
3200
53C0
0000
ENDCHAR
STARTCHAR 303b
ENCODING 12347
SWIDTH 960 0
DWIDTH 10 0
BBX 10 10 0 -2
BITMAP
1080
2900
7A40
2BC0
3800
3BC0
2240
3A40
23C0
0000
ENDCHAR
STARTCHAR 303c
ENCODING 12348
SWIDTH 960 0
DWIDTH 10 0
BBX 10 10 0 -2
BITMAP
1200
23C0
5440
2F40
7540
1740
5D40
5740
1180
0000
ENDCHAR
STARTCHAR 303d
ENCODING 12349
SWIDTH 960 0
DWIDTH 10 0
BBX 10 10 0 -2
BITMAP
1100
27C0
5100
27C0
76C0
1380
5680
5100
16C0
0000
ENDCHAR
STARTCHAR 303e
ENCODING 12350
SWIDTH 960 0
DWIDTH 10 0
BBX 10 10 0 -2
BITMAP
3100
5100
21C0
7100
5100
77C0
0440
5440
57C0
0000
ENDCHAR
STARTCHAR 303f
ENCODING 12351
SWIDTH 960 0
DWIDTH 10 0
BBX 10 10 0 -2
BITMAP
0280
0240
7FC0
0200
3A80
2A80
3900
0340
74C0
0000
ENDCHAR
STARTCHAR 3040
ENCODING 12352
SWIDTH 960 0
DWIDTH 10 0
BBX 10 10 0 -2
BITMAP
7FC0
0A00
3F80
2A80
3F80
1500
7FC0
1500
64C0
0000
ENDCHAR
STARTCHAR 3041
ENCODING 12353
SWIDTH 960 0
DWIDTH 10 0
BBX 10 10 0 -2
BITMAP
2300
2480
7840
1780
2800
7780
2C80
2480
2780
0000
ENDCHAR
STARTCHAR 3042
ENCODING 12354
SWIDTH 960 0
DWIDTH 10 0
BBX 10 10 0 -2
BITMAP
0400
7FC0
4040
0800
7FC0
1100
3200
0E00
71C0
0000
ENDCHAR
STARTCHAR 3043
ENCODING 12355
SWIDTH 960 0
DWIDTH 10 0
BBX 10 10 0 -2
BITMAP
0200
3FC0
2200
3FC0
2F80
3AC0
2F80
2240
43C0
0000
ENDCHAR
STARTCHAR 3044
ENCODING 12356
SWIDTH 960 0
DWIDTH 10 0
BBX 10 10 0 -2
BITMAP
2200
2FC0
7840
2200
3FC0
6480
2500
2380
6C40
0000
ENDCHAR
STARTCHAR 3045
ENCODING 12357
SWIDTH 960 0
DWIDTH 10 0
BBX 10 10 0 -2
BITMAP
0100
77C0
5280
57C0
7000
5380
5280
7380
0380
0000
ENDCHAR
STARTCHAR 3046
ENCODING 12358
SWIDTH 960 0
DWIDTH 10 0
BBX 10 10 0 -2
BITMAP
0400
7FC0
4840
3F80
0A00
1D00
7FC0
1500
64C0
0000
ENDCHAR
STARTCHAR 3047
ENCODING 12359
SWIDTH 960 0
DWIDTH 10 0
BBX 10 10 0 -2
BITMAP
7BC0
4A40
7BC0
4440
5F40
4A40
5F40
4A40
4EC0
0000
ENDCHAR
STARTCHAR 3048
ENCODING 12360
SWIDTH 960 0
DWIDTH 10 0
BBX 10 10 0 -2
BITMAP
5100
FFC0
5440
7200
57C0
7280
2280
7180
2640
0000
ENDCHAR
STARTCHAR 3049
ENCODING 12361
SWIDTH 960 0
DWIDTH 10 0
BBX 10 10 0 -2
BITMAP
0400
7FC0
0E00
1500
64C0
0000
3F80
2080
3F80
0000
ENDCHAR
STARTCHAR 304a
ENCODING 12362
SWIDTH 960 0
DWIDTH 10 0
BBX 10 10 0 -2
BITMAP
2080
2880
2480
2080
2080
2900
3100
6280
0C40
0000
ENDCHAR
STARTCHAR 304b
ENCODING 12363
SWIDTH 960 0
DWIDTH 10 0
BBX 10 10 0 -2
BITMAP
1780
1280
2FC0
2280
6280
2780
2200
2200
2400
0000
ENDCHAR
STARTCHAR 304c
ENCODING 12364
SWIDTH 960 0
DWIDTH 10 0
BBX 10 10 0 -2
BITMAP
1200
1200
2FC0
2480
6480
2480
2480
2480
2FC0
0000
ENDCHAR
STARTCHAR 304d
ENCODING 12365
SWIDTH 960 0
DWIDTH 10 0
BBX 10 10 0 -2
BITMAP
1200
1200
2FC0
2400
6640
2D80
3500
2680
2C40
0000
ENDCHAR
STARTCHAR 304e
ENCODING 12366
SWIDTH 960 0
DWIDTH 10 0
BBX 10 10 0 -2
BITMAP
1400
1F80
2480
3FC0
6500
2F80
2A00
3FC0
2200
0000
ENDCHAR
STARTCHAR 304f
ENCODING 12367
SWIDTH 960 0
DWIDTH 10 0
BBX 10 10 0 -2
BITMAP
7FC0
4040
4A40
5F40
4A40
5F40
4A40
5240
7FC0
0000
ENDCHAR
STARTCHAR 3050
ENCODING 12368
SWIDTH 960 0
DWIDTH 10 0
BBX 10 10 0 -2
BITMAP
0400
7FC0
0480
3F80
2400
3FC0
0440
0A80
71C0
0000
ENDCHAR
STARTCHAR 3051
ENCODING 12369
SWIDTH 960 0
DWIDTH 10 0
BBX 10 10 0 -2
BITMAP
3F80
0400
7FC0
1500
64C0
0800
7FC0
1200
7DC0
0000
ENDCHAR
STARTCHAR 3052
ENCODING 12370
SWIDTH 960 0
DWIDTH 10 0
BBX 10 10 0 -2
BITMAP
0280
3FC0
2200
3E40
2A40
3D40
3480
2880
5540
0000
ENDCHAR
STARTCHAR 3053
ENCODING 12371
SWIDTH 960 0
DWIDTH 10 0
BBX 10 10 0 -2
BITMAP
7880
7880
47C0
7880
4280
7A80
5080
7880
5180
0000
ENDCHAR
STARTCHAR 3054
ENCODING 12372
SWIDTH 960 0
DWIDTH 10 0
BBX 10 10 0 -2
BITMAP
2280
2500
7FC0
7500
27C0
2500
27C0
2500
27C0
0000
ENDCHAR
STARTCHAR 3055
ENCODING 12373
SWIDTH 960 0
DWIDTH 10 0
BBX 10 10 0 -2
BITMAP
0400
3F80
0A00
7FC0
1100
1F00
0400
5240
5F40
0000
ENDCHAR
STARTCHAR 3056
ENCODING 12374
SWIDTH 960 0
DWIDTH 10 0
BBX 10 10 0 -2
BITMAP
7880
47C0
7880
5280
7880
5580
0200
5040
5F40
0000
ENDCHAR
STARTCHAR 3057
ENCODING 12375
SWIDTH 960 0
DWIDTH 10 0
BBX 10 10 0 -2
BITMAP
3F80
2080
3F80
2080
3F80
1000
3FC0
4A40
14C0
0000
ENDCHAR
STARTCHAR 3058
ENCODING 12376
SWIDTH 960 0
DWIDTH 10 0
BBX 10 10 0 -2
BITMAP
2200
2F80
7500
2880
7FC0
7080
6680
2680
2180
0000
ENDCHAR
STARTCHAR 3059
ENCODING 12377
SWIDTH 960 0
DWIDTH 10 0
BBX 10 10 0 -2
BITMAP
1200
0A00
3F00
0500
0F80
1080
3FC0
4040
2AC0
0000
ENDCHAR
STARTCHAR 305a
ENCODING 12378
SWIDTH 960 0
DWIDTH 10 0
BBX 10 10 0 -2
BITMAP
3F80
2480
3F80
2480
7FC0
2800
24C0
3B00
60C0
0000
ENDCHAR
STARTCHAR 305b
ENCODING 12379
SWIDTH 960 0
DWIDTH 10 0
BBX 10 10 0 -2
BITMAP
3F80
2480
3F80
2480
7FC0
1100
7FC0
1100
60C0
0000
ENDCHAR
STARTCHAR 305c
ENCODING 12380
SWIDTH 960 0
DWIDTH 10 0
BBX 10 10 0 -2
BITMAP
1B80
7480
1300
7A00
15C0
3240
3980
5100
1600
0000
ENDCHAR
STARTCHAR 305d
ENCODING 12381
SWIDTH 960 0
DWIDTH 10 0
BBX 10 10 0 -2
BITMAP
1280
2500
57C0
2D00
77C0
1500
57C0
5500
17C0
0000
ENDCHAR
STARTCHAR 305e
ENCODING 12382
SWIDTH 960 0
DWIDTH 10 0
BBX 10 10 0 -2
BITMAP
1200
2780
5280
2FC0
7480
1780
5500
5FC0
1100
0000
ENDCHAR
STARTCHAR 305f
ENCODING 12383
SWIDTH 960 0
DWIDTH 10 0
BBX 10 10 0 -2
BITMAP
7FC0
4440
7FC0
0000
3F80
2080
3F80
2080
2180
0000
ENDCHAR
STARTCHAR 3060
ENCODING 12384
SWIDTH 960 0
DWIDTH 10 0
BBX 10 10 0 -2
BITMAP
1100
7FC0
0E00
7FC0
3580
0800
7FC0
1600
79C0
0000
ENDCHAR
STARTCHAR 3061
ENCODING 12385
SWIDTH 960 0
DWIDTH 10 0
BBX 10 10 0 -2
BITMAP
0400
0400
7FC0
0C00
1480
3300
5200
1D00
70C0
0000
ENDCHAR
STARTCHAR 3062
ENCODING 12386
SWIDTH 960 0
DWIDTH 10 0
BBX 10 10 0 -2
BITMAP
77C0
0540
77C0
0000
77C0
0440
77C0
5440
74C0
0000
ENDCHAR
STARTCHAR 3063
ENCODING 12387
SWIDTH 960 0
DWIDTH 10 0
BBX 10 10 0 -2
BITMAP
4780
2280
0FC0
0300
6780
2500
2FC0
2100
5FC0
0000
ENDCHAR
STARTCHAR 3064
ENCODING 12388
SWIDTH 960 0
DWIDTH 10 0
BBX 10 10 0 -2
BITMAP
4200
2780
0680
0FC0
6480
2480
2780
2840
5FC0
0000
ENDCHAR
STARTCHAR 3065
ENCODING 12389
SWIDTH 960 0
DWIDTH 10 0
BBX 10 10 0 -2
BITMAP
7FC0
4800
4F80
5200
5FC0
4200
4500
58C0
7FC0
0000
ENDCHAR
STARTCHAR 3066
ENCODING 12390
SWIDTH 960 0
DWIDTH 10 0
BBX 10 10 0 -2
BITMAP
1200
1200
7F80
1200
1200
7F80
1200
2200
4200
0000
ENDCHAR
STARTCHAR 3067
ENCODING 12391
SWIDTH 960 0
DWIDTH 10 0
BBX 10 10 0 -2
BITMAP
0400
7FC0
0400
1900
0A80
0D00
3200
0D80
7040
0000
ENDCHAR
STARTCHAR 3068
ENCODING 12392
SWIDTH 960 0
DWIDTH 10 0
BBX 10 10 0 -2
BITMAP
2140
2100
7FC0
2100
2D40
2D40
3080
6D80
0240
0000
ENDCHAR
STARTCHAR 3069
ENCODING 12393
SWIDTH 960 0
DWIDTH 10 0
BBX 10 10 0 -2
BITMAP
0400
7FC0
1100
3F80
1F00
1100
1F00
1100
1300
0000
ENDCHAR
STARTCHAR 306a
ENCODING 12394
SWIDTH 960 0
DWIDTH 10 0
BBX 10 10 0 -2
BITMAP
1000
7BC0
2240
3B80
6A80
3A40
2A40
3B80
2A00
0000
ENDCHAR
STARTCHAR 306b
ENCODING 12395
SWIDTH 960 0
DWIDTH 10 0
BBX 10 10 0 -2
BITMAP
0340
7580
2340
7180
D7C0
5300
5540
7480
0140
0000
ENDCHAR
STARTCHAR 306c
ENCODING 12396
SWIDTH 960 0
DWIDTH 10 0
BBX 10 10 0 -2
BITMAP
0000
0000
0000
0080
7FC0
0000
0000
0000
0000
0000
ENDCHAR
STARTCHAR 306d
ENCODING 12397
SWIDTH 960 0
DWIDTH 10 0
BBX 10 10 0 -2
BITMAP
0400
7FC0
0400
7FC0
4040
1300
1C00
1080
1F80
0000
ENDCHAR
STARTCHAR 306e
ENCODING 12398
SWIDTH 960 0
DWIDTH 10 0
BBX 10 10 0 -2
BITMAP
4880
2500
1FC0
4880
1040
0000
2F80
2A80
5FC0
0000
ENDCHAR
STARTCHAR 306f
ENCODING 12399
SWIDTH 960 0
DWIDTH 10 0
BBX 10 10 0 -2
BITMAP
4300
2500
0F80
6A80
2F80
2640
29C0
2000
5FC0
0000
ENDCHAR
STARTCHAR 3070
ENCODING 12400
SWIDTH 960 0
DWIDTH 10 0
BBX 10 10 0 -2
BITMAP
18C0
7700
1540
7A80
15C0
3540
35C0
5540
15C0
0000
ENDCHAR
STARTCHAR 3071
ENCODING 12401
SWIDTH 960 0
DWIDTH 10 0
BBX 10 10 0 -2
BITMAP
1100
7FC0
1100
4400
27C0
0A40
0280
2500
48C0
0000
ENDCHAR
STARTCHAR 3072
ENCODING 12402
SWIDTH 960 0
DWIDTH 10 0
BBX 10 10 0 -2
BITMAP
1100
7FC0
1100
0000
3F80
0400
7FC0
0400
0C00
0000
ENDCHAR
STARTCHAR 3073
ENCODING 12403
SWIDTH 960 0
DWIDTH 10 0
BBX 10 10 0 -2
BITMAP
36C0
5240
26C0
7480
56C0
7240
06C0
5240
5480
0000
ENDCHAR
STARTCHAR 3074
ENCODING 12404
SWIDTH 960 0
DWIDTH 10 0
BBX 10 10 0 -2
BITMAP
0800
0800
1100
7F80
1280
1200
1200
2240
43C0
0000
ENDCHAR
STARTCHAR 3075
ENCODING 12405
SWIDTH 960 0
DWIDTH 10 0
BBX 10 10 0 -2
BITMAP
1800
63C0
4240
7A40
4240
4240
7AC0
4200
0200
0000
ENDCHAR
STARTCHAR 3076
ENCODING 12406
SWIDTH 960 0
DWIDTH 10 0
BBX 10 10 0 -2
BITMAP
07C0
7440
5540
57C0
5540
5540
76C0
0440
07C0
0000
ENDCHAR
STARTCHAR 3077
ENCODING 12407
SWIDTH 960 0
DWIDTH 10 0
BBX 10 10 0 -2
BITMAP
1F00
1100
3F80
2080
3F80
2080
3F80
1100
2080
0000
ENDCHAR
STARTCHAR 3078
ENCODING 12408
SWIDTH 960 0
DWIDTH 10 0
BBX 10 10 0 -2
BITMAP
7FC0
4040
4440
5F40
4440
4A40
5140
4040
7FC0
0000
ENDCHAR
STARTCHAR 3079
ENCODING 12409
SWIDTH 960 0
DWIDTH 10 0
BBX 10 10 0 -2
BITMAP
27C0
2440
F540
57C0
5540
5540
26C0
3440
57C0
0000
ENDCHAR
STARTCHAR 307a
ENCODING 12410
SWIDTH 960 0
DWIDTH 10 0
BBX 10 10 0 -2
BITMAP
7880
0880
7880
4080
7880
0880
0880
0880
3080
0000
ENDCHAR
STARTCHAR 307b
ENCODING 12411
SWIDTH 960 0
DWIDTH 10 0
BBX 10 10 0 -2
BITMAP
2200
5200
07C0
7540
5100
7100
4280
5280
7440
0000
ENDCHAR
STARTCHAR 307c
ENCODING 12412
SWIDTH 960 0
DWIDTH 10 0
BBX 10 10 0 -2
BITMAP
4180
2E00
0A80
4000
2F80
0200
2F80
2200
4F80
0000
ENDCHAR
STARTCHAR 307d
ENCODING 12413
SWIDTH 960 0
DWIDTH 10 0
BBX 10 10 0 -2
BITMAP
2480
2A80
2480
2E80
2A80
2E80
2A80
2E80
4AC0
0000
ENDCHAR
STARTCHAR 307e
ENCODING 12414
SWIDTH 960 0
DWIDTH 10 0
BBX 10 10 0 -2
BITMAP
1100
7FC0
1100
76C0
5100
67C0
5100
7240
47C0
0000
ENDCHAR
STARTCHAR 3121
ENCODING 12577
SWIDTH 960 0
DWIDTH 10 0
BBX 10 10 0 -2
BITMAP
7100
57C0
6440
5380
5000
57C0
6280
4280
44C0
0000
ENDCHAR
STARTCHAR 3122
ENCODING 12578
SWIDTH 960 0
DWIDTH 10 0
BBX 10 10 0 -2
BITMAP
7300
5480
6B40
6780
5100
57C0
5200
6480
4F40
0000
ENDCHAR
STARTCHAR 3123
ENCODING 12579
SWIDTH 960 0
DWIDTH 10 0
BBX 10 10 0 -2
BITMAP
77C0
5540
6780
5080
5780
5780
6100
4A40
4B40
0000
ENDCHAR
STARTCHAR 3124
ENCODING 12580
SWIDTH 960 0
DWIDTH 10 0
BBX 10 10 0 -2
BITMAP
2780
FC80
5780
F800
0780
7480
7480
5780
7840
0000
ENDCHAR
STARTCHAR 3125
ENCODING 12581
SWIDTH 960 0
DWIDTH 10 0
BBX 10 10 0 -2
BITMAP
0080
7080
57C0
5080
5480
5280
5080
7080
0180
0000
ENDCHAR
STARTCHAR 3126
ENCODING 12582
SWIDTH 960 0
DWIDTH 10 0
BBX 10 10 0 -2
BITMAP
0800
0800
7FC0
1000
1000
3F80
5080
1080
1F80
0000
ENDCHAR
STARTCHAR 3127
ENCODING 12583
SWIDTH 960 0
DWIDTH 10 0
BBX 10 10 0 -2
BITMAP
0400
7FC0
4040
1F00
0400
7FC0
0400
0400
0C00
0000
ENDCHAR
STARTCHAR 3128
ENCODING 12584
SWIDTH 960 0
DWIDTH 10 0
BBX 10 10 0 -2
BITMAP
0800
3F00
2100
3F80
2000
3FC0
0040
5540
0080
0000
ENDCHAR
STARTCHAR 3129
ENCODING 12585
SWIDTH 960 0
DWIDTH 10 0
BBX 10 10 0 -2
BITMAP
7BC0
0840
4A40
2940
0840
2940
4A40
0840
18C0
0000
ENDCHAR
STARTCHAR 312a
ENCODING 12586
SWIDTH 960 0
DWIDTH 10 0
BBX 10 10 0 -2
BITMAP
4780
2100
0100
6FC0
2100
2100
2300
2000
5FC0
0000
ENDCHAR
STARTCHAR 312b
ENCODING 12587
SWIDTH 960 0
DWIDTH 10 0
BBX 10 10 0 -2
BITMAP
7FC0
0400
7FC0
4440
5540
4440
4440
5540
44C0
0000
ENDCHAR
STARTCHAR 312c
ENCODING 12588
SWIDTH 960 0
DWIDTH 10 0
BBX 10 10 0 -2
BITMAP
1800
63C0
4A40
4A40
4A40
7A40
4AC0
1200
2200
0000
ENDCHAR
STARTCHAR 312d
ENCODING 12589
SWIDTH 960 0
DWIDTH 10 0
BBX 10 10 0 -2
BITMAP
5100
7B80
2A80
7BC0
6200
7BC0
2840
7540
2080
0000
ENDCHAR
STARTCHAR 312e
ENCODING 12590
SWIDTH 960 0
DWIDTH 10 0
BBX 10 10 0 -2
BITMAP
0400
7FC0
4A40
3180
7780
2480
7780
2340
5CC0
0000
ENDCHAR
STARTCHAR 312f
ENCODING 12591
SWIDTH 960 0
DWIDTH 10 0
BBX 10 10 0 -2
BITMAP
3F00
0900
0900
0900
7FC0
1100
1100
1100
7FC0
0000
ENDCHAR
STARTCHAR 3130
ENCODING 12592
SWIDTH 960 0
DWIDTH 10 0
BBX 10 10 0 -2
BITMAP
0140
7A80
27C0
3A80
6BC0
2A80
2BC0
3A80
03C0
0000
ENDCHAR
STARTCHAR 3131
ENCODING 12593
SWIDTH 960 0
DWIDTH 10 0
BBX 10 10 0 -2
BITMAP
0400
1800
63C0
4040
4040
7BC0
4040
4040
7FC0
0000
ENDCHAR
STARTCHAR 3132
ENCODING 12594
SWIDTH 960 0
DWIDTH 10 0
BBX 10 10 0 -2
BITMAP
4780
2480
0580
4FC0
2840
0B40
2B40
2B40
48C0
0000
ENDCHAR
STARTCHAR 3133
ENCODING 12595
SWIDTH 960 0
DWIDTH 10 0
BBX 10 10 0 -2
BITMAP
0180
7100
57C0
5500
55C0
5400
7540
0580
0BC0
0000
ENDCHAR
STARTCHAR 3134
ENCODING 12596
SWIDTH 960 0
DWIDTH 10 0
BBX 10 10 0 -2
BITMAP
0780
7480
5780
5480
5780
5480
7780
0480
0840
0000
ENDCHAR
STARTCHAR 3135
ENCODING 12597
SWIDTH 960 0
DWIDTH 10 0
BBX 10 10 0 -2
BITMAP
2A80
75C0
2A80
7FC0
4A40
7FC0
3880
27C0
7A80
0000
ENDCHAR
STARTCHAR 3136
ENCODING 12598
SWIDTH 960 0
DWIDTH 10 0
BBX 10 10 0 -2
BITMAP
1100
7FC0
1100
7880
47C0
7880
5280
7880
5180
0000
ENDCHAR
STARTCHAR 3137
ENCODING 12599
SWIDTH 960 0
DWIDTH 10 0
BBX 10 10 0 -2
BITMAP
3380
5280
27C0
7540
57C0
7280
0280
5100
56C0
0000
ENDCHAR
STARTCHAR 3138
ENCODING 12600
SWIDTH 960 0
DWIDTH 10 0
BBX 10 10 0 -2
BITMAP
2240
27C0
F280
5FC0
5200
56C0
2B00
3240
53C0
0000
ENDCHAR
STARTCHAR 3139
ENCODING 12601
SWIDTH 960 0
DWIDTH 10 0
BBX 10 10 0 -2
BITMAP
7FC0
4000
5DC0
5580
5DC0
5080
5580
5D80
56C0
0000
ENDCHAR
STARTCHAR 313a
ENCODING 12602
SWIDTH 960 0
DWIDTH 10 0
BBX 10 10 0 -2
BITMAP
4280
2F80
0200
4F80
2A80
0F80
2A80
2F80
4A80
0000
ENDCHAR
STARTCHAR 313b
ENCODING 12603
SWIDTH 960 0
DWIDTH 10 0
BBX 10 10 0 -2
BITMAP
0080
3F00
2480
2480
2480
2680
2540
5F40
4040
0000
ENDCHAR
STARTCHAR 313c
ENCODING 12604
SWIDTH 960 0
DWIDTH 10 0
BBX 10 10 0 -2
BITMAP
7BC0
4A40
7BC0
4040
5F40
4440
5F40
4440
5F40
0000
ENDCHAR
STARTCHAR 313d
ENCODING 12605
SWIDTH 960 0
DWIDTH 10 0
BBX 10 10 0 -2
BITMAP
0480
7FC0
5780
5480
5780
5100
7FC0
0500
0300
0000
ENDCHAR
STARTCHAR 313e
ENCODING 12606
SWIDTH 960 0
DWIDTH 10 0
BBX 10 10 0 -2
BITMAP
0000
3F80
0000
0000
7FC0
0800
0900
1380
3C80
0000
ENDCHAR
STARTCHAR 313f
ENCODING 12607
SWIDTH 960 0
DWIDTH 10 0
BBX 10 10 0 -2
BITMAP
5FC0
3240
0F80
6A80
2F80
2A80
2F80
2200
5FC0
0000
ENDCHAR
STARTCHAR 3140
ENCODING 12608
SWIDTH 960 0
DWIDTH 10 0
BBX 10 10 0 -2
BITMAP
3F80
0400
7FC0
5540
3F80
0000
7FC0
1100
3E80
0000
ENDCHAR
STARTCHAR 3141
ENCODING 12609
SWIDTH 960 0
DWIDTH 10 0
BBX 10 10 0 -2
BITMAP
1100
7FC0
1100
0000
2F80
2200
6FC0
2200
2F80
0000
ENDCHAR
STARTCHAR 3142
ENCODING 12610
SWIDTH 960 0
DWIDTH 10 0
BBX 10 10 0 -2
BITMAP
2000
57C0
0280
7380
5280
7380
4280
57C0
7080
0000
ENDCHAR
STARTCHAR 3143
ENCODING 12611
SWIDTH 960 0
DWIDTH 10 0
BBX 10 10 0 -2
BITMAP
1C00
11C0
7D40
5540
3940
6C80
3880
2940
3A40
0000
ENDCHAR
STARTCHAR 3144
ENCODING 12612
SWIDTH 960 0
DWIDTH 10 0
BBX 10 10 0 -2
BITMAP
2880
1500
7FC0
5140
1F00
0800
3F80
2080
3F80
0000
ENDCHAR
STARTCHAR 3145
ENCODING 12613
SWIDTH 960 0
DWIDTH 10 0
BBX 10 10 0 -2
BITMAP
3B80
2A80
3B80
4440
0800
7FC0
1100
1E00
71C0
0000
ENDCHAR
STARTCHAR 3146
ENCODING 12614
SWIDTH 960 0
DWIDTH 10 0
BBX 10 10 0 -2
BITMAP
7C40
4480
7D00
1040
7C80
2900
3840
1080
5500
0000
ENDCHAR
STARTCHAR 3147
ENCODING 12615
SWIDTH 960 0
DWIDTH 10 0
BBX 10 10 0 -2
BITMAP
0100
7100
57C0
5540
7540
5FC0
5100
7280
0440
0000
ENDCHAR
STARTCHAR 3148
ENCODING 12616
SWIDTH 960 0
DWIDTH 10 0
BBX 10 10 0 -2
BITMAP
0800
7F00
4900
7F00
4900
7F00
0500
0640
79C0
0000
ENDCHAR
STARTCHAR 3149
ENCODING 12617
SWIDTH 960 0
DWIDTH 10 0
BBX 10 10 0 -2
BITMAP
2880
1500
7FC0
4440
3F80
0E00
1500
64C0
0400
0000
ENDCHAR
STARTCHAR 314a
ENCODING 12618
SWIDTH 960 0
DWIDTH 10 0
BBX 10 10 0 -2
BITMAP
1E00
0000
1C00
0480
7700
1600
2500
44C0
0C00
0000
ENDCHAR
STARTCHAR 314b
ENCODING 12619
SWIDTH 960 0
DWIDTH 10 0
BBX 10 10 0 -2
BITMAP
4700
2000
0E00
4280
2F00
0700
2A80
3240
4600
0000
ENDCHAR
STARTCHAR 314c
ENCODING 12620
SWIDTH 960 0
DWIDTH 10 0
BBX 10 10 0 -2
BITMAP
4200
2F80
0A80
4F80
2A80
0F80
2200
2340
4CC0
0000
ENDCHAR
STARTCHAR 314d
ENCODING 12621
SWIDTH 960 0
DWIDTH 10 0
BBX 10 10 0 -2
BITMAP
0280
77C0
2280
27C0
7540
2FC0
3100
6280
0440
0000
ENDCHAR
STARTCHAR 314e
ENCODING 12622
SWIDTH 960 0
DWIDTH 10 0
BBX 10 10 0 -2
BITMAP
7F00
2900
35C0
2840
5580
0000
3F80
2A80
7FC0
0000
ENDCHAR
STARTCHAR 314f
ENCODING 12623
SWIDTH 960 0
DWIDTH 10 0
BBX 10 10 0 -2
BITMAP
43C0
7900
43C0
3A40
13C0
7A40
13C0
3880
5240
0000
ENDCHAR
STARTCHAR 3150
ENCODING 12624
SWIDTH 960 0
DWIDTH 10 0
BBX 10 10 0 -2
BITMAP
43C0
7900
43C0
3A40
03C0
7A40
13C0
5880
5240
0000
ENDCHAR
STARTCHAR 3151
ENCODING 12625
SWIDTH 960 0
DWIDTH 10 0
BBX 10 10 0 -2
BITMAP
1100
7FC0
1500
3F80
2480
7FC0
0400
1B00
60C0
0000
ENDCHAR
STARTCHAR 3152
ENCODING 12626
SWIDTH 960 0
DWIDTH 10 0
BBX 10 10 0 -2
BITMAP
2800
4EC0
0A00
2EC0
6C80
2E80
2480
2E80
2580
0000
ENDCHAR
STARTCHAR 3153
ENCODING 12627
SWIDTH 960 0
DWIDTH 10 0
BBX 10 10 0 -2
BITMAP
7300
0000
7700
0140
7780
0300
7580
5940
7300
0000
ENDCHAR
STARTCHAR 3154
ENCODING 12628
SWIDTH 960 0
DWIDTH 10 0
BBX 10 10 0 -2
BITMAP
1440
2A80
77C0
1440
7440
17C0
5A80
3280
64C0
0000
ENDCHAR
STARTCHAR 3155
ENCODING 12629
SWIDTH 960 0
DWIDTH 10 0
BBX 10 10 0 -2
BITMAP
4200
2FC0
0000
45C0
2940
1A80
2880
2940
4A40
0000
ENDCHAR
STARTCHAR 3156
ENCODING 12630
SWIDTH 960 0
DWIDTH 10 0
BBX 10 10 0 -2
BITMAP
0200
3FC0
2700
6540
29C0
6780
2480
2300
4CC0
0000
ENDCHAR
STARTCHAR 3157
ENCODING 12631
SWIDTH 960 0
DWIDTH 10 0
BBX 10 10 0 -2
BITMAP
2080
1100
7FC0
1100
2080
7FC0
2A80
2A80
7FC0
0000
ENDCHAR
STARTCHAR 3158
ENCODING 12632
SWIDTH 960 0
DWIDTH 10 0
BBX 10 10 0 -2
BITMAP
7BC0
5240
7A40
53C0
5280
7A80
0A80
2A40
5440
0000
ENDCHAR
STARTCHAR 3159
ENCODING 12633
SWIDTH 960 0
DWIDTH 10 0
BBX 10 10 0 -2
BITMAP
2440
2280
77C0
7440
27C0
2280
2280
2480
24C0
0000
ENDCHAR
STARTCHAR 315a
ENCODING 12634
SWIDTH 960 0
DWIDTH 10 0
BBX 10 10 0 -2
BITMAP
7780
0480
7780
0200
77C0
0A40
7540
5740
7180
0000
ENDCHAR
STARTCHAR 315b
ENCODING 12635
SWIDTH 960 0
DWIDTH 10 0
BBX 10 10 0 -2
BITMAP
1140
7900
13C0
7A80
12C0
5A80
5740
7000
4FC0
0000
ENDCHAR
STARTCHAR 315c
ENCODING 12636
SWIDTH 960 0
DWIDTH 10 0
BBX 10 10 0 -2
BITMAP
71C0
5140
71C0
4A40
5F40
5140
5F40
4A40
5140
0000
ENDCHAR
STARTCHAR 315d
ENCODING 12637
SWIDTH 960 0
DWIDTH 10 0
BBX 10 10 0 -2
BITMAP
17C0
1100
7B80
1280
3A80
3380
5680
1100
16C0
0000
ENDCHAR
STARTCHAR 315e
ENCODING 12638
SWIDTH 960 0
DWIDTH 10 0
BBX 10 10 0 -2
BITMAP
7FC0
4000
5CC0
5480
5DC0
5480
5C80
5540
5540
0000
ENDCHAR
STARTCHAR 315f
ENCODING 12639
SWIDTH 960 0
DWIDTH 10 0
BBX 10 10 0 -2
BITMAP
7FC0
4440
4440
4440
7FC0
4040
4040
4040
40C0
0000
ENDCHAR
STARTCHAR 3160
ENCODING 12640
SWIDTH 960 0
DWIDTH 10 0
BBX 10 10 0 -2
BITMAP
7FC0
4440
5F40
7FC0
5140
5F40
4E40
5540
7FC0
0000
ENDCHAR
STARTCHAR 3161
ENCODING 12641
SWIDTH 960 0
DWIDTH 10 0
BBX 10 10 0 -2
BITMAP
2FC0
2A80
7B80
2900
2FC0
2A80
3980
6A40
0FC0
0000
ENDCHAR
STARTCHAR 3162
ENCODING 12642
SWIDTH 960 0
DWIDTH 10 0
BBX 10 10 0 -2
BITMAP
0400
7FC0
1F00
3580
5F40
1500
1F00
0440
07C0
0000
ENDCHAR
STARTCHAR 3163
ENCODING 12643
SWIDTH 960 0
DWIDTH 10 0
BBX 10 10 0 -2
BITMAP
0400
7FC0
5140
1F00
0800
7FC0
1100
1E00
71C0
0000
ENDCHAR
STARTCHAR 3164
ENCODING 12644
SWIDTH 960 0
DWIDTH 10 0
BBX 10 10 0 -2
BITMAP
70C0
1700
2100
75C0
1500
5500
57C0
2000
5FC0
0000
ENDCHAR
STARTCHAR 3165
ENCODING 12645
SWIDTH 960 0
DWIDTH 10 0
BBX 10 10 0 -2
BITMAP
2000
3B80
4A80
2B80
1240
63C0
0400
5140
5F40
0000
ENDCHAR
STARTCHAR 3166
ENCODING 12646
SWIDTH 960 0
DWIDTH 10 0
BBX 10 10 0 -2
BITMAP
2200
2FC0
7700
2A80
3FC0
6A80
2F80
2240
63C0
0000
ENDCHAR
STARTCHAR 3167
ENCODING 12647
SWIDTH 960 0
DWIDTH 10 0
BBX 10 10 0 -2
BITMAP
2FC0
2540
7280
2FC0
3400
67C0
2680
2900
66C0
0000
ENDCHAR
STARTCHAR 3168
ENCODING 12648
SWIDTH 960 0
DWIDTH 10 0
BBX 10 10 0 -2
BITMAP
4500
2500
0880
4880
2000
0F80
2880
2880
4F80
0000
ENDCHAR
STARTCHAR 3169
ENCODING 12649
SWIDTH 960 0
DWIDTH 10 0
BBX 10 10 0 -2
BITMAP
4200
3FC0
1040
4F80
2200
0F80
2A80
2F80
5040
0000
ENDCHAR
STARTCHAR 316a
ENCODING 12650
SWIDTH 960 0
DWIDTH 10 0
BBX 10 10 0 -2
BITMAP
2440
4480
0A00
71C0
0000
2440
4480
0A00
71C0
0000
ENDCHAR
STARTCHAR 316b
ENCODING 12651
SWIDTH 960 0
DWIDTH 10 0
BBX 10 10 0 -2
BITMAP
2380
2280
7480
7100
25C0
2540
25C0
5540
45C0
0000
ENDCHAR
STARTCHAR 316c
ENCODING 12652
SWIDTH 960 0
DWIDTH 10 0
BBX 10 10 0 -2
BITMAP
27C0
2100
77C0
7540
27C0
2100
27C0
5100
47C0
0000
ENDCHAR
STARTCHAR 316d
ENCODING 12653
SWIDTH 960 0
DWIDTH 10 0
BBX 10 10 0 -2
BITMAP
0A00
7FC0
0E00
2080
6EC0
2A80
6EC0
0000
6AC0
0000
ENDCHAR
STARTCHAR 316e
ENCODING 12654
SWIDTH 960 0
DWIDTH 10 0
BBX 10 10 0 -2
BITMAP
5200
2780
6280
2FC0
2480
6780
2340
2C80
4640
0000
ENDCHAR
STARTCHAR 316f
ENCODING 12655
SWIDTH 960 0
DWIDTH 10 0
BBX 10 10 0 -2
BITMAP
1380
2080
5380
2880
77C0
1340
5580
5280
1540
0000
ENDCHAR
STARTCHAR 3170
ENCODING 12656
SWIDTH 960 0
DWIDTH 10 0
BBX 10 10 0 -2
BITMAP
5380
7480
7100
07C0
7540
5540
77C0
2400
77C0
0000
ENDCHAR
STARTCHAR 3171
ENCODING 12657
SWIDTH 960 0
DWIDTH 10 0
BBX 10 10 0 -2
BITMAP
1100
7FC0
1100
1000
3B80
4A80
2B80
1240
63C0
0000
ENDCHAR
STARTCHAR 3172
ENCODING 12658
SWIDTH 960 0
DWIDTH 10 0
BBX 10 10 0 -2
BITMAP
1100
7FC0
1100
7FC0
5A40
4D40
7A40
4940
7FC0
0000
ENDCHAR
STARTCHAR 3173
ENCODING 12659
SWIDTH 960 0
DWIDTH 10 0
BBX 10 10 0 -2
BITMAP
4200
2780
0200
6FC0
2480
2340
2680
2A40
5FC0
0000
ENDCHAR
STARTCHAR 3174
ENCODING 12660
SWIDTH 960 0
DWIDTH 10 0
BBX 10 10 0 -2
BITMAP
1080
2A80
7240
1440
7800
13C0
5A40
3240
63C0
0000
ENDCHAR
STARTCHAR 3175
ENCODING 12661
SWIDTH 960 0
DWIDTH 10 0
BBX 10 10 0 -2
BITMAP
3B80
6A80
1FC0
7100
1F80
1000
1FC0
4040
5540
0000
ENDCHAR
STARTCHAR 3176
ENCODING 12662
SWIDTH 960 0
DWIDTH 10 0
BBX 10 10 0 -2
BITMAP
2400
2F80
7000
2700
2700
3000
6F80
0A80
1FC0
0000
ENDCHAR
STARTCHAR 3177
ENCODING 12663
SWIDTH 960 0
DWIDTH 10 0
BBX 10 10 0 -2
BITMAP
2200
2300
7480
2840
3200
5100
5000
1200
3100
0000
ENDCHAR
STARTCHAR 3178
ENCODING 12664
SWIDTH 960 0
DWIDTH 10 0
BBX 10 10 0 -2
BITMAP
4F80
2200
1FC0
4400
2780
0880
2080
2080
4300
0000
ENDCHAR
STARTCHAR 3179
ENCODING 12665
SWIDTH 960 0
DWIDTH 10 0
BBX 10 10 0 -2
BITMAP
27C0
6540
77C0
2540
77C0
2200
27C0
7240
04C0
0000
ENDCHAR
STARTCHAR 317a
ENCODING 12666
SWIDTH 960 0
DWIDTH 10 0
BBX 10 10 0 -2
BITMAP
7BC0
4A40
4A40
4A40
4E40
4040
4040
4040
7FC0
0000
ENDCHAR
STARTCHAR 317b
ENCODING 12667
SWIDTH 960 0
DWIDTH 10 0
BBX 10 10 0 -2
BITMAP
0400
0400
3F80
2480
2480
7FC0
0A00
1100
60C0
0000
ENDCHAR
STARTCHAR 317c
ENCODING 12668
SWIDTH 960 0
DWIDTH 10 0
BBX 10 10 0 -2
BITMAP
0400
3F80
3580
2E80
3580
2480
7FC0
0A00
71C0
0000
ENDCHAR
STARTCHAR 317d
ENCODING 12669
SWIDTH 960 0
DWIDTH 10 0
BBX 10 10 0 -2
BITMAP
2200
4100
17C0
2100
6100
27C0
2100
2100
27C0
0000
ENDCHAR
STARTCHAR 317e
ENCODING 12670
SWIDTH 960 0
DWIDTH 10 0
BBX 10 10 0 -2
BITMAP
0400
7FC0
4000
4600
4000
5480
5440
5480
4780
0000
ENDCHAR
STARTCHAR 3221
ENCODING 12833
SWIDTH 960 0
DWIDTH 10 0
BBX 10 10 0 -2
BITMAP
2000
27C0
7540
27C0
3540
67C0
2100
2100
6100
0000
ENDCHAR
STARTCHAR 3222
ENCODING 12834
SWIDTH 960 0
DWIDTH 10 0
BBX 10 10 0 -2
BITMAP
0000
77C0
5100
5100
7380
5100
5100
7100
07C0
0000
ENDCHAR
STARTCHAR 3223
ENCODING 12835
SWIDTH 960 0
DWIDTH 10 0
BBX 10 10 0 -2
BITMAP
2500
3FC0
6500
3FC0
6A80
7F80
6A80
2F80
3040
0000
ENDCHAR
STARTCHAR 3224
ENCODING 12836
SWIDTH 960 0
DWIDTH 10 0
BBX 10 10 0 -2
BITMAP
7A00
4BC0
6A40
5540
5180
6900
4100
7A80
0440
0000
ENDCHAR
STARTCHAR 3225
ENCODING 12837
SWIDTH 960 0
DWIDTH 10 0
BBX 10 10 0 -2
BITMAP
7B80
4A80
6EC0
5000
5380
6A80
4100
7A80
0440
0000
ENDCHAR
STARTCHAR 3226
ENCODING 12838
SWIDTH 960 0
DWIDTH 10 0
BBX 10 10 0 -2
BITMAP
7FC0
0400
0400
0400
3F80
0400
0400
0400
7FC0
0000
ENDCHAR
STARTCHAR 3227
ENCODING 12839
SWIDTH 960 0
DWIDTH 10 0
BBX 10 10 0 -2
BITMAP
1100
2480
4E40
0000
7BC0
4A40
2940
4A40
18C0
0000
ENDCHAR
STARTCHAR 3228
ENCODING 12840
SWIDTH 960 0
DWIDTH 10 0
BBX 10 10 0 -2
BITMAP
2100
77C0
1540
2EC0
3540
6FC0
2100
2280
2440
0000
ENDCHAR
STARTCHAR 3229
ENCODING 12841
SWIDTH 960 0
DWIDTH 10 0
BBX 10 10 0 -2
BITMAP
1500
7FC0
5F40
1100
1FC0
1000
1FC0
4040
5540
0000
ENDCHAR
STARTCHAR 322a
ENCODING 12842
SWIDTH 960 0
DWIDTH 10 0
BBX 10 10 0 -2
BITMAP
7900
4B80
6A80
53C0
5200
6BC0
4040
7540
0480
0000
ENDCHAR
STARTCHAR 322b
ENCODING 12843
SWIDTH 960 0
DWIDTH 10 0
BBX 10 10 0 -2
BITMAP
1100
7FC0
1100
7FC0
2480
3F80
2480
3F80
4040
0000
ENDCHAR
STARTCHAR 322c
ENCODING 12844
SWIDTH 960 0
DWIDTH 10 0
BBX 10 10 0 -2
BITMAP
7FC0
5140
4A40
7FC0
4440
5540
5540
5F40
40C0
0000
ENDCHAR
STARTCHAR 322d
ENCODING 12845
SWIDTH 960 0
DWIDTH 10 0
BBX 10 10 0 -2
BITMAP
4200
2200
0F80
4A80
2A80
0F80
2200
2200
4200
0000
ENDCHAR
STARTCHAR 322e
ENCODING 12846
SWIDTH 960 0
DWIDTH 10 0
BBX 10 10 0 -2
BITMAP
1100
7FC0
1100
5000
2540
5540
3100
5280
2440
0000
ENDCHAR
STARTCHAR 322f
ENCODING 12847
SWIDTH 960 0
DWIDTH 10 0
BBX 10 10 0 -2
BITMAP
1100
17C0
2280
2FC0
6480
2780
2100
2A40
2B40
0000
ENDCHAR
STARTCHAR 3230
ENCODING 12848
SWIDTH 960 0
DWIDTH 10 0
BBX 10 10 0 -2
BITMAP
3FC0
2040
3FC0
2480
2F80
2240
2F80
4200
5FC0
0000
ENDCHAR
STARTCHAR 3231
ENCODING 12849
SWIDTH 960 0
DWIDTH 10 0
BBX 10 10 0 -2
BITMAP
2100
27C0
7280
7FC0
2480
2780
2100
2A40
2B40
0000
ENDCHAR
STARTCHAR 3232
ENCODING 12850
SWIDTH 960 0
DWIDTH 10 0
BBX 10 10 0 -2
BITMAP
7100
57C0
7280
5FC0
7480
5780
5100
5A40
5B40
0000
ENDCHAR
STARTCHAR 3233
ENCODING 12851
SWIDTH 960 0
DWIDTH 10 0
BBX 10 10 0 -2
BITMAP
17C0
1080
77C0
1540
37C0
3D40
57C0
1540
1540
0000
ENDCHAR
STARTCHAR 3234
ENCODING 12852
SWIDTH 960 0
DWIDTH 10 0
BBX 10 10 0 -2
BITMAP
1100
5100
7900
57C0
1900
3100
5100
1100
17C0
0000
ENDCHAR
STARTCHAR 3235
ENCODING 12853
SWIDTH 960 0
DWIDTH 10 0
BBX 10 10 0 -2
BITMAP
0000
3F00
0200
0400
0800
1000
2000
4040
3FC0
0000
ENDCHAR
STARTCHAR 3236
ENCODING 12854
SWIDTH 960 0
DWIDTH 10 0
BBX 10 10 0 -2
BITMAP
1200
1FC0
2500
2A80
7FC0
2A80
2F80
2240
23C0
0000
ENDCHAR
STARTCHAR 3237
ENCODING 12855
SWIDTH 960 0
DWIDTH 10 0
BBX 10 10 0 -2
BITMAP
4000
7BC0
1240
7A40
1240
5A40
5240
5AC0
7200
0000
ENDCHAR
STARTCHAR 3238
ENCODING 12856
SWIDTH 960 0
DWIDTH 10 0
BBX 10 10 0 -2
BITMAP
3F80
2480
3F80
2A80
3180
3F80
0400
5240
5F40
0000
ENDCHAR
STARTCHAR 3239
ENCODING 12857
SWIDTH 960 0
DWIDTH 10 0
BBX 10 10 0 -2
BITMAP
4F80
2880
0F80
4880
2F80
0000
2F80
2A80
5FC0
0000
ENDCHAR
STARTCHAR 323a
ENCODING 12858
SWIDTH 960 0
DWIDTH 10 0
BBX 10 10 0 -2
BITMAP
77C0
2540
7780
2080
7780
7780
6100
2A40
2B40
0000
ENDCHAR
STARTCHAR 323b
ENCODING 12859
SWIDTH 960 0
DWIDTH 10 0
BBX 10 10 0 -2
BITMAP
0400
3F80
1100
7FC0
1F00
1100
1F00
1100
1F00
0000
ENDCHAR
STARTCHAR 323c
ENCODING 12860
SWIDTH 960 0
DWIDTH 10 0
BBX 10 10 0 -2
BITMAP
7FC0
0400
0400
0700
0480
0400
0400
0400
0400
0000
ENDCHAR
STARTCHAR 323d
ENCODING 12861
SWIDTH 960 0
DWIDTH 10 0
BBX 10 10 0 -2
BITMAP
1400
1400
2480
2700
6400
2400
2400
2440
23C0
0000
ENDCHAR
STARTCHAR 323e
ENCODING 12862
SWIDTH 960 0
DWIDTH 10 0
BBX 10 10 0 -2
BITMAP
17C0
1400
2780
2480
6680
2680
2500
2980
2A40
0000
ENDCHAR
STARTCHAR 323f
ENCODING 12863
SWIDTH 960 0
DWIDTH 10 0
BBX 10 10 0 -2
BITMAP
1000
1FC0
2080
2E80
6A80
2A80
2E80
2080
2180
0000
ENDCHAR
STARTCHAR 3240
ENCODING 12864
SWIDTH 960 0
DWIDTH 10 0
BBX 10 10 0 -2
BITMAP
1400
1400
2FC0
2540
6540
2540
2540
2940
2BC0
0000
ENDCHAR
STARTCHAR 3241
ENCODING 12865
SWIDTH 960 0
DWIDTH 10 0
BBX 10 10 0 -2
BITMAP
2000
3FC0
4500
5FC0
D540
5540
5540
5540
5FC0
0000
ENDCHAR
STARTCHAR 3242
ENCODING 12866
SWIDTH 960 0
DWIDTH 10 0
BBX 10 10 0 -2
BITMAP
1200
1780
2200
2FC0
6200
2200
2780
2200
2FC0
0000
ENDCHAR
STARTCHAR 3243
ENCODING 12867
SWIDTH 960 0
DWIDTH 10 0
BBX 10 10 0 -2
BITMAP
1000
1000
7DC0
1540
1540
1540
2540
2540
4DC0
0000
ENDCHAR
STARTCHAR 3244
ENCODING 12868
SWIDTH 960 0
DWIDTH 10 0
BBX 10 10 0 -2
BITMAP
0000
7FC0
0080
3C80
2480
2480
3C80
0080
0180
0000
ENDCHAR
STARTCHAR 3245
ENCODING 12869
SWIDTH 960 0
DWIDTH 10 0
BBX 10 10 0 -2
BITMAP
0400
7FC0
0400
3F80
1100
7FC0
1080
7BC0
2BC0
0000
ENDCHAR
STARTCHAR 3246
ENCODING 12870
SWIDTH 960 0
DWIDTH 10 0
BBX 10 10 0 -2
BITMAP
7FC0
0800
3F80
2080
3F80
0F00
3100
0E00
71C0
0000
ENDCHAR
STARTCHAR 3247
ENCODING 12871
SWIDTH 960 0
DWIDTH 10 0
BBX 10 10 0 -2
BITMAP
2100
27C0
F440
5380
5500
51C0
2680
30C0
5300
0000
ENDCHAR
STARTCHAR 3248
ENCODING 12872
SWIDTH 960 0
DWIDTH 10 0
BBX 10 10 0 -2
BITMAP
0400
7FC0
4040
3F00
0C40
3680
0B00
72C0
0C00
0000
ENDCHAR
STARTCHAR 3249
ENCODING 12873
SWIDTH 960 0
DWIDTH 10 0
BBX 10 10 0 -2
BITMAP
0400
7FC0
5F40
1100
7FC0
2080
5F40
0900
3300
0000
ENDCHAR
STARTCHAR 324a
ENCODING 12874
SWIDTH 960 0
DWIDTH 10 0
BBX 10 10 0 -2
BITMAP
1880
7280
1080
7A80
1080
39C0
3680
5080
1080
0000
ENDCHAR
STARTCHAR 324b
ENCODING 12875
SWIDTH 960 0
DWIDTH 10 0
BBX 10 10 0 -2
BITMAP
0EC0
EA40
AEC0
A800
EDC0
A940
AD40
E880
0940
0000
ENDCHAR
STARTCHAR 324c
ENCODING 12876
SWIDTH 960 0
DWIDTH 10 0
BBX 10 10 0 -2
BITMAP
3F80
2480
3F80
2480
3F80
0400
7FC0
1500
64C0
0000
ENDCHAR
STARTCHAR 324d
ENCODING 12877
SWIDTH 960 0
DWIDTH 10 0
BBX 10 10 0 -2
BITMAP
2000
7BC0
2A40
5BC0
0400
7FC0
0E00
1500
64C0
0000
ENDCHAR
STARTCHAR 324e
ENCODING 12878
SWIDTH 960 0
DWIDTH 10 0
BBX 10 10 0 -2
BITMAP
7A00
53C0
7240
1540
7900
5100
7280
1280
3440
0000
ENDCHAR
STARTCHAR 324f
ENCODING 12879
SWIDTH 960 0
DWIDTH 10 0
BBX 10 10 0 -2
BITMAP
5FC0
2080
0E80
4A80
2A80
0E80
2080
2080
4180
0000
ENDCHAR
STARTCHAR 3250
ENCODING 12880
SWIDTH 960 0
DWIDTH 10 0
BBX 10 10 0 -2
BITMAP
0400
0400
4440
2480
0400
0A00
0A00
1100
60C0
0000
ENDCHAR
STARTCHAR 3251
ENCODING 12881
SWIDTH 960 0
DWIDTH 10 0
BBX 10 10 0 -2
BITMAP
0FC0
7080
2E80
2A80
7A80
2E80
3080
6080
0180
0000
ENDCHAR
STARTCHAR 3252
ENCODING 12882
SWIDTH 960 0
DWIDTH 10 0
BBX 10 10 0 -2
BITMAP
2780
7480
1580
2FC0
2840
7B40
2B40
2B40
28C0
0000
ENDCHAR
STARTCHAR 3253
ENCODING 12883
SWIDTH 960 0
DWIDTH 10 0
BBX 10 10 0 -2
BITMAP
0300
3C00
0400
7FC0
0E00
1500
2480
4440
0400
0000
ENDCHAR
STARTCHAR 3254
ENCODING 12884
SWIDTH 960 0
DWIDTH 10 0
BBX 10 10 0 -2
BITMAP
1900
77C0
1440
7B80
1100
3AC0
3180
56C0
1100
0000
ENDCHAR
STARTCHAR 3255
ENCODING 12885
SWIDTH 960 0
DWIDTH 10 0
BBX 10 10 0 -2
BITMAP
2100
7BC0
1080
7FC0
4440
5F40
4E40
4A40
7FC0
0000
ENDCHAR
STARTCHAR 3256
ENCODING 12886
SWIDTH 960 0
DWIDTH 10 0
BBX 10 10 0 -2
BITMAP
1100
7FC0
1100
1400
24C0
2700
6400
2440
23C0
0000
ENDCHAR
STARTCHAR 3257
ENCODING 12887
SWIDTH 960 0
DWIDTH 10 0
BBX 10 10 0 -2
BITMAP
1100
7FC0
1100
7FC0
0080
3C80
2480
3C80
0180
0000
ENDCHAR
STARTCHAR 3258
ENCODING 12888
SWIDTH 960 0
DWIDTH 10 0
BBX 10 10 0 -2
BITMAP
1100
7FC0
1100
2000
7BC0
2A40
2A40
4A40
5BC0
0000
ENDCHAR
STARTCHAR 3259
ENCODING 12889
SWIDTH 960 0
DWIDTH 10 0
BBX 10 10 0 -2
BITMAP
1100
7FC0
1100
1FC0
2080
6E80
2A80
2E80
2180
0000
ENDCHAR
STARTCHAR 325a
ENCODING 12890
SWIDTH 960 0
DWIDTH 10 0
BBX 10 10 0 -2
BITMAP
1100
7FC0
1100
7FC0
2480
7FC0
2480
7FC0
0400
0000
ENDCHAR
STARTCHAR 325b
ENCODING 12891
SWIDTH 960 0
DWIDTH 10 0
BBX 10 10 0 -2
BITMAP
1100
7FC0
3F80
2480
3F80
2480
7FC0
1500
64C0
0000
ENDCHAR
STARTCHAR 325c
ENCODING 12892
SWIDTH 960 0
DWIDTH 10 0
BBX 10 10 0 -2
BITMAP
2FC0
2A40
7FC0
6800
6DC0
7940
2D40
3880
6940
0000
ENDCHAR
STARTCHAR 325d
ENCODING 12893
SWIDTH 960 0
DWIDTH 10 0
BBX 10 10 0 -2
BITMAP
77C0
0540
77C0
0540
77C0
0100
77C0
5380
7540
0000
ENDCHAR
STARTCHAR 325e
ENCODING 12894
SWIDTH 960 0
DWIDTH 10 0
BBX 10 10 0 -2
BITMAP
0500
7FC0
6500
7FC0
6A80
7FC0
6A80
1FC0
0200
0000
ENDCHAR
STARTCHAR 325f
ENCODING 12895
SWIDTH 960 0
DWIDTH 10 0
BBX 10 10 0 -2
BITMAP
1580
6600
23C0
1F00
1100
1F00
1100
1F00
2080
0000
ENDCHAR
STARTCHAR 3260
ENCODING 12896
SWIDTH 960 0
DWIDTH 10 0
BBX 10 10 0 -2
BITMAP
4400
2400
0FC0
6540
2540
2940
2BC0
3000
4FC0
0000
ENDCHAR
STARTCHAR 3261
ENCODING 12897
SWIDTH 960 0
DWIDTH 10 0
BBX 10 10 0 -2
BITMAP
4780
2480
0580
6FC0
2840
2B40
2B40
2000
5FC0
0000
ENDCHAR
STARTCHAR 3262
ENCODING 12898
SWIDTH 960 0
DWIDTH 10 0
BBX 10 10 0 -2
BITMAP
3F80
0400
7FC0
5540
0000
7BC0
4240
7980
4240
0000
ENDCHAR
STARTCHAR 3263
ENCODING 12899
SWIDTH 960 0
DWIDTH 10 0
BBX 10 10 0 -2
BITMAP
2100
2100
7FC0
6A80
6A80
7A80
2100
3A80
6C40
0000
ENDCHAR
STARTCHAR 3264
ENCODING 12900
SWIDTH 960 0
DWIDTH 10 0
BBX 10 10 0 -2
BITMAP
1300
1D40
2500
2FC0
6500
2740
2D40
2480
2D40
0000
ENDCHAR
STARTCHAR 3265
ENCODING 12901
SWIDTH 960 0
DWIDTH 10 0
BBX 10 10 0 -2
BITMAP
2300
2D40
7500
7FC0
7500
7740
7D40
0480
0D40
0000
ENDCHAR
STARTCHAR 3266
ENCODING 12902
SWIDTH 960 0
DWIDTH 10 0
BBX 10 10 0 -2
BITMAP
0A80
3240
1200
7FC0
1240
1A80
7100
1140
32C0
0000
ENDCHAR
STARTCHAR 3267
ENCODING 12903
SWIDTH 960 0
DWIDTH 10 0
BBX 10 10 0 -2
BITMAP
3F80
1200
1200
7FC0
0600
0A00
1200
6200
0600
0000
ENDCHAR
STARTCHAR 3268
ENCODING 12904
SWIDTH 960 0
DWIDTH 10 0
BBX 10 10 0 -2
BITMAP
7FC0
0400
5F40
5540
5F40
5540
5F40
4040
7FC0
0000
ENDCHAR
STARTCHAR 3269
ENCODING 12905
SWIDTH 960 0
DWIDTH 10 0
BBX 10 10 0 -2
BITMAP
7900
5100
7900
4900
7900
5280
5280
7A80
0440
0000
ENDCHAR
STARTCHAR 326a
ENCODING 12906
SWIDTH 960 0
DWIDTH 10 0
BBX 10 10 0 -2
BITMAP
1100
7FC0
1100
3F80
1100
7FC0
0500
1900
6300
0000
ENDCHAR
STARTCHAR 326b
ENCODING 12907
SWIDTH 960 0
DWIDTH 10 0
BBX 10 10 0 -2
BITMAP
2280
24C0
7A80
6FC0
6A80
7AC0
2680
3A80
6740
0000
ENDCHAR
STARTCHAR 326c
ENCODING 12908
SWIDTH 960 0
DWIDTH 10 0
BBX 10 10 0 -2
BITMAP
2000
7BC0
2A40
5FC0
1100
1F00
1100
1F00
2080
0000
ENDCHAR
STARTCHAR 326d
ENCODING 12909
SWIDTH 960 0
DWIDTH 10 0
BBX 10 10 0 -2
BITMAP
7D40
2A80
2FC0
7A80
1BC0
2A80
2BC0
4A80
1BC0
0000
ENDCHAR
STARTCHAR 326e
ENCODING 12910
SWIDTH 960 0
DWIDTH 10 0
BBX 10 10 0 -2
BITMAP
2300
5540
0500
7FC0
5500
7740
4D40
5480
7540
0000
ENDCHAR
STARTCHAR 326f
ENCODING 12911
SWIDTH 960 0
DWIDTH 10 0
BBX 10 10 0 -2
BITMAP
2000
7BC0
2A40
4BC0
3F80
2400
3FC0
0040
5540
0000
ENDCHAR
STARTCHAR 3270
ENCODING 12912
SWIDTH 960 0
DWIDTH 10 0
BBX 10 10 0 -2
BITMAP
0400
0A00
1100
3180
5140
1100
1100
2100
4100
0000
ENDCHAR
STARTCHAR 3271
ENCODING 12913
SWIDTH 960 0
DWIDTH 10 0
BBX 10 10 0 -2
BITMAP
0400
0A00
1100
6EC0
0000
3F80
0800
1100
3E80
0000
ENDCHAR
STARTCHAR 3272
ENCODING 12914
SWIDTH 960 0
DWIDTH 10 0
BBX 10 10 0 -2
BITMAP
3BC0
5140
7AC0
5800
7A80
5BC0
7880
4BC0
5880
0000
ENDCHAR
STARTCHAR 3273
ENCODING 12915
SWIDTH 960 0
DWIDTH 10 0
BBX 10 10 0 -2
BITMAP
7FC0
4040
5F40
5140
5140
5140
5F40
4040
7FC0
0000
ENDCHAR
STARTCHAR 3274
ENCODING 12916
SWIDTH 960 0
DWIDTH 10 0
BBX 10 10 0 -2
BITMAP
2400
2F80
7A80
2F80
2A80
2F80
3280
6640
0BC0
0000
ENDCHAR
STARTCHAR 3275
ENCODING 12917
SWIDTH 960 0
DWIDTH 10 0
BBX 10 10 0 -2
BITMAP
2200
2FC0
7A80
2F80
2200
2FC0
6540
0C80
1640
0000
ENDCHAR
STARTCHAR 3276
ENCODING 12918
SWIDTH 960 0
DWIDTH 10 0
BBX 10 10 0 -2
BITMAP
77C0
1440
2740
7540
1740
5440
27C0
2000
5FC0
0000
ENDCHAR
STARTCHAR 3277
ENCODING 12919
SWIDTH 960 0
DWIDTH 10 0
BBX 10 10 0 -2
BITMAP
2200
2200
7780
7280
2FC0
2200
2200
2500
28C0
0000
ENDCHAR
STARTCHAR 3278
ENCODING 12920
SWIDTH 960 0
DWIDTH 10 0
BBX 10 10 0 -2
BITMAP
2F80
2080
7480
7300
2CC0
2200
2780
2200
2FC0
0000
ENDCHAR
STARTCHAR 3279
ENCODING 12921
SWIDTH 960 0
DWIDTH 10 0
BBX 10 10 0 -2
BITMAP
2800
2FC0
7000
7F80
2A80
2FC0
2A80
2FC0
2080
0000
ENDCHAR
STARTCHAR 327a
ENCODING 12922
SWIDTH 960 0
DWIDTH 10 0
BBX 10 10 0 -2
BITMAP
2FC0
2800
7900
7D40
2B80
2900
2900
3280
2440
0000
ENDCHAR
STARTCHAR 327b
ENCODING 12923
SWIDTH 960 0
DWIDTH 10 0
BBX 10 10 0 -2
BITMAP
2200
3FC0
6A80
6F80
2200
2FC0
2540
2C80
3640
0000
ENDCHAR
STARTCHAR 327c
ENCODING 12924
SWIDTH 960 0
DWIDTH 10 0
BBX 10 10 0 -2
BITMAP
0140
0100
7FC0
2900
2940
7D40
2880
2880
4940
0000
ENDCHAR
STARTCHAR 327d
ENCODING 12925
SWIDTH 960 0
DWIDTH 10 0
BBX 10 10 0 -2
BITMAP
2780
2480
7780
2000
37C0
6240
2240
2440
6980
0000
ENDCHAR
STARTCHAR 327e
ENCODING 12926
SWIDTH 960 0
DWIDTH 10 0
BBX 10 10 0 -2
BITMAP
0200
7200
13C0
7680
4280
4280
5100
7280
0440
0000
ENDCHAR
STARTCHAR 3321
ENCODING 13089
SWIDTH 960 0
DWIDTH 10 0
BBX 10 10 0 -2
BITMAP
1080
7D80
5480
7D80
5480
7FC0
1480
3040
5FC0
0000
ENDCHAR
STARTCHAR 3322
ENCODING 13090
SWIDTH 960 0
DWIDTH 10 0
BBX 10 10 0 -2
BITMAP
0400
77C0
5800
57C0
7540
5FC0
5540
77C0
0040
0000
ENDCHAR
STARTCHAR 3323
ENCODING 13091
SWIDTH 960 0
DWIDTH 10 0
BBX 10 10 0 -2
BITMAP
2140
2100
7FC0
2100
7500
6F40
6540
2480
2140
0000
ENDCHAR
STARTCHAR 3324
ENCODING 13092
SWIDTH 960 0
DWIDTH 10 0
BBX 10 10 0 -2
BITMAP
4800
2FC0
1000
4F80
2A80
1FC0
2A80
2FC0
4180
0000
ENDCHAR
STARTCHAR 3325
ENCODING 13093
SWIDTH 960 0
DWIDTH 10 0
BBX 10 10 0 -2
BITMAP
3FC0
2000
2200
2A80
2A80
2200
2200
4500
58C0
0000
ENDCHAR
STARTCHAR 3326
ENCODING 13094
SWIDTH 960 0
DWIDTH 10 0
BBX 10 10 0 -2
BITMAP
3F80
2480
3F80
2480
3F80
0A00
71C0
1100
2100
0000
ENDCHAR
STARTCHAR 3327
ENCODING 13095
SWIDTH 960 0
DWIDTH 10 0
BBX 10 10 0 -2
BITMAP
4200
7BC0
4200
7BC0
0400
3F80
2080
3F80
3F80
0000
ENDCHAR
STARTCHAR 3328
ENCODING 13096
SWIDTH 960 0
DWIDTH 10 0
BBX 10 10 0 -2
BITMAP
1100
2280
5440
2380
7800
17C0
5100
52C0
1740
0000
ENDCHAR
STARTCHAR 3329
ENCODING 13097
SWIDTH 960 0
DWIDTH 10 0
BBX 10 10 0 -2
BITMAP
1100
7FC0
1100
0400
1B00
60C0
1100
1100
2100
0000
ENDCHAR
STARTCHAR 332a
ENCODING 13098
SWIDTH 960 0
DWIDTH 10 0
BBX 10 10 0 -2
BITMAP
37C0
5240
7BC0
4900
7FC0
2480
3F80
0440
7FC0
0000
ENDCHAR
STARTCHAR 332b
ENCODING 13099
SWIDTH 960 0
DWIDTH 10 0
BBX 10 10 0 -2
BITMAP
7BC0
4A40
7BC0
4040
5F40
4A40
5F40
4A40
52C0
0000
ENDCHAR
STARTCHAR 332c
ENCODING 13100
SWIDTH 960 0
DWIDTH 10 0
BBX 10 10 0 -2
BITMAP
7480
56C0
6480
56C0
5100
67C0
4440
47C0
47C0
0000
ENDCHAR
STARTCHAR 332d
ENCODING 13101
SWIDTH 960 0
DWIDTH 10 0
BBX 10 10 0 -2
BITMAP
3F00
2100
3F00
2100
3F00
2100
3F00
1200
6180
0000
ENDCHAR
STARTCHAR 332e
ENCODING 13102
SWIDTH 960 0
DWIDTH 10 0
BBX 10 10 0 -2
BITMAP
5B80
5A80
7A80
0280
7A80
4A80
7A80
3280
7AC0
0000
ENDCHAR
STARTCHAR 332f
ENCODING 13103
SWIDTH 960 0
DWIDTH 10 0
BBX 10 10 0 -2
BITMAP
2100
7900
23C0
4940
3140
2940
5140
3240
4AC0
0000
ENDCHAR
STARTCHAR 3330
ENCODING 13104
SWIDTH 960 0
DWIDTH 10 0
BBX 10 10 0 -2
BITMAP
2200
3A00
2A00
6B00
5A80
0A40
1200
2200
4200
0000
ENDCHAR
STARTCHAR 3331
ENCODING 13105
SWIDTH 960 0
DWIDTH 10 0
BBX 10 10 0 -2
BITMAP
0100
77C0
5100
5280
5100
5240
7480
0180
0640
0000
ENDCHAR
STARTCHAR 3332
ENCODING 13106
SWIDTH 960 0
DWIDTH 10 0
BBX 10 10 0 -2
BITMAP
0400
7FC0
5F40
0400
3F80
0000
1F00
1100
1F00
0000
ENDCHAR
STARTCHAR 3333
ENCODING 13107
SWIDTH 960 0
DWIDTH 10 0
BBX 10 10 0 -2
BITMAP
2480
2480
7FC0
2200
2F80
2200
2F80
2200
5FC0
0000
ENDCHAR
STARTCHAR 3334
ENCODING 13108
SWIDTH 960 0
DWIDTH 10 0
BBX 10 10 0 -2
BITMAP
2FC0
2A80
7E80
7BC0
2E80
2880
2980
2D80
22C0
0000
ENDCHAR
STARTCHAR 3335
ENCODING 13109
SWIDTH 960 0
DWIDTH 10 0
BBX 10 10 0 -2
BITMAP
2FC0
2A80
7E80
2BC0
7E80
7880
6980
2D80
22C0
0000
ENDCHAR
STARTCHAR 3336
ENCODING 13110
SWIDTH 960 0
DWIDTH 10 0
BBX 10 10 0 -2
BITMAP
4FC0
2900
0B80
4900
2FC0
0900
2B80
2900
57C0
0000
ENDCHAR
STARTCHAR 3337
ENCODING 13111
SWIDTH 960 0
DWIDTH 10 0
BBX 10 10 0 -2
BITMAP
0780
7480
2780
7480
DFC0
5080
5FC0
7280
0180
0000
ENDCHAR
STARTCHAR 3338
ENCODING 13112
SWIDTH 960 0
DWIDTH 10 0
BBX 10 10 0 -2
BITMAP
1100
7FC0
1500
7BC0
1F00
0080
3F80
2A80
7FC0
0000
ENDCHAR
STARTCHAR 3339
ENCODING 13113
SWIDTH 960 0
DWIDTH 10 0
BBX 10 10 0 -2
BITMAP
1400
2EC0
5400
2EC0
6080
2480
2E80
2480
2E80
0000
ENDCHAR
STARTCHAR 333a
ENCODING 13114
SWIDTH 960 0
DWIDTH 10 0
BBX 10 10 0 -2
BITMAP
7100
07C0
7100
0280
7140
0280
7500
5280
7440
0000
ENDCHAR
STARTCHAR 333b
ENCODING 13115
SWIDTH 960 0
DWIDTH 10 0
BBX 10 10 0 -2
BITMAP
1540
2D40
77C0
1000
7FC0
1440
57C0
3280
67C0
0000
ENDCHAR
STARTCHAR 333c
ENCODING 13116
SWIDTH 960 0
DWIDTH 10 0
BBX 10 10 0 -2
BITMAP
3880
29C0
7C80
4540
3880
2900
3840
2880
2940
0000
ENDCHAR
STARTCHAR 333d
ENCODING 13117
SWIDTH 960 0
DWIDTH 10 0
BBX 10 10 0 -2
BITMAP
4F80
2A80
0F80
4A80
2F80
0200
2F80
2200
5FC0
0000
ENDCHAR
STARTCHAR 333e
ENCODING 13118
SWIDTH 960 0
DWIDTH 10 0
BBX 10 10 0 -2
BITMAP
7B80
14C0
3B80
4EC0
3F80
1500
3F80
5140
1F00
0000
ENDCHAR
STARTCHAR 333f
ENCODING 13119
SWIDTH 960 0
DWIDTH 10 0
BBX 10 10 0 -2
BITMAP
2100
2380
7900
6FC0
6800
7900
2380
3900
6FC0
0000
ENDCHAR
STARTCHAR 3340
ENCODING 13120
SWIDTH 960 0
DWIDTH 10 0
BBX 10 10 0 -2
BITMAP
2FC0
2000
7780
2480
2780
2480
3780
6000
0FC0
0000
ENDCHAR
STARTCHAR 3341
ENCODING 13121
SWIDTH 960 0
DWIDTH 10 0
BBX 10 10 0 -2
BITMAP
1100
17C0
7900
17C0
3540
3540
5540
1540
1100
0000
ENDCHAR
STARTCHAR 3342
ENCODING 13122
SWIDTH 960 0
DWIDTH 10 0
BBX 10 10 0 -2
BITMAP
27C0
2400
77C0
5500
5500
75C0
2540
3540
5540
0000
ENDCHAR
STARTCHAR 3343
ENCODING 13123
SWIDTH 960 0
DWIDTH 10 0
BBX 10 10 0 -2
BITMAP
1200
2A00
7BC0
1440
7D40
1240
5BC0
3040
6180
0000
ENDCHAR
STARTCHAR 3344
ENCODING 13124
SWIDTH 960 0
DWIDTH 10 0
BBX 10 10 0 -2
BITMAP
1040
7D40
1540
7D40
7D40
5540
7D40
0040
7CC0
0000
ENDCHAR
STARTCHAR 3345
ENCODING 13125
SWIDTH 960 0
DWIDTH 10 0
BBX 10 10 0 -2
BITMAP
0480
7FC0
6480
7FC0
6D80
7B40
6D80
6D80
1680
0000
ENDCHAR
STARTCHAR 3346
ENCODING 13126
SWIDTH 960 0
DWIDTH 10 0
BBX 10 10 0 -2
BITMAP
0F00
1100
6A00
0400
1B00
60C0
1F00
1100
1F00
0000
ENDCHAR
STARTCHAR 3347
ENCODING 13127
SWIDTH 960 0
DWIDTH 10 0
BBX 10 10 0 -2
BITMAP
0200
7FC0
4800
5DC0
4140
5D80
4940
5DC0
5900
0000
ENDCHAR
STARTCHAR 3348
ENCODING 13128
SWIDTH 960 0
DWIDTH 10 0
BBX 10 10 0 -2
BITMAP
2100
27C0
7400
2500
3500
6500
2500
2A40
6BC0
0000
ENDCHAR
STARTCHAR 3349
ENCODING 13129
SWIDTH 960 0
DWIDTH 10 0
BBX 10 10 0 -2
BITMAP
2540
2FC0
6840
2780
3480
6480
2780
2340
6CC0
0000
ENDCHAR
STARTCHAR 334a
ENCODING 13130
SWIDTH 960 0
DWIDTH 10 0
BBX 10 10 0 -2
BITMAP
1380
1280
7680
1100
3A80
3440
5380
1280
1380
0000
ENDCHAR
STARTCHAR 334b
ENCODING 13131
SWIDTH 960 0
DWIDTH 10 0
BBX 10 10 0 -2
BITMAP
1100
17C0
7900
1280
3900
3280
5500
1280
1440
0000
ENDCHAR
STARTCHAR 334c
ENCODING 13132
SWIDTH 960 0
DWIDTH 10 0
BBX 10 10 0 -2
BITMAP
2380
7280
26C0
7000
0380
7280
5100
5280
5A80
0000
ENDCHAR
STARTCHAR 334d
ENCODING 13133
SWIDTH 960 0
DWIDTH 10 0
BBX 10 10 0 -2
BITMAP
4480
2FC0
7500
2FC0
2500
67C0
2480
2300
4CC0
0000
ENDCHAR
STARTCHAR 334e
ENCODING 13134
SWIDTH 960 0
DWIDTH 10 0
BBX 10 10 0 -2
BITMAP
0100
77C0
2440
7280
57C0
5D00
57C0
7500
07C0
0000
ENDCHAR
STARTCHAR 334f
ENCODING 13135
SWIDTH 960 0
DWIDTH 10 0
BBX 10 10 0 -2
BITMAP
7480
2FC0
7500
2FC0
7500
77C0
6480
2300
2CC0
0000
ENDCHAR
STARTCHAR 3350
ENCODING 13136
SWIDTH 960 0
DWIDTH 10 0
BBX 10 10 0 -2
BITMAP
2880
1500
7FC0
5140
1F00
1100
1F00
0A40
73C0
0000
ENDCHAR
STARTCHAR 3351
ENCODING 13137
SWIDTH 960 0
DWIDTH 10 0
BBX 10 10 0 -2
BITMAP
1E00
2200
7F80
2480
3F80
2480
3F80
2080
4180
0000
ENDCHAR
STARTCHAR 3352
ENCODING 13138
SWIDTH 960 0
DWIDTH 10 0
BBX 10 10 0 -2
BITMAP
1100
3B80
1100
7FC0
2A80
6EC0
6EC0
2A80
5A80
0000
ENDCHAR
STARTCHAR 3353
ENCODING 13139
SWIDTH 960 0
DWIDTH 10 0
BBX 10 10 0 -2
BITMAP
2100
77C0
2280
7440
5280
7280
2100
7280
2440
0000
ENDCHAR
STARTCHAR 3354
ENCODING 13140
SWIDTH 960 0
DWIDTH 10 0
BBX 10 10 0 -2
BITMAP
1000
7BC0
3240
0280
7A40
1240
7A40
1380
3200
0000
ENDCHAR
STARTCHAR 3355
ENCODING 13141
SWIDTH 960 0
DWIDTH 10 0
BBX 10 10 0 -2
BITMAP
7BC0
4A40
7BC0
4640
4A40
4440
4E40
5B40
4E40
0000
ENDCHAR
STARTCHAR 3356
ENCODING 13142
SWIDTH 960 0
DWIDTH 10 0
BBX 10 10 0 -2
BITMAP
77C0
5000
6380
5380
5000
57C0
66C0
4540
4540
0000
ENDCHAR
STARTCHAR 3357
ENCODING 13143
SWIDTH 960 0
DWIDTH 10 0
BBX 10 10 0 -2
BITMAP
0A00
7FC0
0A00
3F80
2480
3F80
0400
7FC0
0400
0000
ENDCHAR
STARTCHAR 3358
ENCODING 13144
SWIDTH 960 0
DWIDTH 10 0
BBX 10 10 0 -2
BITMAP
2880
1500
7FC0
4040
1F00
0200
7FC0
0400
0C00
0000
ENDCHAR
STARTCHAR 3359
ENCODING 13145
SWIDTH 960 0
DWIDTH 10 0
BBX 10 10 0 -2
BITMAP
0300
3C00
2000
3F80
2200
7FC0
0400
2480
3F80
0000
ENDCHAR
STARTCHAR 335a
ENCODING 13146
SWIDTH 960 0
DWIDTH 10 0
BBX 10 10 0 -2
BITMAP
0400
5F40
1100
3180
5F40
0400
7FC0
1500
64C0
0000
ENDCHAR
STARTCHAR 335b
ENCODING 13147
SWIDTH 960 0
DWIDTH 10 0
BBX 10 10 0 -2
BITMAP
23C0
7900
4BC0
3240
53C0
2240
7BC0
4980
7A40
0000
ENDCHAR
STARTCHAR 335c
ENCODING 13148
SWIDTH 960 0
DWIDTH 10 0
BBX 10 10 0 -2
BITMAP
7BC0
6900
7BC0
0240
7BC0
2240
7BC0
0880
3240
0000
ENDCHAR
STARTCHAR 335d
ENCODING 13149
SWIDTH 960 0
DWIDTH 10 0
BBX 10 10 0 -2
BITMAP
2480
2E80
7480
2E80
34C0
6480
2E80
2480
6E80
0000
ENDCHAR
STARTCHAR 335e
ENCODING 13150
SWIDTH 960 0
DWIDTH 10 0
BBX 10 10 0 -2
BITMAP
2100
39C0
5280
0400
3F80
0100
1100
0A00
7FC0
0000
ENDCHAR
STARTCHAR 335f
ENCODING 13151
SWIDTH 960 0
DWIDTH 10 0
BBX 10 10 0 -2
BITMAP
2FC0
2940
7C80
2F40
7000
7100
67C0
2100
2FC0
0000
ENDCHAR
STARTCHAR 3360
ENCODING 13152
SWIDTH 960 0
DWIDTH 10 0
BBX 10 10 0 -2
BITMAP
2FC0
2480
7780
2480
7FC0
7480
6780
2480
2FC0
0000
ENDCHAR
STARTCHAR 3361
ENCODING 13153
SWIDTH 960 0
DWIDTH 10 0
BBX 10 10 0 -2
BITMAP
27C0
2440
77C0
2400
77C0
7500
67C0
2500
29C0
0000
ENDCHAR
STARTCHAR 3362
ENCODING 13154
SWIDTH 960 0
DWIDTH 10 0
BBX 10 10 0 -2
BITMAP
3E80
5480
2EC0
75C0
5680
7E80
0C80
5540
5540
0000
ENDCHAR
STARTCHAR 3363
ENCODING 13155
SWIDTH 960 0
DWIDTH 10 0
BBX 10 10 0 -2
BITMAP
4D80
2880
0D80
4880
2F80
0400
2FC0
2040
5540
0000
ENDCHAR
STARTCHAR 3364
ENCODING 13156
SWIDTH 960 0
DWIDTH 10 0
BBX 10 10 0 -2
BITMAP
1040
7D40
5540
3940
1140
7D40
0140
3840
38C0
0000
ENDCHAR
STARTCHAR 3365
ENCODING 13157
SWIDTH 960 0
DWIDTH 10 0
BBX 10 10 0 -2
BITMAP
0780
7480
5780
5780
5200
57C0
5A40
7340
0080
0000
ENDCHAR
STARTCHAR 3366
ENCODING 13158
SWIDTH 960 0
DWIDTH 10 0
BBX 10 10 0 -2
BITMAP
2300
2480
7840
7780
2000
2780
2480
2480
2780
0000
ENDCHAR
STARTCHAR 3367
ENCODING 13159
SWIDTH 960 0
DWIDTH 10 0
BBX 10 10 0 -2
BITMAP
20C0
2700
7100
27C0
3100
6100
27C0
2440
67C0
0000
ENDCHAR
STARTCHAR 3368
ENCODING 13160
SWIDTH 960 0
DWIDTH 10 0
BBX 10 10 0 -2
BITMAP
4180
2E00
0200
5FC0
2200
0200
2F80
2880
4F80
0000
ENDCHAR
STARTCHAR 3369
ENCODING 13161
SWIDTH 960 0
DWIDTH 10 0
BBX 10 10 0 -2
BITMAP
4F80
2880
0F80
4F80
2400
0FC0
3440
2740
4080
0000
ENDCHAR
STARTCHAR 336a
ENCODING 13162
SWIDTH 960 0
DWIDTH 10 0
BBX 10 10 0 -2
BITMAP
4780
2480
0FC0
4840
2780
0480
2780
2480
4580
0000
ENDCHAR
STARTCHAR 336b
ENCODING 13163
SWIDTH 960 0
DWIDTH 10 0
BBX 10 10 0 -2
BITMAP
0A00
7FC0
1100
1F00
0800
1FC0
2840
4E40
0180
0000
ENDCHAR
STARTCHAR 336c
ENCODING 13164
SWIDTH 960 0
DWIDTH 10 0
BBX 10 10 0 -2
BITMAP
2780
7480
1780
2780
2A00
77C0
2A40
2340
2080
0000
ENDCHAR
STARTCHAR 336d
ENCODING 13165
SWIDTH 960 0
DWIDTH 10 0
BBX 10 10 0 -2
BITMAP
2100
77C0
2540
7380
5100
77C0
2000
7380
2380
0000
ENDCHAR
STARTCHAR 336e
ENCODING 13166
SWIDTH 960 0
DWIDTH 10 0
BBX 10 10 0 -2
BITMAP
0000
1F00
1100
1F00
1100
1F00
1100
1100
7FC0
0000
ENDCHAR
STARTCHAR 336f
ENCODING 13167
SWIDTH 960 0
DWIDTH 10 0
BBX 10 10 0 -2
BITMAP
37C0
5540
2740
7480
5740
7100
0380
5100
57C0
0000
ENDCHAR
STARTCHAR 3370
ENCODING 13168
SWIDTH 960 0
DWIDTH 10 0
BBX 10 10 0 -2
BITMAP
0100
7100
5100
57C0
5100
5100
7100
0100
0100
0000
ENDCHAR
STARTCHAR 3371
ENCODING 13169
SWIDTH 960 0
DWIDTH 10 0
BBX 10 10 0 -2
BITMAP
2480
2FC0
7480
2100
7540
7580
6D00
2540
25C0
0000
ENDCHAR
STARTCHAR 3372
ENCODING 13170
SWIDTH 960 0
DWIDTH 10 0
BBX 10 10 0 -2
BITMAP
2280
2FC0
7280
2FC0
7540
7FC0
6540
2FC0
2100
0000
ENDCHAR
STARTCHAR 3373
ENCODING 13171
SWIDTH 960 0
DWIDTH 10 0
BBX 10 10 0 -2
BITMAP
2900
7DC0
2A40
7D80
5480
7D80
1100
7D40
11C0
0000
ENDCHAR
STARTCHAR 3374
ENCODING 13172
SWIDTH 960 0
DWIDTH 10 0
BBX 10 10 0 -2
BITMAP
1100
1500
77C0
1100
37C0
3900
5380
1540
1100
0000
ENDCHAR
STARTCHAR 3375
ENCODING 13173
SWIDTH 960 0
DWIDTH 10 0
BBX 10 10 0 -2
BITMAP
0400
2EC0
4A40
4E40
4A40
6EC0
0000
1240
63C0
0000
ENDCHAR
STARTCHAR 3376
ENCODING 13174
SWIDTH 960 0
DWIDTH 10 0
BBX 10 10 0 -2
BITMAP
0400
7FC0
4A40
5F00
1500
3F80
2480
3F80
07C0
0000
ENDCHAR
STARTCHAR 3377
ENCODING 13175
SWIDTH 960 0
DWIDTH 10 0
BBX 10 10 0 -2
BITMAP
1100
7FC0
1140
67C0
0100
67C0
0540
27C0
4540
0000
ENDCHAR
STARTCHAR 3378
ENCODING 13176
SWIDTH 960 0
DWIDTH 10 0
BBX 10 10 0 -2
BITMAP
0A00
3180
0E00
1100
6EC0
0400
3F80
1500
7FC0
0000
ENDCHAR
STARTCHAR 3379
ENCODING 13177
SWIDTH 960 0
DWIDTH 10 0
BBX 10 10 0 -2
BITMAP
1480
2FC0
7500
1F80
75C0
1F80
5500
3D80
6540
0000
ENDCHAR
STARTCHAR 337a
ENCODING 13178
SWIDTH 960 0
DWIDTH 10 0
BBX 10 10 0 -2
BITMAP
01C0
0500
77C0
5000
57C0
5540
56C0
7540
07C0
0000
ENDCHAR
STARTCHAR 337b
ENCODING 13179
SWIDTH 960 0
DWIDTH 10 0
BBX 10 10 0 -2
BITMAP
0200
7780
5480
77C0
5400
77C0
2040
2B40
2880
0000
ENDCHAR
STARTCHAR 337c
ENCODING 13180
SWIDTH 960 0
DWIDTH 10 0
BBX 10 10 0 -2
BITMAP
17C0
1200
7FC0
1440
3C40
37C0
5440
1440
17C0
0000
ENDCHAR
STARTCHAR 337d
ENCODING 13181
SWIDTH 960 0
DWIDTH 10 0
BBX 10 10 0 -2
BITMAP
1100
7FC0
1100
3F80
0200
7FC0
1A40
6280
0E00
0000
ENDCHAR
STARTCHAR 337e
ENCODING 13182
SWIDTH 960 0
DWIDTH 10 0
BBX 10 10 0 -2
BITMAP
1100
7FC0
1500
7FC0
4040
1F00
1100
1F00
7FC0
0000
ENDCHAR
STARTCHAR 3421
ENCODING 13345
SWIDTH 960 0
DWIDTH 10 0
BBX 10 10 0 -2
BITMAP
64C0
2E40
6EC0
4480
4E80
64C0
2E40
2E40
4480
0000
ENDCHAR
STARTCHAR 3422
ENCODING 13346
SWIDTH 960 0
DWIDTH 10 0
BBX 10 10 0 -2
BITMAP
0840
0A40
4A40
3240
1240
1240
2840
2840
40C0
0000
ENDCHAR
STARTCHAR 3423
ENCODING 13347
SWIDTH 960 0
DWIDTH 10 0
BBX 10 10 0 -2
BITMAP
1100
7FC0
1100
0880
2A80
1280
1280
2880
4180
0000
ENDCHAR
STARTCHAR 3424
ENCODING 13348
SWIDTH 960 0
DWIDTH 10 0
BBX 10 10 0 -2
BITMAP
7FC0
0800
0F00
0900
0D00
1500
1300
0D40
71C0
0000
ENDCHAR
STARTCHAR 3425
ENCODING 13349
SWIDTH 960 0
DWIDTH 10 0
BBX 10 10 0 -2
BITMAP
2200
73C0
2400
7380
5080
7100
2200
7440
23C0
0000
ENDCHAR
STARTCHAR 3426
ENCODING 13350
SWIDTH 960 0
DWIDTH 10 0
BBX 10 10 0 -2
BITMAP
1F80
1880
2880
2F80
6000
2A80
2A80
2A80
32C0
0000
ENDCHAR
STARTCHAR 3427
ENCODING 13351
SWIDTH 960 0
DWIDTH 10 0
BBX 10 10 0 -2
BITMAP
7FC0
4040
3880
03C0
7C80
2A80
2980
2840
4FC0
0000
ENDCHAR
STARTCHAR 3428
ENCODING 13352
SWIDTH 960 0
DWIDTH 10 0
BBX 10 10 0 -2
BITMAP
0400
7FC0
4A40
3F80
0A00
7FC0
1500
68C0
0600
0000
ENDCHAR
STARTCHAR 3429
ENCODING 13353
SWIDTH 960 0
DWIDTH 10 0
BBX 10 10 0 -2
BITMAP
0040
7D40
1140
1140
7D40
1140
1140
1040
10C0
0000
ENDCHAR
STARTCHAR 342a
ENCODING 13354
SWIDTH 960 0
DWIDTH 10 0
BBX 10 10 0 -2
BITMAP
2900
7D00
2BC0
3940
2940
7D40
2940
2240
3AC0
0000
ENDCHAR
STARTCHAR 342b
ENCODING 13355
SWIDTH 960 0
DWIDTH 10 0
BBX 10 10 0 -2
BITMAP
2100
3D00
53C0
3940
3D40
6940
3D40
2A40
3EC0
0000
ENDCHAR
STARTCHAR 342c
ENCODING 13356
SWIDTH 960 0
DWIDTH 10 0
BBX 10 10 0 -2
BITMAP
1500
3F80
0400
7FC0
1100
2E80
5E40
1080
1F80
0000
ENDCHAR
STARTCHAR 342d
ENCODING 13357
SWIDTH 960 0
DWIDTH 10 0
BBX 10 10 0 -2
BITMAP
0300
7500
5F80
5580
5480
5FC0
5200
7500
08C0
0000
ENDCHAR
STARTCHAR 342e
ENCODING 13358
SWIDTH 960 0
DWIDTH 10 0
BBX 10 10 0 -2
BITMAP
2480
2FC0
7480
2780
2480
2FC0
3680
6400
07C0
0000
ENDCHAR
STARTCHAR 342f
ENCODING 13359
SWIDTH 960 0
DWIDTH 10 0
BBX 10 10 0 -2
BITMAP
0400
3F80
0A00
0600
1900
7FC0
2A80
1100
6AC0
0000
ENDCHAR
STARTCHAR 3430
ENCODING 13360
SWIDTH 960 0
DWIDTH 10 0
BBX 10 10 0 -2
BITMAP
0400
7FC0
4040
1F00
0000
7FC0
0A00
1240
63C0
0000
ENDCHAR
STARTCHAR 3431
ENCODING 13361
SWIDTH 960 0
DWIDTH 10 0
BBX 10 10 0 -2
BITMAP
0400
7FC0
4040
1F00
1F00
1000
1F80
1080
1F80
0000
ENDCHAR
STARTCHAR 3432
ENCODING 13362
SWIDTH 960 0
DWIDTH 10 0
BBX 10 10 0 -2
BITMAP
0400
7FC0
4A40
3F80
1100
1100
1F00
0A40
73C0
0000
ENDCHAR
STARTCHAR 3433
ENCODING 13363
SWIDTH 960 0
DWIDTH 10 0
BBX 10 10 0 -2
BITMAP
3F80
0400
0400
7FC0
0400
0400
0400
0400
0400
0000
ENDCHAR
STARTCHAR 3434
ENCODING 13364
SWIDTH 960 0
DWIDTH 10 0
BBX 10 10 0 -2
BITMAP
2100
7280
2440
7380
5100
77C0
2100
7100
2100
0000
ENDCHAR
STARTCHAR 3435
ENCODING 13365
SWIDTH 960 0
DWIDTH 10 0
BBX 10 10 0 -2
BITMAP
0400
1F00
1500
3F80
2480
3F80
0400
5240
5F40
0000
ENDCHAR
STARTCHAR 3436
ENCODING 13366
SWIDTH 960 0
DWIDTH 10 0
BBX 10 10 0 -2
BITMAP
0480
7FC0
4200
5D40
5480
5D40
0400
5240
5F40
0000
ENDCHAR
STARTCHAR 3437
ENCODING 13367
SWIDTH 960 0
DWIDTH 10 0
BBX 10 10 0 -2
BITMAP
2780
2CC0
7780
7000
2780
2480
2480
2780
2840
0000
ENDCHAR
STARTCHAR 3438
ENCODING 13368
SWIDTH 960 0
DWIDTH 10 0
BBX 10 10 0 -2
BITMAP
2140
2FC0
7900
7F40
2E80
2840
2100
2A40
2B40
0000
ENDCHAR
STARTCHAR 3439
ENCODING 13369
SWIDTH 960 0
DWIDTH 10 0
BBX 10 10 0 -2
BITMAP
2300
2500
6F80
2580
3480
6FC0
2200
2500
68C0
0000
ENDCHAR
STARTCHAR 343a
ENCODING 13370
SWIDTH 960 0
DWIDTH 10 0
BBX 10 10 0 -2
BITMAP
3A00
1200
7BC0
2E80
3A80
2A80
3900
6900
0AC0
0000
ENDCHAR
STARTCHAR 343b
ENCODING 13371
SWIDTH 960 0
DWIDTH 10 0
BBX 10 10 0 -2
BITMAP
1480
1480
7FC0
1480
3C80
3780
5480
1480
1780
0000
ENDCHAR
STARTCHAR 343c
ENCODING 13372
SWIDTH 960 0
DWIDTH 10 0
BBX 10 10 0 -2
BITMAP
17C0
1000
7B80
1280
3380
3A80
5380
1000
17C0
0000
ENDCHAR
STARTCHAR 343d
ENCODING 13373
SWIDTH 960 0
DWIDTH 10 0
BBX 10 10 0 -2
BITMAP
1100
17C0
7C40
1380
3380
3A00
53C0
1240
13C0
0000
ENDCHAR
STARTCHAR 343e
ENCODING 13374
SWIDTH 960 0
DWIDTH 10 0
BBX 10 10 0 -2
BITMAP
1200
7E00
13C0
3A40
0540
7900
1100
5A80
5440
0000
ENDCHAR
STARTCHAR 343f
ENCODING 13375
SWIDTH 960 0
DWIDTH 10 0
BBX 10 10 0 -2
BITMAP
2200
3A00
53C0
3A40
3D40
6900
3D00
2A80
3A40
0000
ENDCHAR
STARTCHAR 3440
ENCODING 13376
SWIDTH 960 0
DWIDTH 10 0
BBX 10 10 0 -2
BITMAP
4000
2F80
0200
4200
2F80
0200
2200
2200
4200
0000
ENDCHAR
STARTCHAR 3441
ENCODING 13377
SWIDTH 960 0
DWIDTH 10 0
BBX 10 10 0 -2
BITMAP
4500
3FC0
0A80
4F80
2200
0F80
2200
2500
58C0
0000
ENDCHAR
STARTCHAR 3442
ENCODING 13378
SWIDTH 960 0
DWIDTH 10 0
BBX 10 10 0 -2
BITMAP
5DC0
3540
1DC0
5040
3740
1540
3740
5540
5740
0000
ENDCHAR
STARTCHAR 3443
ENCODING 13379
SWIDTH 960 0
DWIDTH 10 0
BBX 10 10 0 -2
BITMAP
4400
27C0
0A00
4780
27C0
0D00
2780
2500
47C0
0000
ENDCHAR
STARTCHAR 3444
ENCODING 13380
SWIDTH 960 0
DWIDTH 10 0
BBX 10 10 0 -2
BITMAP
0FC0
7B40
2FC0
2000
7780
2480
3740
6A80
1240
0000
ENDCHAR
STARTCHAR 3445
ENCODING 13381
SWIDTH 960 0
DWIDTH 10 0
BBX 10 10 0 -2
BITMAP
1100
1100
7FC0
1100
1100
1F00
1100
1100
1F00
0000
ENDCHAR
STARTCHAR 3446
ENCODING 13382
SWIDTH 960 0
DWIDTH 10 0
BBX 10 10 0 -2
BITMAP
7900
51C0
7A00
5000
7BC0
0000
3F80
2A80
7FC0
0000
ENDCHAR
STARTCHAR 3447
ENCODING 13383
SWIDTH 960 0
DWIDTH 10 0
BBX 10 10 0 -2
BITMAP
3F80
0800
3F80
1000
7FC0
1080
3F80
5080
1F80
0000
ENDCHAR
STARTCHAR 3448
ENCODING 13384
SWIDTH 960 0
DWIDTH 10 0
BBX 10 10 0 -2
BITMAP
2100
39C0
5280
0000
3F80
0400
7FC0
0400
0400
0000
ENDCHAR
STARTCHAR 3449
ENCODING 13385
SWIDTH 960 0
DWIDTH 10 0
BBX 10 10 0 -2
BITMAP
2100
39C0
5280
7FC0
5F40
1000
1F80
1080
1F80
0000
ENDCHAR
STARTCHAR 344a
ENCODING 13386
SWIDTH 960 0
DWIDTH 10 0
BBX 10 10 0 -2
BITMAP
2100
39C0
5280
7BC0
7BC0
4040
4E40
4A40
4EC0
0000
ENDCHAR
STARTCHAR 344b
ENCODING 13387
SWIDTH 960 0
DWIDTH 10 0
BBX 10 10 0 -2
BITMAP
10C0
2740
5280
27C0
7A00
13C0
5B40
5480
1540
0000
ENDCHAR
STARTCHAR 344c
ENCODING 13388
SWIDTH 960 0
DWIDTH 10 0
BBX 10 10 0 -2
BITMAP
1000
1F80
2400
0400
7FC0
0400
2480
2480
3F80
0000
ENDCHAR
STARTCHAR 344d
ENCODING 13389
SWIDTH 960 0
DWIDTH 10 0
BBX 10 10 0 -2
BITMAP
2300
7480
2840
76C0
5240
76C0
2240
76C0
2240
0000
ENDCHAR
STARTCHAR 344e
ENCODING 13390
SWIDTH 960 0
DWIDTH 10 0
BBX 10 10 0 -2
BITMAP
77C0
5100
7100
57C0
5100
7100
5100
5100
5100
0000
ENDCHAR
STARTCHAR 344f
ENCODING 13391
SWIDTH 960 0
DWIDTH 10 0
BBX 10 10 0 -2
BITMAP
2680
74C0
5680
5400
F6C0
5000
5380
5280
57C0
0000
ENDCHAR
STARTCHAR 3450
ENCODING 13392
SWIDTH 960 0
DWIDTH 10 0
BBX 10 10 0 -2
BITMAP
1100
7FC0
1500
7FC0
5F40
0000
7FC0
1200
63C0
0000
ENDCHAR
STARTCHAR 3451
ENCODING 13393
SWIDTH 960 0
DWIDTH 10 0
BBX 10 10 0 -2
BITMAP
23C0
3A40
53C0
3240
3BC0
6A40
3BC0
2980
3AC0
0000
ENDCHAR
STARTCHAR 3452
ENCODING 13394
SWIDTH 960 0
DWIDTH 10 0
BBX 10 10 0 -2
BITMAP
7100
07C0
7100
07C0
7540
07C0
7100
5380
7540
0000
ENDCHAR
STARTCHAR 3453
ENCODING 13395
SWIDTH 960 0
DWIDTH 10 0
BBX 10 10 0 -2
BITMAP
1F00
75C0
1F00
0000
1F00
1100
1100
1F00
60C0
0000
ENDCHAR
STARTCHAR 3454
ENCODING 13396
SWIDTH 960 0
DWIDTH 10 0
BBX 10 10 0 -2
BITMAP
4FC0
2B40
0FC0
6480
2780
2340
2E80
2240
5FC0
0000
ENDCHAR
STARTCHAR 3455
ENCODING 13397
SWIDTH 960 0
DWIDTH 10 0
BBX 10 10 0 -2
BITMAP
1680
2CC0
7600
1400
76C0
1000
5B80
3280
67C0
0000
ENDCHAR
STARTCHAR 3456
ENCODING 13398
SWIDTH 960 0
DWIDTH 10 0
BBX 10 10 0 -2
BITMAP
7BC0
4A40
7BC0
4040
4E40
4A40
4E40
4A40
4EC0
0000
ENDCHAR
STARTCHAR 3457
ENCODING 13399
SWIDTH 960 0
DWIDTH 10 0
BBX 10 10 0 -2
BITMAP
7BC0
4A40
7BC0
4440
5F40
4440
4E40
5540
44C0
0000
ENDCHAR
STARTCHAR 3458
ENCODING 13400
SWIDTH 960 0
DWIDTH 10 0
BBX 10 10 0 -2
BITMAP
7BC0
4A40
7BC0
4A40
5F40
4440
5F40
4A40
5140
0000
ENDCHAR
STARTCHAR 3459
ENCODING 13401
SWIDTH 960 0
DWIDTH 10 0
BBX 10 10 0 -2
BITMAP
7380
5480
6100
5000
55C0
5540
65C0
4540
45C0
0000
ENDCHAR
STARTCHAR 345a
ENCODING 13402
SWIDTH 960 0
DWIDTH 10 0
BBX 10 10 0 -2
BITMAP
2200
7780
2280
77C0
5100
77C0
2280
77C0
2080
0000
ENDCHAR
STARTCHAR 345b
ENCODING 13403
SWIDTH 960 0
DWIDTH 10 0
BBX 10 10 0 -2
BITMAP
2100
57C0
0C40
7380
5380
7200
4380
5280
7380
0000
ENDCHAR
STARTCHAR 345c
ENCODING 13404
SWIDTH 960 0
DWIDTH 10 0
BBX 10 10 0 -2
BITMAP
2100
57C0
7440
2380
7380
2200
7380
5280
7380
0000
ENDCHAR
STARTCHAR 345d
ENCODING 13405
SWIDTH 960 0
DWIDTH 10 0
BBX 10 10 0 -2
BITMAP
0800
0800
3F00
0900
3900
0D00
0900
1140
61C0
0000
ENDCHAR
STARTCHAR 345e
ENCODING 13406
SWIDTH 960 0
DWIDTH 10 0
BBX 10 10 0 -2
BITMAP
0E00
1100
2E80
4040
1F00
0200
3F80
2080
3F80
0000
ENDCHAR
STARTCHAR 345f
ENCODING 13407
SWIDTH 960 0
DWIDTH 10 0
BBX 10 10 0 -2
BITMAP
2480
3F80
0000
3FC0
2000
2F80
2200
5FC0
4200
0000
ENDCHAR
STARTCHAR 3460
ENCODING 13408
SWIDTH 960 0
DWIDTH 10 0
BBX 10 10 0 -2
BITMAP
2440
3FC0
1280
3FC0
2500
3FC0
3540
5C80
4540
0000
ENDCHAR
STARTCHAR 3461
ENCODING 13409
SWIDTH 960 0
DWIDTH 10 0
BBX 10 10 0 -2
BITMAP
0380
7000
2000
27C0
7280
2280
3280
6480
08C0
0000
ENDCHAR
STARTCHAR 3462
ENCODING 13410
SWIDTH 960 0
DWIDTH 10 0
BBX 10 10 0 -2
BITMAP
0200
3FC0
2500
6FC0
2A40
6FC0
2200
2A40
4FC0
0000
ENDCHAR
STARTCHAR 3463
ENCODING 13411
SWIDTH 960 0
DWIDTH 10 0
BBX 10 10 0 -2
BITMAP
0780
7480
5780
7480
5780
7540
5580
7680
0C40
0000
ENDCHAR
STARTCHAR 3464
ENCODING 13412
SWIDTH 960 0
DWIDTH 10 0
BBX 10 10 0 -2
BITMAP
2480
3F80
0000
7FC0
0800
1F80
3080
5080
1F80
0000
ENDCHAR
STARTCHAR 3465
ENCODING 13413
SWIDTH 960 0
DWIDTH 10 0
BBX 10 10 0 -2
BITMAP
7B80
2800
7800
2FC0
2280
7A80
4A80
7A80
7AC0
0000
ENDCHAR
STARTCHAR 3466
ENCODING 13414
SWIDTH 960 0
DWIDTH 10 0
BBX 10 10 0 -2
BITMAP
3FC0
2500
3BC0
2900
2FC0
2880
2880
4F80
5040
0000
ENDCHAR
STARTCHAR 3467
ENCODING 13415
SWIDTH 960 0
DWIDTH 10 0
BBX 10 10 0 -2
BITMAP
3FC0
2500
27C0
2A80
2BC0
3A80
2BC0
4A80
4BC0
0000
ENDCHAR
STARTCHAR 3468
ENCODING 13416
SWIDTH 960 0
DWIDTH 10 0
BBX 10 10 0 -2
BITMAP
03C0
3900
03C0
7E40
2BC0
2A40
2FC0
4900
0240
0000
ENDCHAR
STARTCHAR 3469
ENCODING 13417
SWIDTH 960 0
DWIDTH 10 0
BBX 10 10 0 -2
BITMAP
23C0
7900
33C0
7A40
53C0
4A40
53C0
4980
5240
0000
ENDCHAR
STARTCHAR 346a
ENCODING 13418
SWIDTH 960 0
DWIDTH 10 0
BBX 10 10 0 -2
BITMAP
7DC0
4880
5DC0
5540
5DC0
4940
5DC0
5880
4940
0000
ENDCHAR
STARTCHAR 346b
ENCODING 13419
SWIDTH 960 0
DWIDTH 10 0
BBX 10 10 0 -2
BITMAP
0400
0A00
1100
64C0
0400
1700
1400
1400
7FC0
0000
ENDCHAR
STARTCHAR 346c
ENCODING 13420
SWIDTH 960 0
DWIDTH 10 0
BBX 10 10 0 -2
BITMAP
1100
1100
27C0
2100
6380
2280
2100
2280
2440
0000
ENDCHAR
STARTCHAR 346d
ENCODING 13421
SWIDTH 960 0
DWIDTH 10 0
BBX 10 10 0 -2
BITMAP
1E00
2200
7F80
2000
2F00
2900
2B00
4840
4FC0
0000
ENDCHAR
STARTCHAR 346e
ENCODING 13422
SWIDTH 960 0
DWIDTH 10 0
BBX 10 10 0 -2
BITMAP
0400
7FC0
3F80
1100
1F00
0A00
7FC0
1100
1F00
0000
ENDCHAR
STARTCHAR 346f
ENCODING 13423
SWIDTH 960 0
DWIDTH 10 0
BBX 10 10 0 -2
BITMAP
3B80
2A80
3B80
0400
7FC0
2080
7BC0
2A80
3B80
0000
ENDCHAR
STARTCHAR 3470
ENCODING 13424
SWIDTH 960 0
DWIDTH 10 0
BBX 10 10 0 -2
BITMAP
1100
7FC0
1F00
1100
7FC0
1500
2E80
4440
3F80
0000
ENDCHAR
STARTCHAR 3471
ENCODING 13425
SWIDTH 960 0
DWIDTH 10 0
BBX 10 10 0 -2
BITMAP
0400
7FC0
0A00
1100
7FC0
0100
3900
3900
0300
0000
ENDCHAR
STARTCHAR 3472
ENCODING 13426
SWIDTH 960 0
DWIDTH 10 0
BBX 10 10 0 -2
BITMAP
2300
2FC0
F780
5480
5780
5300
2FC0
3480
5780
0000
ENDCHAR
STARTCHAR 3473
ENCODING 13427
SWIDTH 960 0
DWIDTH 10 0
BBX 10 10 0 -2
BITMAP
0400
7FC0
4440
1B00
7FC0
0100
3900
3900
0300
0000
ENDCHAR
STARTCHAR 3474
ENCODING 13428
SWIDTH 960 0
DWIDTH 10 0
BBX 10 10 0 -2
BITMAP
0100
2100
27C0
6900
6B80
6A80
6900
7A80
0440
0000
ENDCHAR
STARTCHAR 3475
ENCODING 13429
SWIDTH 960 0
DWIDTH 10 0
BBX 10 10 0 -2
BITMAP
0900
0600
3980
0400
7FC0
1200
2F80
4A80
0200
0000
ENDCHAR
STARTCHAR 3476
ENCODING 13430
SWIDTH 960 0
DWIDTH 10 0
BBX 10 10 0 -2
BITMAP
2480
5540
75C0
0480
7FC0
1200
1280
2940
4AC0
0000
ENDCHAR
STARTCHAR 3477
ENCODING 13431
SWIDTH 960 0
DWIDTH 10 0
BBX 10 10 0 -2
BITMAP
1F00
0100
3F00
2080
3F80
0000
0400
5240
5F40
0000
ENDCHAR
STARTCHAR 3478
ENCODING 13432
SWIDTH 960 0
DWIDTH 10 0
BBX 10 10 0 -2
BITMAP
27C0
2540
7380
2100
3380
6380
2100
27C0
6100
0000
ENDCHAR
STARTCHAR 3479
ENCODING 13433
SWIDTH 960 0
DWIDTH 10 0
BBX 10 10 0 -2
BITMAP
1000
1380
7A80
1280
3A80
3280
5280
1280
14C0
0000
ENDCHAR
STARTCHAR 347a
ENCODING 13434
SWIDTH 960 0
DWIDTH 10 0
BBX 10 10 0 -2
BITMAP
2400
27C0
7280
27C0
3280
5380
5280
17C0
2440
0000
ENDCHAR
STARTCHAR 347b
ENCODING 13435
SWIDTH 960 0
DWIDTH 10 0
BBX 10 10 0 -2
BITMAP
7BC0
4A80
7A80
4FC0
7880
4180
5980
6A80
04C0
0000
ENDCHAR
STARTCHAR 347c
ENCODING 13436
SWIDTH 960 0
DWIDTH 10 0
BBX 10 10 0 -2
BITMAP
29C0
7D40
29C0
3940
2940
29C0
7D40
2940
4540
0000
ENDCHAR
STARTCHAR 347d
ENCODING 13437
SWIDTH 960 0
DWIDTH 10 0
BBX 10 10 0 -2
BITMAP
1280
17C0
7A80
1380
3A80
3280
57C0
1280
1440
0000
ENDCHAR
STARTCHAR 347e
ENCODING 13438
SWIDTH 960 0
DWIDTH 10 0
BBX 10 10 0 -2
BITMAP
0400
7FC0
1100
3F80
1500
7FC0
0E00
1500
64C0
0000
ENDCHAR
STARTCHAR 3521
ENCODING 13601
SWIDTH 960 0
DWIDTH 10 0
BBX 10 10 0 -2
BITMAP
2640
2A80
6640
2AC0
6200
6FC0
6540
2480
2940
0000
ENDCHAR
STARTCHAR 3522
ENCODING 13602
SWIDTH 960 0
DWIDTH 10 0
BBX 10 10 0 -2
BITMAP
1780
5080
5780
5080
5FC0
1240
2F80
2A80
4200
0000
ENDCHAR
STARTCHAR 3523
ENCODING 13603
SWIDTH 960 0
DWIDTH 10 0
BBX 10 10 0 -2
BITMAP
2380
7280
54C0
F000
2B80
5280
3100
5280
2440
0000
ENDCHAR
STARTCHAR 3524
ENCODING 13604
SWIDTH 960 0
DWIDTH 10 0
BBX 10 10 0 -2
BITMAP
2000
3F80
5E00
0000
7F00
0100
2500
18C0
6440
0000
ENDCHAR
STARTCHAR 3525
ENCODING 13605
SWIDTH 960 0
DWIDTH 10 0
BBX 10 10 0 -2
BITMAP
4400
2780
0800
4780
2000
0F80
2080
20C0
4040
0000
ENDCHAR
STARTCHAR 3526
ENCODING 13606
SWIDTH 960 0
DWIDTH 10 0
BBX 10 10 0 -2
BITMAP
2480
5540
75C0
0480
7FC0
0440
7280
5140
76C0
0000
ENDCHAR
STARTCHAR 3527
ENCODING 13607
SWIDTH 960 0
DWIDTH 10 0
BBX 10 10 0 -2
BITMAP
2180
2600
7400
17C0
2500
2500
7500
2500
2900
0000
ENDCHAR
STARTCHAR 3528
ENCODING 13608
SWIDTH 960 0
DWIDTH 10 0
BBX 10 10 0 -2
BITMAP
1F00
0400
7FC0
1500
6EC0
0200
7FC0
0400
0C00
0000
ENDCHAR
STARTCHAR 3529
ENCODING 13609
SWIDTH 960 0
DWIDTH 10 0
BBX 10 10 0 -2
BITMAP
1280
6100
2280
6FC0
2500
77C0
6D40
2540
2100
0000
ENDCHAR
STARTCHAR 352a
ENCODING 13610
SWIDTH 960 0
DWIDTH 10 0
BBX 10 10 0 -2
BITMAP
1000
23C0
5040
2840
7BC0
1200
5A00
5240
13C0
0000
ENDCHAR
STARTCHAR 352b
ENCODING 13611
SWIDTH 960 0
DWIDTH 10 0
BBX 10 10 0 -2
BITMAP
2A80
4E80
05C0
2940
6540
2940
2E80
2480
2D40
0000
ENDCHAR
STARTCHAR 352c
ENCODING 13612
SWIDTH 960 0
DWIDTH 10 0
BBX 10 10 0 -2
BITMAP
2780
2480
7780
2480
7780
2480
2780
5500
49C0
0000
ENDCHAR
STARTCHAR 352d
ENCODING 13613
SWIDTH 960 0
DWIDTH 10 0
BBX 10 10 0 -2
BITMAP
7000
0780
7080
0080
7780
0400
7400
5440
77C0
0000
ENDCHAR
STARTCHAR 352e
ENCODING 13614
SWIDTH 960 0
DWIDTH 10 0
BBX 10 10 0 -2
BITMAP
0400
1F00
1500
7FC0
1100
1F00
1100
1F00
60C0
0000
ENDCHAR
STARTCHAR 352f
ENCODING 13615
SWIDTH 960 0
DWIDTH 10 0
BBX 10 10 0 -2
BITMAP
1000
7BC0
1040
7BC0
1200
1A40
53C0
7000
5FC0
0000
ENDCHAR
STARTCHAR 3530
ENCODING 13616
SWIDTH 960 0
DWIDTH 10 0
BBX 10 10 0 -2
BITMAP
2200
7200
2780
7280
5280
7280
2280
7480
28C0
0000
ENDCHAR
STARTCHAR 3531
ENCODING 13617
SWIDTH 960 0
DWIDTH 10 0
BBX 10 10 0 -2
BITMAP
17C0
5540
3B80
1100
7B80
2B80
2900
2FC0
4100
0000
ENDCHAR
STARTCHAR 3532
ENCODING 13618
SWIDTH 960 0
DWIDTH 10 0
BBX 10 10 0 -2
BITMAP
2000
5380
0280
7280
5280
7280
4280
7280
44C0
0000
ENDCHAR
STARTCHAR 3533
ENCODING 13619
SWIDTH 960 0
DWIDTH 10 0
BBX 10 10 0 -2
BITMAP
7100
57C0
7280
5440
77C0
1080
5680
9680
2180
0000
ENDCHAR
STARTCHAR 3534
ENCODING 13620
SWIDTH 960 0
DWIDTH 10 0
BBX 10 10 0 -2
BITMAP
0800
3F80
2480
3F80
2480
3F00
0B80
1240
63C0
0000
ENDCHAR
STARTCHAR 3535
ENCODING 13621
SWIDTH 960 0
DWIDTH 10 0
BBX 10 10 0 -2
BITMAP
1E00
2200
1F00
1500
3F80
2480
3F80
0440
07C0
0000
ENDCHAR
STARTCHAR 3536
ENCODING 13622
SWIDTH 960 0
DWIDTH 10 0
BBX 10 10 0 -2
BITMAP
1500
1780
2280
2380
6480
27C0
2840
3540
2080
0000
ENDCHAR
STARTCHAR 3537
ENCODING 13623
SWIDTH 960 0
DWIDTH 10 0
BBX 10 10 0 -2
BITMAP
1280
17C0
2100
27C0
6100
2FC0
2540
2E80
2540
0000
ENDCHAR
STARTCHAR 3538
ENCODING 13624
SWIDTH 960 0
DWIDTH 10 0
BBX 10 10 0 -2
BITMAP
2100
2100
F7C0
5100
57C0
5440
2280
3100
56C0
0000
ENDCHAR
STARTCHAR 3539
ENCODING 13625
SWIDTH 960 0
DWIDTH 10 0
BBX 10 10 0 -2
BITMAP
0400
7FC0
4040
1F00
1100
1F00
1100
1100
7FC0
0000
ENDCHAR
STARTCHAR 353a
ENCODING 13626
SWIDTH 960 0
DWIDTH 10 0
BBX 10 10 0 -2
BITMAP
3140
2100
7BC0
5100
4140
5540
5080
7980
4240
0000
ENDCHAR
STARTCHAR 353b
ENCODING 13627
SWIDTH 960 0
DWIDTH 10 0
BBX 10 10 0 -2
BITMAP
2100
2100
77C0
2100
37C0
6440
2280
2100
66C0
0000
ENDCHAR
STARTCHAR 353c
ENCODING 13628
SWIDTH 960 0
DWIDTH 10 0
BBX 10 10 0 -2
BITMAP
29C0
2E40
6880
25C0
2640
6C80
26C0
2480
6940
0000
ENDCHAR
STARTCHAR 353d
ENCODING 13629
SWIDTH 960 0
DWIDTH 10 0
BBX 10 10 0 -2
BITMAP
2A00
7BC0
2A40
2D40
3900
2900
7E80
2A80
4440
0000
ENDCHAR
STARTCHAR 353e
ENCODING 13630
SWIDTH 960 0
DWIDTH 10 0
BBX 10 10 0 -2
BITMAP
2280
67C0
7100
27C0
3100
6FC0
2540
2E80
2540
0000
ENDCHAR
STARTCHAR 353f
ENCODING 13631
SWIDTH 960 0
DWIDTH 10 0
BBX 10 10 0 -2
BITMAP
43C0
7840
4280
33C0
7C80
1100
7DC0
2B00
44C0
0000
ENDCHAR
STARTCHAR 3540
ENCODING 13632
SWIDTH 960 0
DWIDTH 10 0
BBX 10 10 0 -2
BITMAP
20C0
7700
1500
27C0
2500
7500
2480
2480
2E40
0000
ENDCHAR
STARTCHAR 3541
ENCODING 13633
SWIDTH 960 0
DWIDTH 10 0
BBX 10 10 0 -2
BITMAP
1100
7FC0
0400
7FC0
1500
7FC0
1280
7940
12C0
0000
ENDCHAR
STARTCHAR 3542
ENCODING 13634
SWIDTH 960 0
DWIDTH 10 0
BBX 10 10 0 -2
BITMAP
2280
27C0
7100
57C0
7100
2FC0
2540
3E80
5540
0000
ENDCHAR
STARTCHAR 3543
ENCODING 13635
SWIDTH 960 0
DWIDTH 10 0
BBX 10 10 0 -2
BITMAP
7100
07C0
7440
0380
7280
0380
7280
5280
77C0
0000
ENDCHAR
STARTCHAR 3544
ENCODING 13636
SWIDTH 960 0
DWIDTH 10 0
BBX 10 10 0 -2
BITMAP
7280
07C0
7100
07C0
7100
0FC0
7540
5E80
7540
0000
ENDCHAR
STARTCHAR 3545
ENCODING 13637
SWIDTH 960 0
DWIDTH 10 0
BBX 10 10 0 -2
BITMAP
2400
2FC0
6040
2AC0
2240
6FC0
2240
2AC0
6080
0000
ENDCHAR
STARTCHAR 3546
ENCODING 13638
SWIDTH 960 0
DWIDTH 10 0
BBX 10 10 0 -2
BITMAP
1100
7FC0
2900
3FC0
4840
2A40
7F40
1C40
2A80
0000
ENDCHAR
STARTCHAR 3547
ENCODING 13639
SWIDTH 960 0
DWIDTH 10 0
BBX 10 10 0 -2
BITMAP
5200
FBC0
5440
7540
5240
7740
2240
7540
2080
0000
ENDCHAR
STARTCHAR 3548
ENCODING 13640
SWIDTH 960 0
DWIDTH 10 0
BBX 10 10 0 -2
BITMAP
0400
0400
7FC0
0400
3F80
0000
3F80
2080
3F80
0000
ENDCHAR
STARTCHAR 3549
ENCODING 13641
SWIDTH 960 0
DWIDTH 10 0
BBX 10 10 0 -2
BITMAP
0200
73C0
5400
5380
5100
5200
7200
0440
03C0
0000
ENDCHAR
STARTCHAR 354a
ENCODING 13642
SWIDTH 960 0
DWIDTH 10 0
BBX 10 10 0 -2
BITMAP
05C0
7EC0
5540
5EC0
5000
5200
7FC0
0500
18C0
0000
ENDCHAR
STARTCHAR 354b
ENCODING 13643
SWIDTH 960 0
DWIDTH 10 0
BBX 10 10 0 -2
BITMAP
1100
1100
7FC0
1100
37C0
3800
57C0
1440
17C0
0000
ENDCHAR
STARTCHAR 354c
ENCODING 13644
SWIDTH 960 0
DWIDTH 10 0
BBX 10 10 0 -2
BITMAP
2780
2100
6FC0
2080
6FC0
6CC0
6B40
2B40
28C0
0000
ENDCHAR
STARTCHAR 354d
ENCODING 13645
SWIDTH 960 0
DWIDTH 10 0
BBX 10 10 0 -2
BITMAP
7100
0100
77C0
0100
77C0
0000
77C0
5440
77C0
0000
ENDCHAR
STARTCHAR 354e
ENCODING 13646
SWIDTH 960 0
DWIDTH 10 0
BBX 10 10 0 -2
BITMAP
0100
3900
11C0
2100
7900
2BC0
2A40
3A40
03C0
0000
ENDCHAR
STARTCHAR 354f
ENCODING 13647
SWIDTH 960 0
DWIDTH 10 0
BBX 10 10 0 -2
BITMAP
1200
1200
77C0
1100
37C0
3900
5100
1100
1100
0000
ENDCHAR
STARTCHAR 3550
ENCODING 13648
SWIDTH 960 0
DWIDTH 10 0
BBX 10 10 0 -2
BITMAP
3F00
0400
7FC0
0A00
1500
64C0
1500
0400
6CC0
0000
ENDCHAR
STARTCHAR 3551
ENCODING 13649
SWIDTH 960 0
DWIDTH 10 0
BBX 10 10 0 -2
BITMAP
1000
13C0
7A40
1240
7A40
2240
2A40
7AC0
0200
0000
ENDCHAR
STARTCHAR 3552
ENCODING 13650
SWIDTH 960 0
DWIDTH 10 0
BBX 10 10 0 -2
BITMAP
0400
7FC0
4040
4F00
1900
2600
1F00
71C0
1F00
0000
ENDCHAR
STARTCHAR 3553
ENCODING 13651
SWIDTH 960 0
DWIDTH 10 0
BBX 10 10 0 -2
BITMAP
75C0
5540
7F40
5540
7F40
5540
5B40
5FC0
5100
0000
ENDCHAR
STARTCHAR 3554
ENCODING 13652
SWIDTH 960 0
DWIDTH 10 0
BBX 10 10 0 -2
BITMAP
0780
0400
3FC0
2C00
2780
2800
2F80
4800
4FC0
0000
ENDCHAR
STARTCHAR 3555
ENCODING 13653
SWIDTH 960 0
DWIDTH 10 0
BBX 10 10 0 -2
BITMAP
4880
2500
1FC0
6A80
2A80
2F80
2200
2400
5FC0
0000
ENDCHAR
STARTCHAR 3556
ENCODING 13654
SWIDTH 960 0
DWIDTH 10 0
BBX 10 10 0 -2
BITMAP
0000
0300
1C00
1000
1F80
1200
1200
1200
7FC0
0000
ENDCHAR
STARTCHAR 3557
ENCODING 13655
SWIDTH 960 0
DWIDTH 10 0
BBX 10 10 0 -2
BITMAP
1000
1E00
1200
2200
4200
0400
0A00
1100
60C0
0000
ENDCHAR
STARTCHAR 3558
ENCODING 13656
SWIDTH 960 0
DWIDTH 10 0
BBX 10 10 0 -2
BITMAP
1400
1400
2F00
2500
6500
2500
2500
2940
31C0
0000
ENDCHAR
STARTCHAR 3559
ENCODING 13657
SWIDTH 960 0
DWIDTH 10 0
BBX 10 10 0 -2
BITMAP
1200
1200
2FC0
2200
6700
2700
2A80
3240
2200
0000
ENDCHAR
STARTCHAR 355a
ENCODING 13658
SWIDTH 960 0
DWIDTH 10 0
BBX 10 10 0 -2
BITMAP
7E00
1200
1200
1380
1080
2880
2500
2600
59C0
0000
ENDCHAR
STARTCHAR 355b
ENCODING 13659
SWIDTH 960 0
DWIDTH 10 0
BBX 10 10 0 -2
BITMAP
0F00
7500
5500
5780
5480
5680
7500
0900
12C0
0000
ENDCHAR
STARTCHAR 355c
ENCODING 13660
SWIDTH 960 0
DWIDTH 10 0
BBX 10 10 0 -2
BITMAP
0400
7FC0
4040
1F00
1F00
0800
3F80
2080
3F80
0000
ENDCHAR
STARTCHAR 355d
ENCODING 13661
SWIDTH 960 0
DWIDTH 10 0
BBX 10 10 0 -2
BITMAP
3F00
0100
3F00
2000
4000
7F80
0080
0080
0300
0000
ENDCHAR
STARTCHAR 355e
ENCODING 13662
SWIDTH 960 0
DWIDTH 10 0
BBX 10 10 0 -2
BITMAP
1E00
2200
5F00
0F00
0100
1F00
0400
5240
5F40
0000
ENDCHAR
STARTCHAR 355f
ENCODING 13663
SWIDTH 960 0
DWIDTH 10 0
BBX 10 10 0 -2
BITMAP
1500
1100
7DC0
1340
5540
3940
5480
5480
1140
0000
ENDCHAR
STARTCHAR 3560
ENCODING 13664
SWIDTH 960 0
DWIDTH 10 0
BBX 10 10 0 -2
BITMAP
1000
13C0
7900
1100
33C0
3A40
5040
1040
1180
0000
ENDCHAR
STARTCHAR 3561
ENCODING 13665
SWIDTH 960 0
DWIDTH 10 0
BBX 10 10 0 -2
BITMAP
0480
0400
7FC0
0400
2580
0E00
1500
64C0
0C00
0000
ENDCHAR
STARTCHAR 3562
ENCODING 13666
SWIDTH 960 0
DWIDTH 10 0
BBX 10 10 0 -2
BITMAP
4F00
2500
0500
4780
2480
0480
2680
2900
4AC0
0000
ENDCHAR
STARTCHAR 3563
ENCODING 13667
SWIDTH 960 0
DWIDTH 10 0
BBX 10 10 0 -2
BITMAP
4200
2200
1FC0
4880
2880
0880
2500
2500
5FC0
0000
ENDCHAR
STARTCHAR 3564
ENCODING 13668
SWIDTH 960 0
DWIDTH 10 0
BBX 10 10 0 -2
BITMAP
1F00
6100
0E00
71C0
0400
4440
2480
0A00
71C0
0000
ENDCHAR
STARTCHAR 3565
ENCODING 13669
SWIDTH 960 0
DWIDTH 10 0
BBX 10 10 0 -2
BITMAP
0140
7100
27C0
2100
75C0
2100
3380
6540
0300
0000
ENDCHAR
STARTCHAR 3566
ENCODING 13670
SWIDTH 960 0
DWIDTH 10 0
BBX 10 10 0 -2
BITMAP
0400
7FC0
4A40
1200
2180
0800
7E00
1240
63C0
0000
ENDCHAR
STARTCHAR 3567
ENCODING 13671
SWIDTH 960 0
DWIDTH 10 0
BBX 10 10 0 -2
BITMAP
0400
7FC0
5B40
1000
3B80
2880
7BC0
2840
5B80
0000
ENDCHAR
STARTCHAR 3568
ENCODING 13672
SWIDTH 960 0
DWIDTH 10 0
BBX 10 10 0 -2
BITMAP
2100
39C0
5280
3E00
0B80
1080
1900
2600
59C0
0000
ENDCHAR
STARTCHAR 3569
ENCODING 13673
SWIDTH 960 0
DWIDTH 10 0
BBX 10 10 0 -2
BITMAP
1780
2280
5280
2BC0
7A40
1340
5A80
5480
1540
0000
ENDCHAR
STARTCHAR 356a
ENCODING 13674
SWIDTH 960 0
DWIDTH 10 0
BBX 10 10 0 -2
BITMAP
1080
2080
5280
2A80
7A80
12C0
5780
5080
1080
0000
ENDCHAR
STARTCHAR 356b
ENCODING 13675
SWIDTH 960 0
DWIDTH 10 0
BBX 10 10 0 -2
BITMAP
1100
2280
5440
2B80
7800
1380
5A80
5280
1380
0000
ENDCHAR
STARTCHAR 356c
ENCODING 13676
SWIDTH 960 0
DWIDTH 10 0
BBX 10 10 0 -2
BITMAP
5F80
5080
5080
5080
5F80
5080
5080
5080
5F80
0000
ENDCHAR
STARTCHAR 356d
ENCODING 13677
SWIDTH 960 0
DWIDTH 10 0
BBX 10 10 0 -2
BITMAP
0400
2400
3F80
4400
0400
7FC0
0400
0400
0400
0000
ENDCHAR
STARTCHAR 356e
ENCODING 13678
SWIDTH 960 0
DWIDTH 10 0
BBX 10 10 0 -2
BITMAP
0400
0400
3F80
0400
7FC0
0400
0800
1100
3E80
0000
ENDCHAR
STARTCHAR 356f
ENCODING 13679
SWIDTH 960 0
DWIDTH 10 0
BBX 10 10 0 -2
BITMAP
3FC0
2040
3FC0
2200
3FC0
2200
2F80
4880
0F80
0000
ENDCHAR
STARTCHAR 3570
ENCODING 13680
SWIDTH 960 0
DWIDTH 10 0
BBX 10 10 0 -2
BITMAP
7F80
4000
4000
7F00
4100
7F00
4000
4000
7F80
0000
ENDCHAR
STARTCHAR 3571
ENCODING 13681
SWIDTH 960 0
DWIDTH 10 0
BBX 10 10 0 -2
BITMAP
27C0
2400
7400
27C0
3440
67C0
2400
2400
67C0
0000
ENDCHAR
STARTCHAR 3572
ENCODING 13682
SWIDTH 960 0
DWIDTH 10 0
BBX 10 10 0 -2
BITMAP
2800
2E00
6B80
3280
2A80
6A80
24C0
2A00
71C0
0000
ENDCHAR
STARTCHAR 3573
ENCODING 13683
SWIDTH 960 0
DWIDTH 10 0
BBX 10 10 0 -2
BITMAP
2880
1500
7FC0
2480
5F40
0200
3F80
0200
0C00
0000
ENDCHAR
STARTCHAR 3574
ENCODING 13684
SWIDTH 960 0
DWIDTH 10 0
BBX 10 10 0 -2
BITMAP
4FC0
0900
4F80
2900
4FC0
0400
7FC0
1500
64C0
0000
ENDCHAR
STARTCHAR 3575
ENCODING 13685
SWIDTH 960 0
DWIDTH 10 0
BBX 10 10 0 -2
BITMAP
0780
0400
3FC0
2400
2F80
2400
2300
2A80
5FC0
0000
ENDCHAR
STARTCHAR 3576
ENCODING 13686
SWIDTH 960 0
DWIDTH 10 0
BBX 10 10 0 -2
BITMAP
7200
03C0
7500
0100
77C0
0100
7100
5100
7100
0000
ENDCHAR
STARTCHAR 3577
ENCODING 13687
SWIDTH 960 0
DWIDTH 10 0
BBX 10 10 0 -2
BITMAP
7BC0
4A00
7A00
13C0
1240
1BC0
5200
5A00
63C0
0000
ENDCHAR
STARTCHAR 3578
ENCODING 13688
SWIDTH 960 0
DWIDTH 10 0
BBX 10 10 0 -2
BITMAP
17C0
2C40
77C0
1500
77C0
1500
57C0
3A40
6BC0
0000
ENDCHAR
STARTCHAR 3579
ENCODING 13689
SWIDTH 960 0
DWIDTH 10 0
BBX 10 10 0 -2
BITMAP
4700
2900
0F80
4A80
2F80
0A80
2F80
2000
5540
0000
ENDCHAR
STARTCHAR 357a
ENCODING 13690
SWIDTH 960 0
DWIDTH 10 0
BBX 10 10 0 -2
BITMAP
28C0
4E00
24C0
6E80
2C80
0000
7FC0
2480
4C40
0000
ENDCHAR
STARTCHAR 357b
ENCODING 13691
SWIDTH 960 0
DWIDTH 10 0
BBX 10 10 0 -2
BITMAP
1E00
2200
7F80
2480
3F80
2480
3F80
0000
4A40
0000
ENDCHAR
STARTCHAR 357c
ENCODING 13692
SWIDTH 960 0
DWIDTH 10 0
BBX 10 10 0 -2
BITMAP
0400
7FC0
1100
1F00
0000
3F80
0200
0400
0C00
0000
ENDCHAR
STARTCHAR 357d
ENCODING 13693
SWIDTH 960 0
DWIDTH 10 0
BBX 10 10 0 -2
BITMAP
0400
7FC0
1100
1F00
0000
3F80
0200
7FC0
0C00
0000
ENDCHAR
STARTCHAR 357e
ENCODING 13694
SWIDTH 960 0
DWIDTH 10 0
BBX 10 10 0 -2
BITMAP
0400
7FC0
0000
1F00
1100
1F00
0400
2480
4C40
0000
ENDCHAR
STARTCHAR 3621
ENCODING 13857
SWIDTH 960 0
DWIDTH 10 0
BBX 10 10 0 -2
BITMAP
1500
1500
2F80
2500
6500
2FC0
2000
2500
2880
0000
ENDCHAR
STARTCHAR 3622
ENCODING 13858
SWIDTH 960 0
DWIDTH 10 0
BBX 10 10 0 -2
BITMAP
1200
1FC0
2200
2A80
6700
2FC0
2200
2500
28C0
0000
ENDCHAR
STARTCHAR 3623
ENCODING 13859
SWIDTH 960 0
DWIDTH 10 0
BBX 10 10 0 -2
BITMAP
1780
1200
2FC0
2480
6B40
2000
2FC0
2B40
28C0
0000
ENDCHAR
STARTCHAR 3624
ENCODING 13860
SWIDTH 960 0
DWIDTH 10 0
BBX 10 10 0 -2
BITMAP
2080
2A80
2480
2A80
2080
3F80
0A00
1240
63C0
0000
ENDCHAR
STARTCHAR 3625
ENCODING 13861
SWIDTH 960 0
DWIDTH 10 0
BBX 10 10 0 -2
BITMAP
1080
7BC0
2940
7BC0
4A40
7BC0
3180
5280
5AC0
0000
ENDCHAR
STARTCHAR 3626
ENCODING 13862
SWIDTH 960 0
DWIDTH 10 0
BBX 10 10 0 -2
BITMAP
1100
1100
3F80
1100
1100
7FC0
0000
1100
60C0
0000
ENDCHAR
STARTCHAR 3627
ENCODING 13863
SWIDTH 960 0
DWIDTH 10 0
BBX 10 10 0 -2
BITMAP
0000
4140
5140
4A40
4440
4A40
5140
4040
7FC0
0000
ENDCHAR
STARTCHAR 3628
ENCODING 13864
SWIDTH 960 0
DWIDTH 10 0
BBX 10 10 0 -2
BITMAP
2200
2780
7280
2280
2500
2FC0
2540
2540
2AC0
0000
ENDCHAR
STARTCHAR 3629
ENCODING 13865
SWIDTH 960 0
DWIDTH 10 0
BBX 10 10 0 -2
BITMAP
7F80
4000
5F00
4400
5F00
4400
5F00
4000
7FC0
0000
ENDCHAR
STARTCHAR 362a
ENCODING 13866
SWIDTH 960 0
DWIDTH 10 0
BBX 10 10 0 -2
BITMAP
2000
4EC0
6AC0
6EC0
68C0
6AC0
2EC0
2280
4080
0000
ENDCHAR
STARTCHAR 362b
ENCODING 13867
SWIDTH 960 0
DWIDTH 10 0
BBX 10 10 0 -2
BITMAP
0080
7280
5280
5280
5280
52C0
7780
0080
0080
0000
ENDCHAR
STARTCHAR 362c
ENCODING 13868
SWIDTH 960 0
DWIDTH 10 0
BBX 10 10 0 -2
BITMAP
1F00
0400
7FC0
1100
6EC0
0000
3F80
2E80
2180
0000
ENDCHAR
STARTCHAR 362d
ENCODING 13869
SWIDTH 960 0
DWIDTH 10 0
BBX 10 10 0 -2
BITMAP
2200
2FC0
7500
2FC0
2480
2480
3780
4500
09C0
0000
ENDCHAR
STARTCHAR 362e
ENCODING 13870
SWIDTH 960 0
DWIDTH 10 0
BBX 10 10 0 -2
BITMAP
2100
27C0
7100
7540
7380
77C0
7100
0280
0C40
0000
ENDCHAR
STARTCHAR 362f
ENCODING 13871
SWIDTH 960 0
DWIDTH 10 0
BBX 10 10 0 -2
BITMAP
7280
17C0
7100
47C0
4540
77C0
1100
1180
6740
0000
ENDCHAR
STARTCHAR 3630
ENCODING 13872
SWIDTH 960 0
DWIDTH 10 0
BBX 10 10 0 -2
BITMAP
6FC0
2480
6780
4480
4FC0
6480
2780
2480
4FC0
0000
ENDCHAR
STARTCHAR 3631
ENCODING 13873
SWIDTH 960 0
DWIDTH 10 0
BBX 10 10 0 -2
BITMAP
2200
2200
7780
7200
2FC0
2200
2280
24C0
2F40
0000
ENDCHAR
STARTCHAR 3632
ENCODING 13874
SWIDTH 960 0
DWIDTH 10 0
BBX 10 10 0 -2
BITMAP
7700
2500
2700
3540
69C0
0000
0400
5240
5F40
0000
ENDCHAR
STARTCHAR 3633
ENCODING 13875
SWIDTH 960 0
DWIDTH 10 0
BBX 10 10 0 -2
BITMAP
0A00
3F80
0A00
7FC0
2080
4840
2A80
4A40
1800
0000
ENDCHAR
STARTCHAR 3634
ENCODING 13876
SWIDTH 960 0
DWIDTH 10 0
BBX 10 10 0 -2
BITMAP
2200
2FC0
6200
2A80
2700
6FC0
2200
2500
68C0
0000
ENDCHAR
STARTCHAR 3635
ENCODING 13877
SWIDTH 960 0
DWIDTH 10 0
BBX 10 10 0 -2
BITMAP
1500
3D00
19C0
7D40
2340
5940
3C80
1180
3240
0000
ENDCHAR
STARTCHAR 3636
ENCODING 13878
SWIDTH 960 0
DWIDTH 10 0
BBX 10 10 0 -2
BITMAP
2780
2200
6FC0
2480
6B40
6000
6FC0
2B40
28C0
0000
ENDCHAR
STARTCHAR 3637
ENCODING 13879
SWIDTH 960 0
DWIDTH 10 0
BBX 10 10 0 -2
BITMAP
4F80
2880
0880
4F80
2500
0500
2500
2940
51C0
0000
ENDCHAR
STARTCHAR 3638
ENCODING 13880
SWIDTH 960 0
DWIDTH 10 0
BBX 10 10 0 -2
BITMAP
5000
2FC0
6200
2200
2F80
6200
2200
2200
5FC0
0000
ENDCHAR
STARTCHAR 3639
ENCODING 13881
SWIDTH 960 0
DWIDTH 10 0
BBX 10 10 0 -2
BITMAP
5200
2FC0
6200
2A80
2700
6FC0
2200
2500
48C0
0000
ENDCHAR
STARTCHAR 363a
ENCODING 13882
SWIDTH 960 0
DWIDTH 10 0
BBX 10 10 0 -2
BITMAP
4380
4100
77C0
2280
7540
2000
27C0
5540
44C0
0000
ENDCHAR
STARTCHAR 363b
ENCODING 13883
SWIDTH 960 0
DWIDTH 10 0
BBX 10 10 0 -2
BITMAP
7200
5200
77C0
5440
5A40
7540
5540
5740
5080
0000
ENDCHAR
STARTCHAR 363c
ENCODING 13884
SWIDTH 960 0
DWIDTH 10 0
BBX 10 10 0 -2
BITMAP
0800
1F00
2900
7BC0
3F40
5140
1F00
1100
1300
0000
ENDCHAR
STARTCHAR 363d
ENCODING 13885
SWIDTH 960 0
DWIDTH 10 0
BBX 10 10 0 -2
BITMAP
2000
4EC0
6A40
4EC0
6A40
4A40
7FC0
2080
4040
0000
ENDCHAR
STARTCHAR 363e
ENCODING 13886
SWIDTH 960 0
DWIDTH 10 0
BBX 10 10 0 -2
BITMAP
1100
7FC0
0E00
7FC0
2E80
4040
3F80
2E80
2180
0000
ENDCHAR
STARTCHAR 363f
ENCODING 13887
SWIDTH 960 0
DWIDTH 10 0
BBX 10 10 0 -2
BITMAP
2000
4EC0
2AC0
2E80
48C0
6AC0
2EC0
2080
4080
0000
ENDCHAR
STARTCHAR 3640
ENCODING 13888
SWIDTH 960 0
DWIDTH 10 0
BBX 10 10 0 -2
BITMAP
1100
2FC0
7280
1FC0
7480
1480
5780
3500
69C0
0000
ENDCHAR
STARTCHAR 3641
ENCODING 13889
SWIDTH 960 0
DWIDTH 10 0
BBX 10 10 0 -2
BITMAP
2EC0
48C0
2EC0
4480
3F80
0A00
7FC0
1100
1F00
0000
ENDCHAR
STARTCHAR 3642
ENCODING 13890
SWIDTH 960 0
DWIDTH 10 0
BBX 10 10 0 -2
BITMAP
2EC0
48C0
2EC0
4480
1B80
70C0
1E00
1500
3B80
0000
ENDCHAR
STARTCHAR 3643
ENCODING 13891
SWIDTH 960 0
DWIDTH 10 0
BBX 10 10 0 -2
BITMAP
2900
7FC0
0A80
6900
1AC0
2000
3FC0
0040
5540
0000
ENDCHAR
STARTCHAR 3644
ENCODING 13892
SWIDTH 960 0
DWIDTH 10 0
BBX 10 10 0 -2
BITMAP
1200
1DC0
2940
2940
6940
2940
2F40
29C0
2100
0000
ENDCHAR
STARTCHAR 3645
ENCODING 13893
SWIDTH 960 0
DWIDTH 10 0
BBX 10 10 0 -2
BITMAP
49C0
2E40
0880
05C0
0640
2C80
26C0
4480
4940
0000
ENDCHAR
STARTCHAR 3646
ENCODING 13894
SWIDTH 960 0
DWIDTH 10 0
BBX 10 10 0 -2
BITMAP
0400
3F80
1500
7FC0
1100
3F80
0A00
1240
63C0
0000
ENDCHAR
STARTCHAR 3647
ENCODING 13895
SWIDTH 960 0
DWIDTH 10 0
BBX 10 10 0 -2
BITMAP
0200
77C0
5280
5FC0
7480
5FC0
5300
7540
09C0
0000
ENDCHAR
STARTCHAR 3648
ENCODING 13896
SWIDTH 960 0
DWIDTH 10 0
BBX 10 10 0 -2
BITMAP
2A80
1B00
7FC0
1100
3F80
0400
7FC0
1500
64C0
0000
ENDCHAR
STARTCHAR 3649
ENCODING 13897
SWIDTH 960 0
DWIDTH 10 0
BBX 10 10 0 -2
BITMAP
3F80
2080
3F80
2000
3FC0
2040
4E40
4E40
0180
0000
ENDCHAR
STARTCHAR 364a
ENCODING 13898
SWIDTH 960 0
DWIDTH 10 0
BBX 10 10 0 -2
BITMAP
0A00
0A00
7FC0
4A40
4A40
7FC0
4A40
4A40
7FC0
0000
ENDCHAR
STARTCHAR 364b
ENCODING 13899
SWIDTH 960 0
DWIDTH 10 0
BBX 10 10 0 -2
BITMAP
2FC0
2200
7200
23C0
6D40
6D40
6180
2240
2FC0
0000
ENDCHAR
STARTCHAR 364c
ENCODING 13900
SWIDTH 960 0
DWIDTH 10 0
BBX 10 10 0 -2
BITMAP
0000
7FC0
0400
0400
3F80
0400
0500
0480
7FC0
0000
ENDCHAR
STARTCHAR 364d
ENCODING 13901
SWIDTH 960 0
DWIDTH 10 0
BBX 10 10 0 -2
BITMAP
2FC0
2840
7B40
2840
7B40
6B40
6B40
2840
28C0
0000
ENDCHAR
STARTCHAR 364e
ENCODING 13902
SWIDTH 960 0
DWIDTH 10 0
BBX 10 10 0 -2
BITMAP
1080
5B00
1100
7900
17C0
3100
3900
5100
1100
0000
ENDCHAR
STARTCHAR 364f
ENCODING 13903
SWIDTH 960 0
DWIDTH 10 0
BBX 10 10 0 -2
BITMAP
1500
1FC0
2F80
2A80
6F80
2200
2F80
2200
2FC0
0000
ENDCHAR
STARTCHAR 3650
ENCODING 13904
SWIDTH 960 0
DWIDTH 10 0
BBX 10 10 0 -2
BITMAP
2900
7D00
3BC0
2940
3940
1140
3940
1240
7AC0
0000
ENDCHAR
STARTCHAR 3651
ENCODING 13905
SWIDTH 960 0
DWIDTH 10 0
BBX 10 10 0 -2
BITMAP
2200
2200
77C0
2840
2340
2040
3140
6640
0180
0000
ENDCHAR
STARTCHAR 3652
ENCODING 13906
SWIDTH 960 0
DWIDTH 10 0
BBX 10 10 0 -2
BITMAP
0400
0400
3F80
2480
2480
2480
2480
2580
0400
0000
ENDCHAR
STARTCHAR 3653
ENCODING 13907
SWIDTH 960 0
DWIDTH 10 0
BBX 10 10 0 -2
BITMAP
1200
2FC0
7440
17C0
7900
17C0
5D40
3540
6100
0000
ENDCHAR
STARTCHAR 3654
ENCODING 13908
SWIDTH 960 0
DWIDTH 10 0
BBX 10 10 0 -2
BITMAP
0180
3E00
2000
3FC0
2200
2200
2200
4200
4200
0000
ENDCHAR
STARTCHAR 3655
ENCODING 13909
SWIDTH 960 0
DWIDTH 10 0
BBX 10 10 0 -2
BITMAP
0A00
7200
47C0
7940
5100
5100
5280
5280
1440
0000
ENDCHAR
STARTCHAR 3656
ENCODING 13910
SWIDTH 960 0
DWIDTH 10 0
BBX 10 10 0 -2
BITMAP
1200
2A00
73C0
1540
7900
1100
5A80
3280
6440
0000
ENDCHAR
STARTCHAR 3657
ENCODING 13911
SWIDTH 960 0
DWIDTH 10 0
BBX 10 10 0 -2
BITMAP
7BC0
2080
7BC0
0400
1F00
60C0
1F00
0200
0C00
0000
ENDCHAR
STARTCHAR 3658
ENCODING 13912
SWIDTH 960 0
DWIDTH 10 0
BBX 10 10 0 -2
BITMAP
1100
7FC0
3B80
5140
3F80
0000
7FC0
2480
4C40
0000
ENDCHAR
STARTCHAR 3659
ENCODING 13913
SWIDTH 960 0
DWIDTH 10 0
BBX 10 10 0 -2
BITMAP
0400
1F00
75C0
1B00
1500
7FC0
4440
5F40
40C0
0000
ENDCHAR
STARTCHAR 365a
ENCODING 13914
SWIDTH 960 0
DWIDTH 10 0
BBX 10 10 0 -2
BITMAP
2100
39C0
5280
3900
2FC0
3940
2940
7A40
4AC0
0000
ENDCHAR
STARTCHAR 365b
ENCODING 13915
SWIDTH 960 0
DWIDTH 10 0
BBX 10 10 0 -2
BITMAP
7BC0
5140
7A80
0840
3200
1480
7FC0
0400
4440
0000
ENDCHAR
STARTCHAR 365c
ENCODING 13916
SWIDTH 960 0
DWIDTH 10 0
BBX 10 10 0 -2
BITMAP
1100
7FC0
1300
3C00
2000
3FC0
2200
4200
4200
0000
ENDCHAR
STARTCHAR 365d
ENCODING 13917
SWIDTH 960 0
DWIDTH 10 0
BBX 10 10 0 -2
BITMAP
1100
7FC0
1100
7FC0
4E40
5F40
4E40
5540
7FC0
0000
ENDCHAR
STARTCHAR 365e
ENCODING 13918
SWIDTH 960 0
DWIDTH 10 0
BBX 10 10 0 -2
BITMAP
2300
7480
1840
2300
2800
7780
2880
2100
2200
0000
ENDCHAR
STARTCHAR 365f
ENCODING 13919
SWIDTH 960 0
DWIDTH 10 0
BBX 10 10 0 -2
BITMAP
2280
77C0
1280
2D40
3380
6800
27C0
2100
2540
0000
ENDCHAR
STARTCHAR 3660
ENCODING 13920
SWIDTH 960 0
DWIDTH 10 0
BBX 10 10 0 -2
BITMAP
7280
0FC0
77C0
0540
77C0
0100
77C0
5100
77C0
0000
ENDCHAR
STARTCHAR 3661
ENCODING 13921
SWIDTH 960 0
DWIDTH 10 0
BBX 10 10 0 -2
BITMAP
4180
2600
0400
67C0
2500
2500
2900
2000
5FC0
0000
ENDCHAR
STARTCHAR 3662
ENCODING 13922
SWIDTH 960 0
DWIDTH 10 0
BBX 10 10 0 -2
BITMAP
0400
0A00
1100
6EC0
0400
3F80
0400
1500
7FC0
0000
ENDCHAR
STARTCHAR 3663
ENCODING 13923
SWIDTH 960 0
DWIDTH 10 0
BBX 10 10 0 -2
BITMAP
0300
7480
5840
5300
5000
5780
7080
0100
0200
0000
ENDCHAR
STARTCHAR 3664
ENCODING 13924
SWIDTH 960 0
DWIDTH 10 0
BBX 10 10 0 -2
BITMAP
1780
2C80
7780
1480
7780
1440
5E80
3500
66C0
0000
ENDCHAR
STARTCHAR 3665
ENCODING 13925
SWIDTH 960 0
DWIDTH 10 0
BBX 10 10 0 -2
BITMAP
0800
0800
7E00
0A00
0A00
1200
1200
2240
43C0
0000
ENDCHAR
STARTCHAR 3666
ENCODING 13926
SWIDTH 960 0
DWIDTH 10 0
BBX 10 10 0 -2
BITMAP
1780
1480
2780
2480
6780
2480
2FC0
2480
2840
0000
ENDCHAR
STARTCHAR 3667
ENCODING 13927
SWIDTH 960 0
DWIDTH 10 0
BBX 10 10 0 -2
BITMAP
1000
1000
3FC0
2040
5E40
1240
1240
1E40
0180
0000
ENDCHAR
STARTCHAR 3668
ENCODING 13928
SWIDTH 960 0
DWIDTH 10 0
BBX 10 10 0 -2
BITMAP
7F80
4100
5100
4A00
4400
4A00
5100
4000
7FC0
0000
ENDCHAR
STARTCHAR 3669
ENCODING 13929
SWIDTH 960 0
DWIDTH 10 0
BBX 10 10 0 -2
BITMAP
5400
2400
6FC0
3040
2740
6540
2740
2040
4180
0000
ENDCHAR
STARTCHAR 366a
ENCODING 13930
SWIDTH 960 0
DWIDTH 10 0
BBX 10 10 0 -2
BITMAP
0200
7200
2380
7480
2880
2100
3100
6280
0C40
0000
ENDCHAR
STARTCHAR 366b
ENCODING 13931
SWIDTH 960 0
DWIDTH 10 0
BBX 10 10 0 -2
BITMAP
23C0
2200
7A00
13C0
7A40
13C0
2A00
2A00
43C0
0000
ENDCHAR
STARTCHAR 366c
ENCODING 13932
SWIDTH 960 0
DWIDTH 10 0
BBX 10 10 0 -2
BITMAP
1100
7FC0
1100
0400
7FC0
0400
3F80
2080
3F80
0000
ENDCHAR
STARTCHAR 366d
ENCODING 13933
SWIDTH 960 0
DWIDTH 10 0
BBX 10 10 0 -2
BITMAP
2000
77C0
5480
7680
5500
7500
3680
5400
37C0
0000
ENDCHAR
STARTCHAR 366e
ENCODING 13934
SWIDTH 960 0
DWIDTH 10 0
BBX 10 10 0 -2
BITMAP
7800
53C0
7A00
5240
5340
7A80
0B40
2A00
5BC0
0000
ENDCHAR
STARTCHAR 366f
ENCODING 13935
SWIDTH 960 0
DWIDTH 10 0
BBX 10 10 0 -2
BITMAP
78C0
5300
7A00
53C0
5280
7A80
0A80
2A80
57C0
0000
ENDCHAR
STARTCHAR 3670
ENCODING 13936
SWIDTH 960 0
DWIDTH 10 0
BBX 10 10 0 -2
BITMAP
7A00
5200
7BC0
5440
5340
7B40
0B40
2840
5980
0000
ENDCHAR
STARTCHAR 3671
ENCODING 13937
SWIDTH 960 0
DWIDTH 10 0
BBX 10 10 0 -2
BITMAP
3F00
2100
3F00
2100
3F00
2100
7F80
2100
4080
0000
ENDCHAR
STARTCHAR 3672
ENCODING 13938
SWIDTH 960 0
DWIDTH 10 0
BBX 10 10 0 -2
BITMAP
3F80
2480
7FC0
4540
5F40
40C0
0400
5240
5F40
0000
ENDCHAR
STARTCHAR 3673
ENCODING 13939
SWIDTH 960 0
DWIDTH 10 0
BBX 10 10 0 -2
BITMAP
0700
0400
7FC0
4780
5500
5F80
4080
7FC0
5080
0000
ENDCHAR
STARTCHAR 3674
ENCODING 13940
SWIDTH 960 0
DWIDTH 10 0
BBX 10 10 0 -2
BITMAP
0300
7480
5A40
5780
5480
5780
5540
7480
0E40
0000
ENDCHAR
STARTCHAR 3675
ENCODING 13941
SWIDTH 960 0
DWIDTH 10 0
BBX 10 10 0 -2
BITMAP
0400
7FC0
4A40
3380
0000
3F80
0400
0400
7FC0
0000
ENDCHAR
STARTCHAR 3676
ENCODING 13942
SWIDTH 960 0
DWIDTH 10 0
BBX 10 10 0 -2
BITMAP
1780
1580
2680
2780
6200
2FC0
2A40
2B40
28C0
0000
ENDCHAR
STARTCHAR 3677
ENCODING 13943
SWIDTH 960 0
DWIDTH 10 0
BBX 10 10 0 -2
BITMAP
0400
7FC0
5540
1F00
1500
3F80
2480
2E80
2180
0000
ENDCHAR
STARTCHAR 3678
ENCODING 13944
SWIDTH 960 0
DWIDTH 10 0
BBX 10 10 0 -2
BITMAP
4780
2680
0580
6FC0
2A40
2F40
28C0
2000
5FC0
0000
ENDCHAR
STARTCHAR 3679
ENCODING 13945
SWIDTH 960 0
DWIDTH 10 0
BBX 10 10 0 -2
BITMAP
7780
5580
6680
5780
5200
5FC0
6A40
4B40
48C0
0000
ENDCHAR
STARTCHAR 367a
ENCODING 13946
SWIDTH 960 0
DWIDTH 10 0
BBX 10 10 0 -2
BITMAP
0400
3F80
2480
3F80
0400
7FC0
4440
7FC0
0400
0000
ENDCHAR
STARTCHAR 367b
ENCODING 13947
SWIDTH 960 0
DWIDTH 10 0
BBX 10 10 0 -2
BITMAP
2900
2DC0
6000
2DC0
6D40
6D40
6940
29C0
2D00
0000
ENDCHAR
STARTCHAR 367c
ENCODING 13948
SWIDTH 960 0
DWIDTH 10 0
BBX 10 10 0 -2
BITMAP
1440
2D40
7540
1540
7D40
1540
5D40
3540
6440
0000
ENDCHAR
STARTCHAR 367d
ENCODING 13949
SWIDTH 960 0
DWIDTH 10 0
BBX 10 10 0 -2
BITMAP
3FC0
2040
3FC0
2A80
2FC0
2840
2FC0
4840
48C0
0000
ENDCHAR
STARTCHAR 367e
ENCODING 13950
SWIDTH 960 0
DWIDTH 10 0
BBX 10 10 0 -2
BITMAP
3FC0
2040
3FC0
2200
2A80
2F80
2200
5240
5FC0
0000
ENDCHAR
STARTCHAR 3721
ENCODING 14113
SWIDTH 960 0
DWIDTH 10 0
BBX 10 10 0 -2
BITMAP
2FC0
2840
6FC0
2900
2D40
6FC0
2900
2D40
77C0
0000
ENDCHAR
STARTCHAR 3722
ENCODING 14114
SWIDTH 960 0
DWIDTH 10 0
BBX 10 10 0 -2
BITMAP
0400
7FC0
5B40
2080
3FC0
2A80
2780
2A40
4FC0
0000
ENDCHAR
STARTCHAR 3723
ENCODING 14115
SWIDTH 960 0
DWIDTH 10 0
BBX 10 10 0 -2
BITMAP
0400
76C0
1500
6CC0
3F80
2080
3F80
2080
3F80
0000
ENDCHAR
STARTCHAR 3724
ENCODING 14116
SWIDTH 960 0
DWIDTH 10 0
BBX 10 10 0 -2
BITMAP
5300
FB00
5540
7580
5D00
7500
2500
7540
24C0
0000
ENDCHAR
STARTCHAR 3725
ENCODING 14117
SWIDTH 960 0
DWIDTH 10 0
BBX 10 10 0 -2
BITMAP
2440
4E80
2A40
4E80
64C0
0000
3F80
2080
3F80
0000
ENDCHAR
STARTCHAR 3726
ENCODING 14118
SWIDTH 960 0
DWIDTH 10 0
BBX 10 10 0 -2
BITMAP
0400
7FC0
4A40
1180
4F80
2200
4F80
2200
5FC0
0000
ENDCHAR
STARTCHAR 3727
ENCODING 14119
SWIDTH 960 0
DWIDTH 10 0
BBX 10 10 0 -2
BITMAP
2280
7B40
01C0
7A00
4B80
7A40
49C0
0000
4A40
0000
ENDCHAR
STARTCHAR 3728
ENCODING 14120
SWIDTH 960 0
DWIDTH 10 0
BBX 10 10 0 -2
BITMAP
7780
5680
6580
5780
5000
5FC0
6540
4480
4E40
0000
ENDCHAR
STARTCHAR 3729
ENCODING 14121
SWIDTH 960 0
DWIDTH 10 0
BBX 10 10 0 -2
BITMAP
0E00
3200
0400
1A00
65C0
1500
7FC0
1500
64C0
0000
ENDCHAR
STARTCHAR 372a
ENCODING 14122
SWIDTH 960 0
DWIDTH 10 0
BBX 10 10 0 -2
BITMAP
7FC0
0A00
3F80
2A80
3F80
0400
7FC0
1500
64C0
0000
ENDCHAR
STARTCHAR 372b
ENCODING 14123
SWIDTH 960 0
DWIDTH 10 0
BBX 10 10 0 -2
BITMAP
1380
2280
57C0
2D40
77C0
1100
57C0
5380
1540
0000
ENDCHAR
STARTCHAR 372c
ENCODING 14124
SWIDTH 960 0
DWIDTH 10 0
BBX 10 10 0 -2
BITMAP
1F00
0A00
0400
7BC0
2A80
1500
7FC0
1500
64C0
0000
ENDCHAR
STARTCHAR 372d
ENCODING 14125
SWIDTH 960 0
DWIDTH 10 0
BBX 10 10 0 -2
BITMAP
2E80
5480
7EC0
25C0
7480
2E80
5C80
2540
7540
0000
ENDCHAR
STARTCHAR 372e
ENCODING 14126
SWIDTH 960 0
DWIDTH 10 0
BBX 10 10 0 -2
BITMAP
1D00
7100
3FC0
5540
7D40
1240
7AC0
0000
4A40
0000
ENDCHAR
STARTCHAR 372f
ENCODING 14127
SWIDTH 960 0
DWIDTH 10 0
BBX 10 10 0 -2
BITMAP
3F00
0900
7FC0
0900
3F00
1000
3F80
5080
1F80
0000
ENDCHAR
STARTCHAR 3730
ENCODING 14128
SWIDTH 960 0
DWIDTH 10 0
BBX 10 10 0 -2
BITMAP
1100
7FC0
3F80
2480
3F80
0400
7FC0
0000
4A40
0000
ENDCHAR
STARTCHAR 3731
ENCODING 14129
SWIDTH 960 0
DWIDTH 10 0
BBX 10 10 0 -2
BITMAP
7440
0540
7540
0540
7540
0540
7540
5540
7440
0000
ENDCHAR
STARTCHAR 3732
ENCODING 14130
SWIDTH 960 0
DWIDTH 10 0
BBX 10 10 0 -2
BITMAP
7A80
2A80
7BC0
2900
3BC0
4100
3BC0
2900
3900
0000
ENDCHAR
STARTCHAR 3733
ENCODING 14131
SWIDTH 960 0
DWIDTH 10 0
BBX 10 10 0 -2
BITMAP
7FC0
4440
3F80
1500
1F00
1500
1F00
7FC0
0400
0000
ENDCHAR
STARTCHAR 3734
ENCODING 14132
SWIDTH 960 0
DWIDTH 10 0
BBX 10 10 0 -2
BITMAP
7BC0
2A40
7E80
2A40
3A40
4240
3B40
2A80
3A00
0000
ENDCHAR
STARTCHAR 3735
ENCODING 14133
SWIDTH 960 0
DWIDTH 10 0
BBX 10 10 0 -2
BITMAP
1100
7D00
1100
7D80
0140
1100
7D00
1100
7D00
0000
ENDCHAR
STARTCHAR 3736
ENCODING 14134
SWIDTH 960 0
DWIDTH 10 0
BBX 10 10 0 -2
BITMAP
2000
7BC0
2A40
5BC0
0400
7FC0
3480
5300
38C0
0000
ENDCHAR
STARTCHAR 3737
ENCODING 14135
SWIDTH 960 0
DWIDTH 10 0
BBX 10 10 0 -2
BITMAP
1000
7BC0
0A40
1280
1240
3A40
5340
1280
1200
0000
ENDCHAR
STARTCHAR 3738
ENCODING 14136
SWIDTH 960 0
DWIDTH 10 0
BBX 10 10 0 -2
BITMAP
1180
1600
2280
2500
6240
2FC0
2100
2540
2540
0000
ENDCHAR
STARTCHAR 3739
ENCODING 14137
SWIDTH 960 0
DWIDTH 10 0
BBX 10 10 0 -2
BITMAP
13C0
1080
29C0
2D40
69C0
2940
2DC0
2000
2140
0000
ENDCHAR
STARTCHAR 373a
ENCODING 14138
SWIDTH 960 0
DWIDTH 10 0
BBX 10 10 0 -2
BITMAP
7C40
2940
2940
7D40
2940
2940
2840
2840
28C0
0000
ENDCHAR
STARTCHAR 373b
ENCODING 14139
SWIDTH 960 0
DWIDTH 10 0
BBX 10 10 0 -2
BITMAP
3F80
2080
2080
2080
3F80
0A00
0A00
1240
63C0
0000
ENDCHAR
STARTCHAR 373c
ENCODING 14140
SWIDTH 960 0
DWIDTH 10 0
BBX 10 10 0 -2
BITMAP
7A00
03C0
3A80
2900
3AC0
4000
3F80
2080
3F80
0000
ENDCHAR
STARTCHAR 373d
ENCODING 14141
SWIDTH 960 0
DWIDTH 10 0
BBX 10 10 0 -2
BITMAP
0400
3F80
0400
7FC0
0000
0400
3F80
0400
7FC0
0000
ENDCHAR
STARTCHAR 373e
ENCODING 14142
SWIDTH 960 0
DWIDTH 10 0
BBX 10 10 0 -2
BITMAP
0100
7380
2100
77C0
2000
2100
3380
6100
07C0
0000
ENDCHAR
STARTCHAR 373f
ENCODING 14143
SWIDTH 960 0
DWIDTH 10 0
BBX 10 10 0 -2
BITMAP
7D40
2940
7D40
2840
28C0
0400
3F80
0400
7FC0
0000
ENDCHAR
STARTCHAR 3740
ENCODING 14144
SWIDTH 960 0
DWIDTH 10 0
BBX 10 10 0 -2
BITMAP
13C0
7940
3140
1A40
72C0
0400
7FC0
0A00
71C0
0000
ENDCHAR
STARTCHAR 3741
ENCODING 14145
SWIDTH 960 0
DWIDTH 10 0
BBX 10 10 0 -2
BITMAP
7C40
2880
2B00
7C40
2880
2B00
2840
4880
4B00
0000
ENDCHAR
STARTCHAR 3742
ENCODING 14146
SWIDTH 960 0
DWIDTH 10 0
BBX 10 10 0 -2
BITMAP
2F80
4480
1300
2CC0
6200
2200
2F80
2200
2FC0
0000
ENDCHAR
STARTCHAR 3743
ENCODING 14147
SWIDTH 960 0
DWIDTH 10 0
BBX 10 10 0 -2
BITMAP
0400
7FC0
2480
3F80
2480
3F80
0400
5240
5F40
0000
ENDCHAR
STARTCHAR 3744
ENCODING 14148
SWIDTH 960 0
DWIDTH 10 0
BBX 10 10 0 -2
BITMAP
0400
7FC0
4900
7FC0
5540
4F80
5880
4700
B8C0
0000
ENDCHAR
STARTCHAR 3745
ENCODING 14149
SWIDTH 960 0
DWIDTH 10 0
BBX 10 10 0 -2
BITMAP
2100
7BC0
2100
7FC0
0100
1F00
0400
5240
5F40
0000
ENDCHAR
STARTCHAR 3746
ENCODING 14150
SWIDTH 960 0
DWIDTH 10 0
BBX 10 10 0 -2
BITMAP
1900
73C0
1240
7FC0
2A40
3BC0
0400
5240
5F40
0000
ENDCHAR
STARTCHAR 3747
ENCODING 14151
SWIDTH 960 0
DWIDTH 10 0
BBX 10 10 0 -2
BITMAP
2780
2480
7780
2480
37C0
6440
2D40
2740
6080
0000
ENDCHAR
STARTCHAR 3748
ENCODING 14152
SWIDTH 960 0
DWIDTH 10 0
BBX 10 10 0 -2
BITMAP
2480
27C0
6D00
27C0
3000
6780
22C0
2440
6980
0000
ENDCHAR
STARTCHAR 3749
ENCODING 14153
SWIDTH 960 0
DWIDTH 10 0
BBX 10 10 0 -2
BITMAP
2900
7D00
29C0
7F40
0540
7540
54C0
7480
0940
0000
ENDCHAR
STARTCHAR 374a
ENCODING 14154
SWIDTH 960 0
DWIDTH 10 0
BBX 10 10 0 -2
BITMAP
3F80
2080
3F80
0400
7FC0
1100
1F00
2480
4C40
0000
ENDCHAR
STARTCHAR 374b
ENCODING 14155
SWIDTH 960 0
DWIDTH 10 0
BBX 10 10 0 -2
BITMAP
1100
17C0
7900
17C0
3800
3100
57C0
1100
17C0
0000
ENDCHAR
STARTCHAR 374c
ENCODING 14156
SWIDTH 960 0
DWIDTH 10 0
BBX 10 10 0 -2
BITMAP
40C0
2F00
0540
4FC0
2100
0FC0
2100
2280
4C40
0000
ENDCHAR
STARTCHAR 374d
ENCODING 14157
SWIDTH 960 0
DWIDTH 10 0
BBX 10 10 0 -2
BITMAP
0100
7FC0
5500
57C0
7C00
5500
57C0
7D00
07C0
0000
ENDCHAR
STARTCHAR 374e
ENCODING 14158
SWIDTH 960 0
DWIDTH 10 0
BBX 10 10 0 -2
BITMAP
1940
77C0
1100
76C0
1B80
3200
37C0
5440
17C0
0000
ENDCHAR
STARTCHAR 374f
ENCODING 14159
SWIDTH 960 0
DWIDTH 10 0
BBX 10 10 0 -2
BITMAP
0300
3C00
0900
1200
0C80
7FC0
0400
2480
4440
0000
ENDCHAR
STARTCHAR 3750
ENCODING 14160
SWIDTH 960 0
DWIDTH 10 0
BBX 10 10 0 -2
BITMAP
17C0
2280
5100
2AC0
7800
1100
5B80
5100
17C0
0000
ENDCHAR
STARTCHAR 3751
ENCODING 14161
SWIDTH 960 0
DWIDTH 10 0
BBX 10 10 0 -2
BITMAP
1500
2740
5500
2FC0
7500
1580
5740
5500
17C0
0000
ENDCHAR
STARTCHAR 3752
ENCODING 14162
SWIDTH 960 0
DWIDTH 10 0
BBX 10 10 0 -2
BITMAP
1380
7EC0
2B80
7D00
12C0
0880
7FC0
0400
2480
0000
ENDCHAR
STARTCHAR 3753
ENCODING 14163
SWIDTH 960 0
DWIDTH 10 0
BBX 10 10 0 -2
BITMAP
3F80
2A80
3F80
0000
7D00
1100
7D80
1140
7D00
0000
ENDCHAR
STARTCHAR 3754
ENCODING 14164
SWIDTH 960 0
DWIDTH 10 0
BBX 10 10 0 -2
BITMAP
1100
7FC0
1100
3F80
1100
0E00
75C0
0E00
7FC0
0000
ENDCHAR
STARTCHAR 3755
ENCODING 14165
SWIDTH 960 0
DWIDTH 10 0
BBX 10 10 0 -2
BITMAP
1100
7FC0
1100
7C40
2940
7D40
2940
2840
48C0
0000
ENDCHAR
STARTCHAR 3756
ENCODING 14166
SWIDTH 960 0
DWIDTH 10 0
BBX 10 10 0 -2
BITMAP
2880
1500
7FC0
4440
3F80
2480
3F80
0480
7F40
0000
ENDCHAR
STARTCHAR 3757
ENCODING 14167
SWIDTH 960 0
DWIDTH 10 0
BBX 10 10 0 -2
BITMAP
7900
0100
7900
07C0
7900
0100
7900
4900
7900
0000
ENDCHAR
STARTCHAR 3758
ENCODING 14168
SWIDTH 960 0
DWIDTH 10 0
BBX 10 10 0 -2
BITMAP
7480
0700
7440
03C0
7000
07C0
7440
5440
77C0
0000
ENDCHAR
STARTCHAR 3759
ENCODING 14169
SWIDTH 960 0
DWIDTH 10 0
BBX 10 10 0 -2
BITMAP
2A00
7BC0
4E40
2980
3F40
0000
7FC0
1100
1F00
0000
ENDCHAR
STARTCHAR 375a
ENCODING 14170
SWIDTH 960 0
DWIDTH 10 0
BBX 10 10 0 -2
BITMAP
27C0
7280
2100
76C0
5000
7100
27C0
7100
27C0
0000
ENDCHAR
STARTCHAR 375b
ENCODING 14171
SWIDTH 960 0
DWIDTH 10 0
BBX 10 10 0 -2
BITMAP
7BC0
2900
33C0
4A40
23C0
7A40
23C0
3800
6240
0000
ENDCHAR
STARTCHAR 375c
ENCODING 14172
SWIDTH 960 0
DWIDTH 10 0
BBX 10 10 0 -2
BITMAP
7200
5780
0480
27C0
7400
27C0
7040
2540
5480
0000
ENDCHAR
STARTCHAR 375d
ENCODING 14173
SWIDTH 960 0
DWIDTH 10 0
BBX 10 10 0 -2
BITMAP
1100
7FC0
1100
3F80
0000
7FC0
0800
1100
3E80
0000
ENDCHAR
STARTCHAR 375e
ENCODING 14174
SWIDTH 960 0
DWIDTH 10 0
BBX 10 10 0 -2
BITMAP
4200
2DC0
0940
6940
2940
2DC0
2100
2000
5FC0
0000
ENDCHAR
STARTCHAR 375f
ENCODING 14175
SWIDTH 960 0
DWIDTH 10 0
BBX 10 10 0 -2
BITMAP
3100
57C0
2000
7380
5280
7380
0100
5540
5100
0000
ENDCHAR
STARTCHAR 3760
ENCODING 14176
SWIDTH 960 0
DWIDTH 10 0
BBX 10 10 0 -2
BITMAP
1C40
1140
7F40
5140
5D40
6840
5C40
6A40
58C0
0000
ENDCHAR
STARTCHAR 3761
ENCODING 14177
SWIDTH 960 0
DWIDTH 10 0
BBX 10 10 0 -2
BITMAP
2280
7240
27C0
7200
5240
7280
2100
7340
24C0
0000
ENDCHAR
STARTCHAR 3762
ENCODING 14178
SWIDTH 960 0
DWIDTH 10 0
BBX 10 10 0 -2
BITMAP
1380
7EC0
2B80
7900
16C0
1C00
7FC0
0400
0C00
0000
ENDCHAR
STARTCHAR 3763
ENCODING 14179
SWIDTH 960 0
DWIDTH 10 0
BBX 10 10 0 -2
BITMAP
4900
1D00
15C0
5D40
0940
1EC0
0A80
5280
5740
0000
ENDCHAR
STARTCHAR 3764
ENCODING 14180
SWIDTH 960 0
DWIDTH 10 0
BBX 10 10 0 -2
BITMAP
7540
5100
67C0
5440
57C0
5440
67C0
4100
4540
0000
ENDCHAR
STARTCHAR 3765
ENCODING 14181
SWIDTH 960 0
DWIDTH 10 0
BBX 10 10 0 -2
BITMAP
2400
29C0
7400
2DC0
7480
6480
6480
2480
2580
0000
ENDCHAR
STARTCHAR 3766
ENCODING 14182
SWIDTH 960 0
DWIDTH 10 0
BBX 10 10 0 -2
BITMAP
1680
15C0
2A80
63C0
2480
2100
2FC0
2580
2940
0000
ENDCHAR
STARTCHAR 3767
ENCODING 14183
SWIDTH 960 0
DWIDTH 10 0
BBX 10 10 0 -2
BITMAP
1000
1000
3FC0
2440
4480
0A00
0A00
1100
60C0
0000
ENDCHAR
STARTCHAR 3768
ENCODING 14184
SWIDTH 960 0
DWIDTH 10 0
BBX 10 10 0 -2
BITMAP
4200
2200
0F80
4280
2FC0
0200
2200
2500
58C0
0000
ENDCHAR
STARTCHAR 3769
ENCODING 14185
SWIDTH 960 0
DWIDTH 10 0
BBX 10 10 0 -2
BITMAP
4BC0
1D40
0940
5EC0
0500
0A40
1FC0
4200
4A80
0000
ENDCHAR
STARTCHAR 376a
ENCODING 14186
SWIDTH 960 0
DWIDTH 10 0
BBX 10 10 0 -2
BITMAP
0400
7FC0
4040
0200
1200
1100
2100
2080
4040
0000
ENDCHAR
STARTCHAR 376b
ENCODING 14187
SWIDTH 960 0
DWIDTH 10 0
BBX 10 10 0 -2
BITMAP
1100
27C0
5100
2BC0
7800
13C0
5A40
5240
13C0
0000
ENDCHAR
STARTCHAR 376c
ENCODING 14188
SWIDTH 960 0
DWIDTH 10 0
BBX 10 10 0 -2
BITMAP
0400
0800
3F80
2A80
2A80
2A80
2A80
2A80
7FC0
0000
ENDCHAR
STARTCHAR 376d
ENCODING 14189
SWIDTH 960 0
DWIDTH 10 0
BBX 10 10 0 -2
BITMAP
7200
0200
7780
0280
77C0
0200
7200
5500
74C0
0000
ENDCHAR
STARTCHAR 376e
ENCODING 14190
SWIDTH 960 0
DWIDTH 10 0
BBX 10 10 0 -2
BITMAP
1F80
1080
1F80
1080
1F80
1080
1080
2080
4180
0000
ENDCHAR
STARTCHAR 376f
ENCODING 14191
SWIDTH 960 0
DWIDTH 10 0
BBX 10 10 0 -2
BITMAP
1100
1500
27C0
2900
6100
2FC0
2100
2100
2100
0000
ENDCHAR
STARTCHAR 3770
ENCODING 14192
SWIDTH 960 0
DWIDTH 10 0
BBX 10 10 0 -2
BITMAP
1200
1500
2F80
3240
6F80
2A80
2F80
2500
2880
0000
ENDCHAR
STARTCHAR 3771
ENCODING 14193
SWIDTH 960 0
DWIDTH 10 0
BBX 10 10 0 -2
BITMAP
2A80
2F80
4500
5FC0
C880
5740
4700
4440
47C0
0000
ENDCHAR
STARTCHAR 3772
ENCODING 14194
SWIDTH 960 0
DWIDTH 10 0
BBX 10 10 0 -2
BITMAP
2080
3DC0
44C0
49C0
DC80
45C0
5480
4880
57C0
0000
ENDCHAR
STARTCHAR 3773
ENCODING 14195
SWIDTH 960 0
DWIDTH 10 0
BBX 10 10 0 -2
BITMAP
1100
7FC0
0A00
3F80
4AC0
3F80
0A00
1B00
6AC0
0000
ENDCHAR
STARTCHAR 3774
ENCODING 14196
SWIDTH 960 0
DWIDTH 10 0
BBX 10 10 0 -2
BITMAP
2480
1500
3F80
0A00
7FC0
2080
5F40
0900
3300
0000
ENDCHAR
STARTCHAR 3775
ENCODING 14197
SWIDTH 960 0
DWIDTH 10 0
BBX 10 10 0 -2
BITMAP
1040
2940
7D40
1140
7D40
5540
7D40
2840
44C0
0000
ENDCHAR
STARTCHAR 3776
ENCODING 14198
SWIDTH 960 0
DWIDTH 10 0
BBX 10 10 0 -2
BITMAP
0200
7FC0
5840
5780
5480
5780
7480
0480
0FC0
0000
ENDCHAR
STARTCHAR 3777
ENCODING 14199
SWIDTH 960 0
DWIDTH 10 0
BBX 10 10 0 -2
BITMAP
7FC0
5540
4A40
7FC0
5140
7EC0
4A40
5240
7FC0
0000
ENDCHAR
STARTCHAR 3778
ENCODING 14200
SWIDTH 960 0
DWIDTH 10 0
BBX 10 10 0 -2
BITMAP
7BC0
5240
7940
5180
7A40
0400
3F80
0400
7FC0
0000
ENDCHAR
STARTCHAR 3779
ENCODING 14201
SWIDTH 960 0
DWIDTH 10 0
BBX 10 10 0 -2
BITMAP
2480
2FC0
F500
5780
5DC0
5780
2500
3D80
5540
0000
ENDCHAR
STARTCHAR 377a
ENCODING 14202
SWIDTH 960 0
DWIDTH 10 0
BBX 10 10 0 -2
BITMAP
7780
1280
2FC0
7280
1780
5200
2FC0
2200
5FC0
0000
ENDCHAR
STARTCHAR 377b
ENCODING 14203
SWIDTH 960 0
DWIDTH 10 0
BBX 10 10 0 -2
BITMAP
0400
7FC0
4440
1F00
2A80
3F80
0400
5240
5F40
0000
ENDCHAR
STARTCHAR 377c
ENCODING 14204
SWIDTH 960 0
DWIDTH 10 0
BBX 10 10 0 -2
BITMAP
1BC0
5900
4240
7BC0
1100
5540
0000
5240
5F40
0000
ENDCHAR
STARTCHAR 377d
ENCODING 14205
SWIDTH 960 0
DWIDTH 10 0
BBX 10 10 0 -2
BITMAP
2480
1500
7FC0
1100
7FC0
2480
5F40
0400
0C00
0000
ENDCHAR
STARTCHAR 377e
ENCODING 14206
SWIDTH 960 0
DWIDTH 10 0
BBX 10 10 0 -2
BITMAP
2A80
2F80
6500
3FC0
2880
7740
2700
2440
67C0
0000
ENDCHAR
STARTCHAR 3821
ENCODING 14369
SWIDTH 960 0
DWIDTH 10 0
BBX 10 10 0 -2
BITMAP
1100
1280
7FC0
1100
37C0
3D40
57C0
1280
1440
0000
ENDCHAR
STARTCHAR 3822
ENCODING 14370
SWIDTH 960 0
DWIDTH 10 0
BBX 10 10 0 -2
BITMAP
1200
13C0
7500
1380
3BC0
3680
53C0
1280
13C0
0000
ENDCHAR
STARTCHAR 3823
ENCODING 14371
SWIDTH 960 0
DWIDTH 10 0
BBX 10 10 0 -2
BITMAP
0400
3F80
1100
7FC0
4A40
1F00
2400
7FC0
0400
0000
ENDCHAR
STARTCHAR 3824
ENCODING 14372
SWIDTH 960 0
DWIDTH 10 0
BBX 10 10 0 -2
BITMAP
0480
0400
7FC0
0400
0A00
0A00
1100
2080
4040
0000
ENDCHAR
STARTCHAR 3825
ENCODING 14373
SWIDTH 960 0
DWIDTH 10 0
BBX 10 10 0 -2
BITMAP
2140
7900
27C0
7900
6900
5A80
6A80
6A40
4C40
0000
ENDCHAR
STARTCHAR 3826
ENCODING 14374
SWIDTH 960 0
DWIDTH 10 0
BBX 10 10 0 -2
BITMAP
07C0
7280
2280
7280
D7C0
5280
5280
7480
0480
0000
ENDCHAR
STARTCHAR 3827
ENCODING 14375
SWIDTH 960 0
DWIDTH 10 0
BBX 10 10 0 -2
BITMAP
0780
7480
2780
7480
D780
5480
5780
7500
19C0
0000
ENDCHAR
STARTCHAR 3828
ENCODING 14376
SWIDTH 960 0
DWIDTH 10 0
BBX 10 10 0 -2
BITMAP
13C0
2240
53C0
2800
7BC0
1240
5BC0
5240
12C0
0000
ENDCHAR
STARTCHAR 3829
ENCODING 14377
SWIDTH 960 0
DWIDTH 10 0
BBX 10 10 0 -2
BITMAP
1F00
1100
5F00
5100
5F00
5100
7FC0
2480
4440
0000
ENDCHAR
STARTCHAR 382a
ENCODING 14378
SWIDTH 960 0
DWIDTH 10 0
BBX 10 10 0 -2
BITMAP
3FC0
0000
3FC0
2040
3FC0
2880
2F80
4880
4980
0000
ENDCHAR
STARTCHAR 382b
ENCODING 14379
SWIDTH 960 0
DWIDTH 10 0
BBX 10 10 0 -2
BITMAP
3F00
2100
3F00
2100
3F00
2100
3F00
1240
63C0
0000
ENDCHAR
STARTCHAR 382c
ENCODING 14380
SWIDTH 960 0
DWIDTH 10 0
BBX 10 10 0 -2
BITMAP
6880
1FC0
6500
0F80
75C0
0F80
7500
5D80
7540
0000
ENDCHAR
STARTCHAR 382d
ENCODING 14381
SWIDTH 960 0
DWIDTH 10 0
BBX 10 10 0 -2
BITMAP
7BC0
5240
5180
7F40
1100
1F00
1100
1F00
2080
0000
ENDCHAR
STARTCHAR 382e
ENCODING 14382
SWIDTH 960 0
DWIDTH 10 0
BBX 10 10 0 -2
BITMAP
1000
7FC0
1100
7D00
57C0
7D00
1100
7D00
1100
0000
ENDCHAR
STARTCHAR 382f
ENCODING 14383
SWIDTH 960 0
DWIDTH 10 0
BBX 10 10 0 -2
BITMAP
4200
2F80
0A80
1FC0
6500
2780
2480
2780
5FC0
0000
ENDCHAR
STARTCHAR 3830
ENCODING 14384
SWIDTH 960 0
DWIDTH 10 0
BBX 10 10 0 -2
BITMAP
1080
27C0
7AC0
15C0
7680
13C0
5680
3200
65C0
0000
ENDCHAR
STARTCHAR 3831
ENCODING 14385
SWIDTH 960 0
DWIDTH 10 0
BBX 10 10 0 -2
BITMAP
7100
5280
67C0
5900
57C0
5540
67C0
4280
4440
0000
ENDCHAR
STARTCHAR 3832
ENCODING 14386
SWIDTH 960 0
DWIDTH 10 0
BBX 10 10 0 -2
BITMAP
7BC0
4900
7BC0
4A40
7BC0
3240
73C0
3980
6240
0000
ENDCHAR
STARTCHAR 3833
ENCODING 14387
SWIDTH 960 0
DWIDTH 10 0
BBX 10 10 0 -2
BITMAP
7900
5280
57C0
7900
57C0
7540
0FC0
2A80
5440
0000
ENDCHAR
STARTCHAR 3834
ENCODING 14388
SWIDTH 960 0
DWIDTH 10 0
BBX 10 10 0 -2
BITMAP
2100
3A80
27C0
7100
57C0
7540
77C0
5280
7440
0000
ENDCHAR
STARTCHAR 3835
ENCODING 14389
SWIDTH 960 0
DWIDTH 10 0
BBX 10 10 0 -2
BITMAP
3F80
0000
0000
7FC0
0A00
0A00
1200
2240
43C0
0000
ENDCHAR
STARTCHAR 3836
ENCODING 14390
SWIDTH 960 0
DWIDTH 10 0
BBX 10 10 0 -2
BITMAP
3FC0
2200
2F80
2880
2880
2F80
2200
5240
5640
0000
ENDCHAR
STARTCHAR 3837
ENCODING 14391
SWIDTH 960 0
DWIDTH 10 0
BBX 10 10 0 -2
BITMAP
2480
7FC0
4000
5D00
49C0
7F40
5480
7CC0
4540
0000
ENDCHAR
STARTCHAR 3838
ENCODING 14392
SWIDTH 960 0
DWIDTH 10 0
BBX 10 10 0 -2
BITMAP
0800
17C0
2040
4840
2840
1040
2C40
7440
0180
0000
ENDCHAR
STARTCHAR 3839
ENCODING 14393
SWIDTH 960 0
DWIDTH 10 0
BBX 10 10 0 -2
BITMAP
7100
17C0
7200
4400
7280
1100
1200
1480
6740
0000
ENDCHAR
STARTCHAR 383a
ENCODING 14394
SWIDTH 960 0
DWIDTH 10 0
BBX 10 10 0 -2
BITMAP
4280
2200
0FC0
4900
2D00
0940
2E80
2A80
5740
0000
ENDCHAR
STARTCHAR 383b
ENCODING 14395
SWIDTH 960 0
DWIDTH 10 0
BBX 10 10 0 -2
BITMAP
4FC0
2900
0B80
4A80
2A80
0B80
2900
2D40
5100
0000
ENDCHAR
STARTCHAR 383c
ENCODING 14396
SWIDTH 960 0
DWIDTH 10 0
BBX 10 10 0 -2
BITMAP
0400
7FC0
0400
0800
3100
0A00
0400
0880
7F40
0000
ENDCHAR
STARTCHAR 383d
ENCODING 14397
SWIDTH 960 0
DWIDTH 10 0
BBX 10 10 0 -2
BITMAP
0780
7480
2780
2480
7780
2480
3780
6500
19C0
0000
ENDCHAR
STARTCHAR 383e
ENCODING 14398
SWIDTH 960 0
DWIDTH 10 0
BBX 10 10 0 -2
BITMAP
1100
27C0
5100
2A00
7680
1100
5900
52C0
1740
0000
ENDCHAR
STARTCHAR 383f
ENCODING 14399
SWIDTH 960 0
DWIDTH 10 0
BBX 10 10 0 -2
BITMAP
1100
3FC0
2900
2A00
7E80
2900
2900
2AC0
2F40
0000
ENDCHAR
STARTCHAR 3840
ENCODING 14400
SWIDTH 960 0
DWIDTH 10 0
BBX 10 10 0 -2
BITMAP
1F00
0000
7FC0
0000
1F00
0000
3F80
2080
3F80
0000
ENDCHAR
STARTCHAR 3841
ENCODING 14401
SWIDTH 960 0
DWIDTH 10 0
BBX 10 10 0 -2
BITMAP
7100
07C0
7280
07C0
7480
0440
7580
5440
7580
0000
ENDCHAR
STARTCHAR 3842
ENCODING 14402
SWIDTH 960 0
DWIDTH 10 0
BBX 10 10 0 -2
BITMAP
7780
5480
6780
5480
5780
5600
6540
4480
4E40
0000
ENDCHAR
STARTCHAR 3843
ENCODING 14403
SWIDTH 960 0
DWIDTH 10 0
BBX 10 10 0 -2
BITMAP
0300
3C00
2480
1500
0400
7FC0
0400
0400
0C00
0000
ENDCHAR
STARTCHAR 3844
ENCODING 14404
SWIDTH 960 0
DWIDTH 10 0
BBX 10 10 0 -2
BITMAP
1FC0
1A40
2F40
2A40
6F40
2D40
2F40
2840
2FC0
0000
ENDCHAR
STARTCHAR 3845
ENCODING 14405
SWIDTH 960 0
DWIDTH 10 0
BBX 10 10 0 -2
BITMAP
0400
0400
7FC0
0400
0400
3F80
2080
2080
3F80
0000
ENDCHAR
STARTCHAR 3846
ENCODING 14406
SWIDTH 960 0
DWIDTH 10 0
BBX 10 10 0 -2
BITMAP
0180
7700
5100
5540
5380
5FC0
5100
7100
0300
0000
ENDCHAR
STARTCHAR 3847
ENCODING 14407
SWIDTH 960 0
DWIDTH 10 0
BBX 10 10 0 -2
BITMAP
7FC0
4440
5F40
4440
5F40
5140
5F40
4040
7FC0
0000
ENDCHAR
STARTCHAR 3848
ENCODING 14408
SWIDTH 960 0
DWIDTH 10 0
BBX 10 10 0 -2
BITMAP
1100
1100
7BC0
2900
2900
2BC0
1240
1A40
2BC0
0000
ENDCHAR
STARTCHAR 3849
ENCODING 14409
SWIDTH 960 0
DWIDTH 10 0
BBX 10 10 0 -2
BITMAP
70C0
1F80
2A80
3A80
6A80
2A80
2B40
2F40
7040
0000
ENDCHAR
STARTCHAR 384a
ENCODING 14410
SWIDTH 960 0
DWIDTH 10 0
BBX 10 10 0 -2
BITMAP
7F00
0100
0100
7F00
4000
4000
4000
4040
7FC0
0000
ENDCHAR
STARTCHAR 384b
ENCODING 14411
SWIDTH 960 0
DWIDTH 10 0
BBX 10 10 0 -2
BITMAP
0200
3FC0
2200
3FC0
2A80
2F80
2A80
5FC0
4200
0000
ENDCHAR
STARTCHAR 384c
ENCODING 14412
SWIDTH 960 0
DWIDTH 10 0
BBX 10 10 0 -2
BITMAP
60C0
2F80
6880
4A80
6A80
2A80
2B40
2F40
5040
0000
ENDCHAR
STARTCHAR 384d
ENCODING 14413
SWIDTH 960 0
DWIDTH 10 0
BBX 10 10 0 -2
BITMAP
7FC0
0000
3F80
2080
2080
3F80
2000
4000
4000
0000
ENDCHAR
STARTCHAR 384e
ENCODING 14414
SWIDTH 960 0
DWIDTH 10 0
BBX 10 10 0 -2
BITMAP
2200
2200
73C0
2680
2280
7280
5100
5280
7440
0000
ENDCHAR
STARTCHAR 384f
ENCODING 14415
SWIDTH 960 0
DWIDTH 10 0
BBX 10 10 0 -2
BITMAP
1100
1100
7BC0
1100
3100
3BC0
5240
1240
13C0
0000
ENDCHAR
STARTCHAR 3850
ENCODING 14416
SWIDTH 960 0
DWIDTH 10 0
BBX 10 10 0 -2
BITMAP
49C0
2940
1DC0
4940
1D40
15C0
3540
5D40
42C0
0000
ENDCHAR
STARTCHAR 3851
ENCODING 14417
SWIDTH 960 0
DWIDTH 10 0
BBX 10 10 0 -2
BITMAP
50C0
2F80
6A80
2A80
2A80
6A80
2B40
2F40
5040
0000
ENDCHAR
STARTCHAR 3852
ENCODING 14418
SWIDTH 960 0
DWIDTH 10 0
BBX 10 10 0 -2
BITMAP
25C0
7540
2FC0
7540
2F40
6BC0
7B40
6F40
2040
0000
ENDCHAR
STARTCHAR 3853
ENCODING 14419
SWIDTH 960 0
DWIDTH 10 0
BBX 10 10 0 -2
BITMAP
2100
77C0
1280
2440
2380
7200
2380
2080
2180
0000
ENDCHAR
STARTCHAR 3854
ENCODING 14420
SWIDTH 960 0
DWIDTH 10 0
BBX 10 10 0 -2
BITMAP
7380
5280
7280
54C0
5000
7380
5280
5100
56C0
0000
ENDCHAR
STARTCHAR 3855
ENCODING 14421
SWIDTH 960 0
DWIDTH 10 0
BBX 10 10 0 -2
BITMAP
13C0
1240
7BC0
1240
3BC0
2A40
2A40
3A40
04C0
0000
ENDCHAR
STARTCHAR 3856
ENCODING 14422
SWIDTH 960 0
DWIDTH 10 0
BBX 10 10 0 -2
BITMAP
1100
7FC0
1100
77C0
1480
2580
7540
2BC0
6840
0000
ENDCHAR
STARTCHAR 3857
ENCODING 14423
SWIDTH 960 0
DWIDTH 10 0
BBX 10 10 0 -2
BITMAP
0700
0400
3FC0
2600
3C80
2780
2000
4A40
53C0
0000
ENDCHAR
STARTCHAR 3858
ENCODING 14424
SWIDTH 960 0
DWIDTH 10 0
BBX 10 10 0 -2
BITMAP
7100
07C0
7280
0440
7380
0200
7380
5080
7180
0000
ENDCHAR
STARTCHAR 3859
ENCODING 14425
SWIDTH 960 0
DWIDTH 10 0
BBX 10 10 0 -2
BITMAP
7100
57C0
7280
2440
2380
3200
6380
7080
6180
0000
ENDCHAR
STARTCHAR 385a
ENCODING 14426
SWIDTH 960 0
DWIDTH 10 0
BBX 10 10 0 -2
BITMAP
1100
2900
77C0
1100
7900
13C0
5A40
3240
63C0
0000
ENDCHAR
STARTCHAR 385b
ENCODING 14427
SWIDTH 960 0
DWIDTH 10 0
BBX 10 10 0 -2
BITMAP
3FC0
0000
3FC0
2040
3FC0
2A00
2F80
4A00
4FC0
0000
ENDCHAR
STARTCHAR 385c
ENCODING 14428
SWIDTH 960 0
DWIDTH 10 0
BBX 10 10 0 -2
BITMAP
7BC0
0100
7BC0
4A40
7BC0
5240
7BC0
5000
BA40
0000
ENDCHAR
STARTCHAR 385d
ENCODING 14429
SWIDTH 960 0
DWIDTH 10 0
BBX 10 10 0 -2
BITMAP
2100
7BC0
2100
7BC0
4A40
7A40
5180
2940
7A40
0000
ENDCHAR
STARTCHAR 385e
ENCODING 14430
SWIDTH 960 0
DWIDTH 10 0
BBX 10 10 0 -2
BITMAP
0000
7F80
0800
0800
3F00
1100
1100
1100
7FC0
0000
ENDCHAR
STARTCHAR 385f
ENCODING 14431
SWIDTH 960 0
DWIDTH 10 0
BBX 10 10 0 -2
BITMAP
7FC0
0800
0800
1F00
1100
3F00
2200
0200
7FC0
0000
ENDCHAR
STARTCHAR 3860
ENCODING 14432
SWIDTH 960 0
DWIDTH 10 0
BBX 10 10 0 -2
BITMAP
1000
1FC0
2200
2200
6F80
2480
2480
2480
2FC0
0000
ENDCHAR
STARTCHAR 3861
ENCODING 14433
SWIDTH 960 0
DWIDTH 10 0
BBX 10 10 0 -2
BITMAP
1000
1000
3F80
4400
0400
7FC0
0400
0400
0400
0000
ENDCHAR
STARTCHAR 3862
ENCODING 14434
SWIDTH 960 0
DWIDTH 10 0
BBX 10 10 0 -2
BITMAP
0F00
2900
2F00
2000
3F00
0100
7FC0
2080
4040
0000
ENDCHAR
STARTCHAR 3863
ENCODING 14435
SWIDTH 960 0
DWIDTH 10 0
BBX 10 10 0 -2
BITMAP
3F80
0800
3F00
1100
7FC0
0000
3F80
2080
3F80
0000
ENDCHAR
STARTCHAR 3864
ENCODING 14436
SWIDTH 960 0
DWIDTH 10 0
BBX 10 10 0 -2
BITMAP
21C0
2540
F5C0
5400
57C0
5040
27C0
3280
5440
0000
ENDCHAR
STARTCHAR 3865
ENCODING 14437
SWIDTH 960 0
DWIDTH 10 0
BBX 10 10 0 -2
BITMAP
2280
4500
1240
2FC0
6000
2380
2C80
2300
2CC0
0000
ENDCHAR
STARTCHAR 3866
ENCODING 14438
SWIDTH 960 0
DWIDTH 10 0
BBX 10 10 0 -2
BITMAP
2800
4EC0
04C0
2EC0
64C0
26C0
2CC0
2E80
2080
0000
ENDCHAR
STARTCHAR 3867
ENCODING 14439
SWIDTH 960 0
DWIDTH 10 0
BBX 10 10 0 -2
BITMAP
2780
2200
7780
6280
2FC0
2000
2780
2480
2780
0000
ENDCHAR
STARTCHAR 3868
ENCODING 14440
SWIDTH 960 0
DWIDTH 10 0
BBX 10 10 0 -2
BITMAP
1780
1200
7780
1280
3FC0
3000
5780
1480
1780
0000
ENDCHAR
STARTCHAR 3869
ENCODING 14441
SWIDTH 960 0
DWIDTH 10 0
BBX 10 10 0 -2
BITMAP
2300
2480
6FC0
2480
6780
6200
6FC0
2B40
28C0
0000
ENDCHAR
STARTCHAR 386a
ENCODING 14442
SWIDTH 960 0
DWIDTH 10 0
BBX 10 10 0 -2
BITMAP
05C0
7540
2FC0
6540
2F40
2BC0
3B40
6F40
02C0
0000
ENDCHAR
STARTCHAR 386b
ENCODING 14443
SWIDTH 960 0
DWIDTH 10 0
BBX 10 10 0 -2
BITMAP
1100
3F80
1100
1100
7FC0
2880
5F40
3100
1F00
0000
ENDCHAR
STARTCHAR 386c
ENCODING 14444
SWIDTH 960 0
DWIDTH 10 0
BBX 10 10 0 -2
BITMAP
7780
0200
7780
0280
6FC0
0000
7780
5480
7780
0000
ENDCHAR
STARTCHAR 386d
ENCODING 14445
SWIDTH 960 0
DWIDTH 10 0
BBX 10 10 0 -2
BITMAP
71C0
0540
75C0
0400
77C0
0040
7FC0
5280
7440
0000
ENDCHAR
STARTCHAR 386e
ENCODING 14446
SWIDTH 960 0
DWIDTH 10 0
BBX 10 10 0 -2
BITMAP
7480
0FC0
7500
0FC0
7500
07C0
7480
5300
74C0
0000
ENDCHAR
STARTCHAR 386f
ENCODING 14447
SWIDTH 960 0
DWIDTH 10 0
BBX 10 10 0 -2
BITMAP
75C0
2540
7FC0
7540
5F40
5BC0
7B40
5F40
7140
0000
ENDCHAR
STARTCHAR 3870
ENCODING 14448
SWIDTH 960 0
DWIDTH 10 0
BBX 10 10 0 -2
BITMAP
2000
3F80
4000
3E00
0400
1800
2000
4040
3FC0
0000
ENDCHAR
STARTCHAR 3871
ENCODING 14449
SWIDTH 960 0
DWIDTH 10 0
BBX 10 10 0 -2
BITMAP
37C0
5540
27C0
7540
57C0
7100
07C0
5100
57C0
0000
ENDCHAR
STARTCHAR 3872
ENCODING 14450
SWIDTH 960 0
DWIDTH 10 0
BBX 10 10 0 -2
BITMAP
0400
7FC0
1100
2080
5140
0A00
0400
1B00
60C0
0000
ENDCHAR
STARTCHAR 3873
ENCODING 14451
SWIDTH 960 0
DWIDTH 10 0
BBX 10 10 0 -2
BITMAP
1100
17C0
2280
2440
6280
2280
2100
2280
2440
0000
ENDCHAR
STARTCHAR 3874
ENCODING 14452
SWIDTH 960 0
DWIDTH 10 0
BBX 10 10 0 -2
BITMAP
1780
1080
2FC0
2200
67C0
2900
27C0
2280
2440
0000
ENDCHAR
STARTCHAR 3875
ENCODING 14453
SWIDTH 960 0
DWIDTH 10 0
BBX 10 10 0 -2
BITMAP
1380
1080
27C0
2100
6BC0
2900
2BC0
2980
2240
0000
ENDCHAR
STARTCHAR 3876
ENCODING 14454
SWIDTH 960 0
DWIDTH 10 0
BBX 10 10 0 -2
BITMAP
1200
1780
2200
2FC0
6480
2FC0
2200
2780
2200
0000
ENDCHAR
STARTCHAR 3877
ENCODING 14455
SWIDTH 960 0
DWIDTH 10 0
BBX 10 10 0 -2
BITMAP
0400
2480
1500
7FC0
0A00
0A00
1200
2240
43C0
0000
ENDCHAR
STARTCHAR 3878
ENCODING 14456
SWIDTH 960 0
DWIDTH 10 0
BBX 10 10 0 -2
BITMAP
0600
1100
1100
2480
4440
0800
0900
1380
3C80
0000
ENDCHAR
STARTCHAR 3879
ENCODING 14457
SWIDTH 960 0
DWIDTH 10 0
BBX 10 10 0 -2
BITMAP
0200
0200
77C0
2240
2240
2240
3440
6440
09C0
0000
ENDCHAR
STARTCHAR 387a
ENCODING 14458
SWIDTH 960 0
DWIDTH 10 0
BBX 10 10 0 -2
BITMAP
1100
1100
7FC0
2940
4540
2940
1140
2A40
4AC0
0000
ENDCHAR
STARTCHAR 387b
ENCODING 14459
SWIDTH 960 0
DWIDTH 10 0
BBX 10 10 0 -2
BITMAP
1000
1000
3FC0
2040
4840
0840
1240
3E40
0180
0000
ENDCHAR
STARTCHAR 387c
ENCODING 14460
SWIDTH 960 0
DWIDTH 10 0
BBX 10 10 0 -2
BITMAP
3FC0
2880
2F80
2880
2F80
2100
2FC0
4200
4600
0000
ENDCHAR
STARTCHAR 387d
ENCODING 14461
SWIDTH 960 0
DWIDTH 10 0
BBX 10 10 0 -2
BITMAP
0000
7F80
4080
4080
4080
4080
4080
4080
7F80
0000
ENDCHAR
STARTCHAR 387e
ENCODING 14462
SWIDTH 960 0
DWIDTH 10 0
BBX 10 10 0 -2
BITMAP
0800
1000
7FC0
4040
5F40
5140
5140
5F40
40C0
0000
ENDCHAR
STARTCHAR 3921
ENCODING 14625
SWIDTH 960 0
DWIDTH 10 0
BBX 10 10 0 -2
BITMAP
0380
3C00
2000
3FC0
2000
2F80
4880
4880
0F80
0000
ENDCHAR
STARTCHAR 3922
ENCODING 14626
SWIDTH 960 0
DWIDTH 10 0
BBX 10 10 0 -2
BITMAP
02C0
7240
55C0
5C00
55C0
5680
55C0
7480
0540
0000
ENDCHAR
STARTCHAR 3923
ENCODING 14627
SWIDTH 960 0
DWIDTH 10 0
BBX 10 10 0 -2
BITMAP
2200
2FC0
7000
2700
2500
3500
2500
4940
11C0
0000
ENDCHAR
STARTCHAR 3924
ENCODING 14628
SWIDTH 960 0
DWIDTH 10 0
BBX 10 10 0 -2
BITMAP
2180
2600
7400
27C0
2400
35C0
2540
4940
09C0
0000
ENDCHAR
STARTCHAR 3925
ENCODING 14629
SWIDTH 960 0
DWIDTH 10 0
BBX 10 10 0 -2
BITMAP
1000
13C0
7C40
2880
2880
2BC0
1080
1880
2980
0000
ENDCHAR
STARTCHAR 3926
ENCODING 14630
SWIDTH 960 0
DWIDTH 10 0
BBX 10 10 0 -2
BITMAP
0200
7A00
0A00
1200
7A00
1200
1200
1240
33C0
0000
ENDCHAR
STARTCHAR 3927
ENCODING 14631
SWIDTH 960 0
DWIDTH 10 0
BBX 10 10 0 -2
BITMAP
0500
3F80
0400
7FC0
1100
2200
5F80
0200
0600
0000
ENDCHAR
STARTCHAR 3928
ENCODING 14632
SWIDTH 960 0
DWIDTH 10 0
BBX 10 10 0 -2
BITMAP
0400
7FC0
4840
3F80
0800
1200
1200
2480
4F40
0000
ENDCHAR
STARTCHAR 3929
ENCODING 14633
SWIDTH 960 0
DWIDTH 10 0
BBX 10 10 0 -2
BITMAP
0000
3F80
0400
0400
0400
0400
0400
0400
7FC0
0000
ENDCHAR
STARTCHAR 392a
ENCODING 14634
SWIDTH 960 0
DWIDTH 10 0
BBX 10 10 0 -2
BITMAP
07C0
7200
2200
27C0
2440
2040
3040
6040
0180
0000
ENDCHAR
STARTCHAR 392b
ENCODING 14635
SWIDTH 960 0
DWIDTH 10 0
BBX 10 10 0 -2
BITMAP
1100
3F80
1100
7FC0
1100
2E80
4640
1880
1F80
0000
ENDCHAR
STARTCHAR 392c
ENCODING 14636
SWIDTH 960 0
DWIDTH 10 0
BBX 10 10 0 -2
BITMAP
0400
3F80
0400
7FC0
1100
7FC0
0400
3F80
0400
0000
ENDCHAR
STARTCHAR 392d
ENCODING 14637
SWIDTH 960 0
DWIDTH 10 0
BBX 10 10 0 -2
BITMAP
0200
3FC0
2000
2200
2200
2400
2480
49C0
5E40
0000
ENDCHAR
STARTCHAR 392e
ENCODING 14638
SWIDTH 960 0
DWIDTH 10 0
BBX 10 10 0 -2
BITMAP
0200
3FC0
2200
2F80
22C0
2F80
2200
4500
58C0
0000
ENDCHAR
STARTCHAR 392f
ENCODING 14639
SWIDTH 960 0
DWIDTH 10 0
BBX 10 10 0 -2
BITMAP
0200
3FC0
2200
2F80
22C0
2F80
2240
4A80
5640
0000
ENDCHAR
STARTCHAR 3930
ENCODING 14640
SWIDTH 960 0
DWIDTH 10 0
BBX 10 10 0 -2
BITMAP
7100
1100
7100
4200
7200
1200
1280
1440
67C0
0000
ENDCHAR
STARTCHAR 3931
ENCODING 14641
SWIDTH 960 0
DWIDTH 10 0
BBX 10 10 0 -2
BITMAP
2FC0
2000
7780
6480
2780
2480
2780
2000
2FC0
0000
ENDCHAR
STARTCHAR 3932
ENCODING 14642
SWIDTH 960 0
DWIDTH 10 0
BBX 10 10 0 -2
BITMAP
2480
2FC0
7480
6FC0
2400
2780
2000
2A80
2AC0
0000
ENDCHAR
STARTCHAR 3933
ENCODING 14643
SWIDTH 960 0
DWIDTH 10 0
BBX 10 10 0 -2
BITMAP
2100
2100
77C0
2000
3380
6280
2280
2280
64C0
0000
ENDCHAR
STARTCHAR 3934
ENCODING 14644
SWIDTH 960 0
DWIDTH 10 0
BBX 10 10 0 -2
BITMAP
2400
2400
6FC0
2840
2740
6540
2740
2040
6180
0000
ENDCHAR
STARTCHAR 3935
ENCODING 14645
SWIDTH 960 0
DWIDTH 10 0
BBX 10 10 0 -2
BITMAP
2200
2FC0
6B40
2500
29C0
6000
2780
2200
6FC0
0000
ENDCHAR
STARTCHAR 3936
ENCODING 14646
SWIDTH 960 0
DWIDTH 10 0
BBX 10 10 0 -2
BITMAP
0200
0200
77C0
2880
2280
2280
3100
6280
0C40
0000
ENDCHAR
STARTCHAR 3937
ENCODING 14647
SWIDTH 960 0
DWIDTH 10 0
BBX 10 10 0 -2
BITMAP
3F80
2080
3F80
2080
3F80
73C0
4240
7AC0
0200
0000
ENDCHAR
STARTCHAR 3938
ENCODING 14648
SWIDTH 960 0
DWIDTH 10 0
BBX 10 10 0 -2
BITMAP
3F80
2080
3F80
2080
3F80
1500
7FC0
0A00
73C0
0000
ENDCHAR
STARTCHAR 3939
ENCODING 14649
SWIDTH 960 0
DWIDTH 10 0
BBX 10 10 0 -2
BITMAP
7FC0
0400
3F80
3F80
2480
3F80
1400
0C00
73C0
0000
ENDCHAR
STARTCHAR 393a
ENCODING 14650
SWIDTH 960 0
DWIDTH 10 0
BBX 10 10 0 -2
BITMAP
1100
17C0
7800
1380
3A80
3280
5280
1280
14C0
0000
ENDCHAR
STARTCHAR 393b
ENCODING 14651
SWIDTH 960 0
DWIDTH 10 0
BBX 10 10 0 -2
BITMAP
1100
17C0
7A80
1440
3A80
3280
5100
1280
1440
0000
ENDCHAR
STARTCHAR 393c
ENCODING 14652
SWIDTH 960 0
DWIDTH 10 0
BBX 10 10 0 -2
BITMAP
17C0
1100
7FC0
17C0
3540
37C0
5100
1300
16C0
0000
ENDCHAR
STARTCHAR 393d
ENCODING 14653
SWIDTH 960 0
DWIDTH 10 0
BBX 10 10 0 -2
BITMAP
2500
2FC0
7500
2FC0
7200
6F80
6A80
2FC0
2880
0000
ENDCHAR
STARTCHAR 393e
ENCODING 14654
SWIDTH 960 0
DWIDTH 10 0
BBX 10 10 0 -2
BITMAP
4000
2F80
0200
4200
2200
0200
2200
2200
5FC0
0000
ENDCHAR
STARTCHAR 393f
ENCODING 14655
SWIDTH 960 0
DWIDTH 10 0
BBX 10 10 0 -2
BITMAP
4500
2500
0F80
4500
2500
1FC0
2000
2880
5040
0000
ENDCHAR
STARTCHAR 3940
ENCODING 14656
SWIDTH 960 0
DWIDTH 10 0
BBX 10 10 0 -2
BITMAP
4500
2500
0FC0
4100
2FC0
0000
27C0
2440
47C0
0000
ENDCHAR
STARTCHAR 3941
ENCODING 14657
SWIDTH 960 0
DWIDTH 10 0
BBX 10 10 0 -2
BITMAP
4500
2F80
0500
5FC0
2880
1740
2F00
2880
4F80
0000
ENDCHAR
STARTCHAR 3942
ENCODING 14658
SWIDTH 960 0
DWIDTH 10 0
BBX 10 10 0 -2
BITMAP
4500
2FC0
0500
5FC0
2200
0F80
2A80
2FC0
4880
0000
ENDCHAR
STARTCHAR 3943
ENCODING 14659
SWIDTH 960 0
DWIDTH 10 0
BBX 10 10 0 -2
BITMAP
3F80
2480
3F80
2480
2480
3F80
0400
0400
0400
0000
ENDCHAR
STARTCHAR 3944
ENCODING 14660
SWIDTH 960 0
DWIDTH 10 0
BBX 10 10 0 -2
BITMAP
0800
1F00
1100
1100
3F80
0400
3F80
0400
7FC0
0000
ENDCHAR
STARTCHAR 3945
ENCODING 14661
SWIDTH 960 0
DWIDTH 10 0
BBX 10 10 0 -2
BITMAP
07C0
7100
27C0
77C0
5540
57C0
5100
7300
06C0
0000
ENDCHAR
STARTCHAR 3946
ENCODING 14662
SWIDTH 960 0
DWIDTH 10 0
BBX 10 10 0 -2
BITMAP
1900
77C0
1280
7B80
1000
37C0
3540
5740
14C0
0000
ENDCHAR
STARTCHAR 3947
ENCODING 14663
SWIDTH 960 0
DWIDTH 10 0
BBX 10 10 0 -2
BITMAP
2200
7FC0
6900
2B80
78C0
2B80
7940
6B80
2940
0000
ENDCHAR
STARTCHAR 3948
ENCODING 14664
SWIDTH 960 0
DWIDTH 10 0
BBX 10 10 0 -2
BITMAP
1000
27C0
5100
2900
7900
1100
5900
5100
17C0
0000
ENDCHAR
STARTCHAR 3949
ENCODING 14665
SWIDTH 960 0
DWIDTH 10 0
BBX 10 10 0 -2
BITMAP
1200
2200
57C0
2A00
7A80
1280
5480
5540
15C0
0000
ENDCHAR
STARTCHAR 394a
ENCODING 14666
SWIDTH 960 0
DWIDTH 10 0
BBX 10 10 0 -2
BITMAP
1100
27C0
5280
2440
7A80
1280
5900
5280
1440
0000
ENDCHAR
STARTCHAR 394b
ENCODING 14667
SWIDTH 960 0
DWIDTH 10 0
BBX 10 10 0 -2
BITMAP
2FC0
4840
2D40
4FC0
7A40
2AC0
6AC0
6FC0
2840
0000
ENDCHAR
STARTCHAR 394c
ENCODING 14668
SWIDTH 960 0
DWIDTH 10 0
BBX 10 10 0 -2
BITMAP
1280
7A80
17C0
3A80
1280
7FC0
1280
3A80
5480
0000
ENDCHAR
STARTCHAR 394d
ENCODING 14669
SWIDTH 960 0
DWIDTH 10 0
BBX 10 10 0 -2
BITMAP
0500
3F80
0600
7FC0
1800
2F80
4880
0080
0300
0000
ENDCHAR
STARTCHAR 394e
ENCODING 14670
SWIDTH 960 0
DWIDTH 10 0
BBX 10 10 0 -2
BITMAP
0400
1700
1400
7FC0
1100
1F00
1100
1F00
1100
0000
ENDCHAR
STARTCHAR 394f
ENCODING 14671
SWIDTH 960 0
DWIDTH 10 0
BBX 10 10 0 -2
BITMAP
7200
5200
77C0
5200
5280
7480
5500
5540
55C0
0000
ENDCHAR
STARTCHAR 3950
ENCODING 14672
SWIDTH 960 0
DWIDTH 10 0
BBX 10 10 0 -2
BITMAP
7100
57C0
7540
5280
54C0
7000
5380
5100
57C0
0000
ENDCHAR
STARTCHAR 3951
ENCODING 14673
SWIDTH 960 0
DWIDTH 10 0
BBX 10 10 0 -2
BITMAP
0400
7FC0
1100
7FC0
5140
1F00
1100
1F00
1100
0000
ENDCHAR
STARTCHAR 3952
ENCODING 14674
SWIDTH 960 0
DWIDTH 10 0
BBX 10 10 0 -2
BITMAP
2100
7100
57C0
5000
FB80
5280
5280
5280
54C0
0000
ENDCHAR
STARTCHAR 3953
ENCODING 14675
SWIDTH 960 0
DWIDTH 10 0
BBX 10 10 0 -2
BITMAP
1100
7FC0
1500
3F80
1000
1F00
0000
1540
64C0
0000
ENDCHAR
STARTCHAR 3954
ENCODING 14676
SWIDTH 960 0
DWIDTH 10 0
BBX 10 10 0 -2
BITMAP
2000
4780
1000
2FC0
6100
2100
2100
2100
2300
0000
ENDCHAR
STARTCHAR 3955
ENCODING 14677
SWIDTH 960 0
DWIDTH 10 0
BBX 10 10 0 -2
BITMAP
2600
4AC0
0400
2EC0
6A80
2480
2E80
2480
2A80
0000
ENDCHAR
STARTCHAR 3956
ENCODING 14678
SWIDTH 960 0
DWIDTH 10 0
BBX 10 10 0 -2
BITMAP
7280
07C0
7280
0FC0
7100
07C0
7540
5FC0
7440
0000
ENDCHAR
STARTCHAR 3957
ENCODING 14679
SWIDTH 960 0
DWIDTH 10 0
BBX 10 10 0 -2
BITMAP
1F00
0400
7FC0
1100
1F00
1100
1100
1F00
2080
0000
ENDCHAR
STARTCHAR 3958
ENCODING 14680
SWIDTH 960 0
DWIDTH 10 0
BBX 10 10 0 -2
BITMAP
7480
5FC0
7480
5FC0
7200
5780
7680
0FC0
5480
0000
ENDCHAR
STARTCHAR 3959
ENCODING 14681
SWIDTH 960 0
DWIDTH 10 0
BBX 10 10 0 -2
BITMAP
1000
13C0
7E40
2B80
4680
2A40
1240
2B80
4A00
0000
ENDCHAR
STARTCHAR 395a
ENCODING 14682
SWIDTH 960 0
DWIDTH 10 0
BBX 10 10 0 -2
BITMAP
7140
2780
7100
77C0
5280
5500
7FC0
5100
7300
0000
ENDCHAR
STARTCHAR 395b
ENCODING 14683
SWIDTH 960 0
DWIDTH 10 0
BBX 10 10 0 -2
BITMAP
1100
2900
77C0
1400
7D00
1500
5500
3A40
6BC0
0000
ENDCHAR
STARTCHAR 395c
ENCODING 14684
SWIDTH 960 0
DWIDTH 10 0
BBX 10 10 0 -2
BITMAP
0100
7100
27C0
4400
F500
5500
5500
7A40
0BC0
0000
ENDCHAR
STARTCHAR 395d
ENCODING 14685
SWIDTH 960 0
DWIDTH 10 0
BBX 10 10 0 -2
BITMAP
2FC0
5840
7D40
2FC0
7A40
2AC0
5AC0
2FC0
6840
0000
ENDCHAR
STARTCHAR 395e
ENCODING 14686
SWIDTH 960 0
DWIDTH 10 0
BBX 10 10 0 -2
BITMAP
7BC0
4A40
7BC0
4440
4E40
5140
4E40
4A40
4EC0
0000
ENDCHAR
STARTCHAR 395f
ENCODING 14687
SWIDTH 960 0
DWIDTH 10 0
BBX 10 10 0 -2
BITMAP
7380
5480
6300
54C0
5100
5380
6100
47C0
4100
0000
ENDCHAR
STARTCHAR 3960
ENCODING 14688
SWIDTH 960 0
DWIDTH 10 0
BBX 10 10 0 -2
BITMAP
0FC0
0200
7780
2480
2780
2480
3480
6780
0840
0000
ENDCHAR
STARTCHAR 3961
ENCODING 14689
SWIDTH 960 0
DWIDTH 10 0
BBX 10 10 0 -2
BITMAP
1F00
0400
7FC0
1500
3F80
5140
1F00
1100
1F00
0000
ENDCHAR
STARTCHAR 3962
ENCODING 14690
SWIDTH 960 0
DWIDTH 10 0
BBX 10 10 0 -2
BITMAP
0400
7FC0
1100
1F00
0000
7FC0
5140
5F40
40C0
0000
ENDCHAR
STARTCHAR 3963
ENCODING 14691
SWIDTH 960 0
DWIDTH 10 0
BBX 10 10 0 -2
BITMAP
4200
2380
1E80
4BC0
2A00
0BC0
1C40
2140
4540
0000
ENDCHAR
STARTCHAR 3964
ENCODING 14692
SWIDTH 960 0
DWIDTH 10 0
BBX 10 10 0 -2
BITMAP
7C40
4540
6D40
7D40
5540
5540
5440
7C40
44C0
0000
ENDCHAR
STARTCHAR 3965
ENCODING 14693
SWIDTH 960 0
DWIDTH 10 0
BBX 10 10 0 -2
BITMAP
2100
2100
7BC0
2140
7940
2140
4940
7A40
02C0
0000
ENDCHAR
STARTCHAR 3966
ENCODING 14694
SWIDTH 960 0
DWIDTH 10 0
BBX 10 10 0 -2
BITMAP
1F00
1100
1F00
0000
7FC0
0800
1F80
0080
0300
0000
ENDCHAR
STARTCHAR 3967
ENCODING 14695
SWIDTH 960 0
DWIDTH 10 0
BBX 10 10 0 -2
BITMAP
0400
0A00
1100
2E80
4040
1F00
1100
1100
1F00
0000
ENDCHAR
STARTCHAR 3968
ENCODING 14696
SWIDTH 960 0
DWIDTH 10 0
BBX 10 10 0 -2
BITMAP
0100
27C0
2380
7000
2FC0
2300
34C0
6280
0D40
0000
ENDCHAR
STARTCHAR 3969
ENCODING 14697
SWIDTH 960 0
DWIDTH 10 0
BBX 10 10 0 -2
BITMAP
2280
2780
7300
2FC0
3200
6780
2880
2080
6300
0000
ENDCHAR
STARTCHAR 396a
ENCODING 14698
SWIDTH 960 0
DWIDTH 10 0
BBX 10 10 0 -2
BITMAP
4100
2FC0
0780
4000
2FC0
0300
24C0
2280
4D40
0000
ENDCHAR
STARTCHAR 396b
ENCODING 14699
SWIDTH 960 0
DWIDTH 10 0
BBX 10 10 0 -2
BITMAP
0400
7FC0
1F00
0000
7FC0
1400
6A80
1300
64C0
0000
ENDCHAR
STARTCHAR 396c
ENCODING 14700
SWIDTH 960 0
DWIDTH 10 0
BBX 10 10 0 -2
BITMAP
0400
3F80
1100
1100
7FC0
2A80
2A80
7FC0
1100
0000
ENDCHAR
STARTCHAR 396d
ENCODING 14701
SWIDTH 960 0
DWIDTH 10 0
BBX 10 10 0 -2
BITMAP
2400
77C0
2A40
72C0
2740
52C0
3640
2280
5FC0
0000
ENDCHAR
STARTCHAR 396e
ENCODING 14702
SWIDTH 960 0
DWIDTH 10 0
BBX 10 10 0 -2
BITMAP
0400
7FC0
0400
1F00
1100
1F00
0A00
1240
63C0
0000
ENDCHAR
STARTCHAR 396f
ENCODING 14703
SWIDTH 960 0
DWIDTH 10 0
BBX 10 10 0 -2
BITMAP
1040
7D40
1140
2540
1940
1140
6540
0840
74C0
0000
ENDCHAR
STARTCHAR 3970
ENCODING 14704
SWIDTH 960 0
DWIDTH 10 0
BBX 10 10 0 -2
BITMAP
0400
1400
3F80
0400
7FC0
0000
1F00
1100
1F00
0000
ENDCHAR
STARTCHAR 3971
ENCODING 14705
SWIDTH 960 0
DWIDTH 10 0
BBX 10 10 0 -2
BITMAP
7FC0
4040
5F40
4440
5E40
4540
5F40
4040
7FC0
0000
ENDCHAR
STARTCHAR 3972
ENCODING 14706
SWIDTH 960 0
DWIDTH 10 0
BBX 10 10 0 -2
BITMAP
1380
7A80
12C0
7800
4B80
3280
7280
3900
52C0
0000
ENDCHAR
STARTCHAR 3973
ENCODING 14707
SWIDTH 960 0
DWIDTH 10 0
BBX 10 10 0 -2
BITMAP
7880
2280
7BC0
6880
5BC0
4800
7BC0
4A40
7BC0
0000
ENDCHAR
STARTCHAR 3974
ENCODING 14708
SWIDTH 960 0
DWIDTH 10 0
BBX 10 10 0 -2
BITMAP
1200
5380
7A80
13C0
7A00
03C0
7840
4A40
7880
0000
ENDCHAR
STARTCHAR 3975
ENCODING 14709
SWIDTH 960 0
DWIDTH 10 0
BBX 10 10 0 -2
BITMAP
1F00
1500
1F00
1500
3F80
0400
7FC0
0000
4A40
0000
ENDCHAR
STARTCHAR 3976
ENCODING 14710
SWIDTH 960 0
DWIDTH 10 0
BBX 10 10 0 -2
BITMAP
4EC0
3080
6DC0
2080
2E80
6080
2E80
2B40
4D40
0000
ENDCHAR
STARTCHAR 3977
ENCODING 14711
SWIDTH 960 0
DWIDTH 10 0
BBX 10 10 0 -2
BITMAP
4200
1FC0
1500
5FC0
1540
1FC0
1240
5480
56C0
0000
ENDCHAR
STARTCHAR 3978
ENCODING 14712
SWIDTH 960 0
DWIDTH 10 0
BBX 10 10 0 -2
BITMAP
77C0
5280
77C0
5540
57C0
7100
57C0
5280
5740
0000
ENDCHAR
STARTCHAR 3979
ENCODING 14713
SWIDTH 960 0
DWIDTH 10 0
BBX 10 10 0 -2
BITMAP
57C0
FA00
8B80
8A80
FA80
5280
7380
5280
74C0
0000
ENDCHAR
STARTCHAR 397a
ENCODING 14714
SWIDTH 960 0
DWIDTH 10 0
BBX 10 10 0 -2
BITMAP
2000
3F80
4A80
1280
2480
0100
0400
5240
5F40
0000
ENDCHAR
STARTCHAR 397b
ENCODING 14715
SWIDTH 960 0
DWIDTH 10 0
BBX 10 10 0 -2
BITMAP
2400
27C0
6AC0
6540
2A40
2080
2100
2A40
2B40
0000
ENDCHAR
STARTCHAR 397c
ENCODING 14716
SWIDTH 960 0
DWIDTH 10 0
BBX 10 10 0 -2
BITMAP
1F00
1100
1700
7FC0
5140
1F00
1100
1F00
1100
0000
ENDCHAR
STARTCHAR 397d
ENCODING 14717
SWIDTH 960 0
DWIDTH 10 0
BBX 10 10 0 -2
BITMAP
5100
2200
67C0
2440
2440
67C0
2440
2440
47C0
0000
ENDCHAR
STARTCHAR 397e
ENCODING 14718
SWIDTH 960 0
DWIDTH 10 0
BBX 10 10 0 -2
BITMAP
4600
2200
0200
6200
2500
2500
2880
2000
5FC0
0000
ENDCHAR
STARTCHAR 3a21
ENCODING 14881
SWIDTH 960 0
DWIDTH 10 0
BBX 10 10 0 -2
BITMAP
1200
1200
1240
5B80
5200
5200
5A00
7240
43C0
0000
ENDCHAR
STARTCHAR 3a22
ENCODING 14882
SWIDTH 960 0
DWIDTH 10 0
BBX 10 10 0 -2
BITMAP
0FC0
4200
5780
6480
4780
5480
7480
0780
0840
0000
ENDCHAR
STARTCHAR 3a23
ENCODING 14883
SWIDTH 960 0
DWIDTH 10 0
BBX 10 10 0 -2
BITMAP
0400
0A00
1100
6EC0
0000
3F00
0100
0200
0400
0000
ENDCHAR
STARTCHAR 3a24
ENCODING 14884
SWIDTH 960 0
DWIDTH 10 0
BBX 10 10 0 -2
BITMAP
7FC0
4040
4440
5F40
4440
4E40
5540
4040
7FC0
0000
ENDCHAR
STARTCHAR 3a25
ENCODING 14885
SWIDTH 960 0
DWIDTH 10 0
BBX 10 10 0 -2
BITMAP
2100
27C0
7540
27C0
2540
27C0
3100
6100
0100
0000
ENDCHAR
STARTCHAR 3a26
ENCODING 14886
SWIDTH 960 0
DWIDTH 10 0
BBX 10 10 0 -2
BITMAP
3380
6A80
3340
5280
2340
0400
3F80
0400
7FC0
0000
ENDCHAR
STARTCHAR 3a27
ENCODING 14887
SWIDTH 960 0
DWIDTH 10 0
BBX 10 10 0 -2
BITMAP
2780
2500
F7C0
5500
5780
54C0
2780
3480
5780
0000
ENDCHAR
STARTCHAR 3a28
ENCODING 14888
SWIDTH 960 0
DWIDTH 10 0
BBX 10 10 0 -2
BITMAP
2780
2480
7780
6480
2780
2600
2540
2480
2E40
0000
ENDCHAR
STARTCHAR 3a29
ENCODING 14889
SWIDTH 960 0
DWIDTH 10 0
BBX 10 10 0 -2
BITMAP
3380
6A80
1380
3240
5280
2340
0400
5240
5F40
0000
ENDCHAR
STARTCHAR 3a2a
ENCODING 14890
SWIDTH 960 0
DWIDTH 10 0
BBX 10 10 0 -2
BITMAP
3F00
2400
3F80
2240
79C0
0000
3F80
2080
3F80
0000
ENDCHAR
STARTCHAR 3a2b
ENCODING 14891
SWIDTH 960 0
DWIDTH 10 0
BBX 10 10 0 -2
BITMAP
3F80
2080
3F80
2080
3F80
4200
7380
4200
7BC0
0000
ENDCHAR
STARTCHAR 3a2c
ENCODING 14892
SWIDTH 960 0
DWIDTH 10 0
BBX 10 10 0 -2
BITMAP
1780
1480
7F80
1480
3780
3C40
5680
1500
16C0
0000
ENDCHAR
STARTCHAR 3a2d
ENCODING 14893
SWIDTH 960 0
DWIDTH 10 0
BBX 10 10 0 -2
BITMAP
2FC0
2840
6A40
2FC0
6A40
6F40
6AC0
2A40
2FC0
0000
ENDCHAR
STARTCHAR 3a2e
ENCODING 14894
SWIDTH 960 0
DWIDTH 10 0
BBX 10 10 0 -2
BITMAP
4780
2480
0780
4480
2780
0880
2EC0
2880
4EC0
0000
ENDCHAR
STARTCHAR 3a2f
ENCODING 14895
SWIDTH 960 0
DWIDTH 10 0
BBX 10 10 0 -2
BITMAP
0200
3FC0
2000
6F80
2880
6F80
2A40
4980
5C40
0000
ENDCHAR
ENDFONT
